<svg width="33" height="32" viewBox="0 0 33 32" fill="none" xmlns="http://www.w3.org/2000/svg">
<path d="M24.7096 7.90039H8.28963C8.20833 7.90152 8.12833 7.92099 8.05561 7.95735C7.98289 7.99371 7.91931 8.04603 7.86963 8.11039L2.64963 15.0004C2.57066 15.0942 2.52734 15.2128 2.52734 15.3354C2.52734 15.458 2.57066 15.5766 2.64963 15.6704L16.0896 29.9004C16.1383 29.9525 16.1971 29.994 16.2625 30.0224C16.3279 30.0508 16.3984 30.0654 16.4696 30.0654C16.5409 30.0654 16.6114 30.0508 16.6768 30.0224C16.7421 29.994 16.801 29.9525 16.8496 29.9004L30.2896 15.6704C30.3686 15.5766 30.4119 15.458 30.4119 15.3354C30.4119 15.2128 30.3686 15.0942 30.2896 15.0004L25.1296 8.11039C25.08 8.04603 25.0164 7.99371 24.9437 7.95735C24.8709 7.92099 24.7909 7.90152 24.7096 7.90039Z" fill="#00A6ED"/>
<path d="M16.0941 29.9023C16.2504 30.068 16.4274 30.0781 16.4965 30.0625L16.5128 29.9648V13.9961H3.41052C3.21 14.2617 2.77848 14.8328 2.65661 14.9922C2.50426 15.1914 2.4027 15.4102 2.65661 15.6797C2.91051 15.9492 15.8988 29.6953 16.0941 29.9023Z" fill="#1C5CD7"/>
<path d="M16.4957 7.90039H8.28962C8.20832 7.90152 8.12832 7.92099 8.0556 7.95735C7.98287 7.99371 7.9193 8.04603 7.86962 8.11039L3.03233 14.4952C2.83067 14.754 2.62661 15.2074 3.53358 15.2077C6.90294 15.209 9.68951 15.2165 11.6392 15.2165C12.6854 13.6509 14.3631 11.139 16.4957 7.90039Z" fill="#0084CE"/>
<path d="M16.5006 30.0581L11.6406 15.2295H21.3606L16.5006 30.0581Z" fill="#AEDDFF"/>
<path d="M24.5469 7.90039H16.5156V15.198H30.3994C30.3972 15.1773 30.3741 15.1092 30.2989 15.0018C30.2049 14.8675 25.3164 8.35962 25.1992 8.19556C25.082 8.03149 24.8711 7.90039 24.5469 7.90039Z" fill="#26EAFC"/>
<path d="M16.5006 7.90039L18.9306 11.5704L21.3606 15.2304H11.6406L14.0706 11.5704L16.5006 7.90039Z" fill="#B4F6FC"/>
</svg>
