<svg width="33" height="32" viewBox="0 0 33 32" fill="none" xmlns="http://www.w3.org/2000/svg">
<path d="M19.1055 3.74448L21.3086 8.36425C21.6498 9.05025 22.2719 9.5326 22.9943 9.63978L27.9218 10.3365C30.4604 10.7117 31.418 13.4375 29.4492 15.4219L25.9961 18.9844C25.4342 19.5417 25.1733 20.3671 25.3138 21.171L26.0898 26.2344C26.5314 28.8605 24.3195 30.7236 22.0818 29.5231L17.5464 27.1114C16.9142 26.7791 16.1717 26.7791 15.5395 27.1114L11.004 29.5231C8.7664 30.7128 6.41797 28.9062 7.07422 26.1719L7.83984 21.2188C7.98032 20.4148 7.71943 19.5895 7.15752 19.0322L3.63668 15.3438C1.65234 13.3828 2.62545 10.7117 5.16411 10.3365L9.9103 9.63978C10.6328 9.5326 11.4618 9.06097 11.793 8.36425L14.0406 3.74448C15.1845 1.41851 17.9716 1.41851 19.1055 3.74448Z" fill="url(#paint0_radial_131_260)"/>
<path d="M19.1055 3.74448L21.3086 8.36425C21.6498 9.05025 22.2719 9.5326 22.9943 9.63978L27.9218 10.3365C30.4604 10.7117 31.418 13.4375 29.4492 15.4219L25.9961 18.9844C25.4342 19.5417 25.1733 20.3671 25.3138 21.171L26.0898 26.2344C26.5314 28.8605 24.3195 30.7236 22.0818 29.5231L17.5464 27.1114C16.9142 26.7791 16.1717 26.7791 15.5395 27.1114L11.004 29.5231C8.7664 30.7128 6.41797 28.9062 7.07422 26.1719L7.83984 21.2188C7.98032 20.4148 7.71943 19.5895 7.15752 19.0322L3.63668 15.3438C1.65234 13.3828 2.62545 10.7117 5.16411 10.3365L9.9103 9.63978C10.6328 9.5326 11.4618 9.06097 11.793 8.36425L14.0406 3.74448C15.1845 1.41851 17.9716 1.41851 19.1055 3.74448Z" fill="url(#paint1_radial_131_260)"/>
<path d="M19.1055 3.74448L21.3086 8.36425C21.6498 9.05025 22.2719 9.5326 22.9943 9.63978L27.9218 10.3365C30.4604 10.7117 31.418 13.4375 29.4492 15.4219L25.9961 18.9844C25.4342 19.5417 25.1733 20.3671 25.3138 21.171L26.0898 26.2344C26.5314 28.8605 24.3195 30.7236 22.0818 29.5231L17.5464 27.1114C16.9142 26.7791 16.1717 26.7791 15.5395 27.1114L11.004 29.5231C8.7664 30.7128 6.41797 28.9062 7.07422 26.1719L7.83984 21.2188C7.98032 20.4148 7.71943 19.5895 7.15752 19.0322L3.63668 15.3438C1.65234 13.3828 2.62545 10.7117 5.16411 10.3365L9.9103 9.63978C10.6328 9.5326 11.4618 9.06097 11.793 8.36425L14.0406 3.74448C15.1845 1.41851 17.9716 1.41851 19.1055 3.74448Z" fill="url(#paint2_radial_131_260)"/>
<path d="M19.1055 3.74448L21.3086 8.36425C21.6498 9.05025 22.2719 9.5326 22.9943 9.63978L27.9218 10.3365C30.4604 10.7117 31.418 13.4375 29.4492 15.4219L25.9961 18.9844C25.4342 19.5417 25.1733 20.3671 25.3138 21.171L26.0898 26.2344C26.5314 28.8605 24.3195 30.7236 22.0818 29.5231L17.5464 27.1114C16.9142 26.7791 16.1717 26.7791 15.5395 27.1114L11.004 29.5231C8.7664 30.7128 6.41797 28.9062 7.07422 26.1719L7.83984 21.2188C7.98032 20.4148 7.71943 19.5895 7.15752 19.0322L3.63668 15.3438C1.65234 13.3828 2.62545 10.7117 5.16411 10.3365L9.9103 9.63978C10.6328 9.5326 11.4618 9.06097 11.793 8.36425L14.0406 3.74448C15.1845 1.41851 17.9716 1.41851 19.1055 3.74448Z" fill="url(#paint3_radial_131_260)"/>
<path d="M19.1055 3.74448L21.3086 8.36425C21.6498 9.05025 22.2719 9.5326 22.9943 9.63978L27.9218 10.3365C30.4604 10.7117 31.418 13.4375 29.4492 15.4219L25.9961 18.9844C25.4342 19.5417 25.1733 20.3671 25.3138 21.171L26.0898 26.2344C26.5314 28.8605 24.3195 30.7236 22.0818 29.5231L17.5464 27.1114C16.9142 26.7791 16.1717 26.7791 15.5395 27.1114L11.004 29.5231C8.7664 30.7128 6.41797 28.9062 7.07422 26.1719L7.83984 21.2188C7.98032 20.4148 7.71943 19.5895 7.15752 19.0322L3.63668 15.3438C1.65234 13.3828 2.62545 10.7117 5.16411 10.3365L9.9103 9.63978C10.6328 9.5326 11.4618 9.06097 11.793 8.36425L14.0406 3.74448C15.1845 1.41851 17.9716 1.41851 19.1055 3.74448Z" fill="url(#paint4_radial_131_260)"/>
<path d="M19.1055 3.74448L21.3086 8.36425C21.6498 9.05025 22.2719 9.5326 22.9943 9.63978L27.9218 10.3365C30.4604 10.7117 31.418 13.4375 29.4492 15.4219L25.9961 18.9844C25.4342 19.5417 25.1733 20.3671 25.3138 21.171L26.0898 26.2344C26.5314 28.8605 24.3195 30.7236 22.0818 29.5231L17.5464 27.1114C16.9142 26.7791 16.1717 26.7791 15.5395 27.1114L11.004 29.5231C8.7664 30.7128 6.41797 28.9062 7.07422 26.1719L7.83984 21.2188C7.98032 20.4148 7.71943 19.5895 7.15752 19.0322L3.63668 15.3438C1.65234 13.3828 2.62545 10.7117 5.16411 10.3365L9.9103 9.63978C10.6328 9.5326 11.4618 9.06097 11.793 8.36425L14.0406 3.74448C15.1845 1.41851 17.9716 1.41851 19.1055 3.74448Z" fill="url(#paint5_radial_131_260)"/>
<path d="M19.1055 3.74448L21.3086 8.36425C21.6498 9.05025 22.2719 9.5326 22.9943 9.63978L27.9218 10.3365C30.4604 10.7117 31.418 13.4375 29.4492 15.4219L25.9961 18.9844C25.4342 19.5417 25.1733 20.3671 25.3138 21.171L26.0898 26.2344C26.5314 28.8605 24.3195 30.7236 22.0818 29.5231L17.5464 27.1114C16.9142 26.7791 16.1717 26.7791 15.5395 27.1114L11.004 29.5231C8.7664 30.7128 6.41797 28.9062 7.07422 26.1719L7.83984 21.2188C7.98032 20.4148 7.71943 19.5895 7.15752 19.0322L3.63668 15.3438C1.65234 13.3828 2.62545 10.7117 5.16411 10.3365L9.9103 9.63978C10.6328 9.5326 11.4618 9.06097 11.793 8.36425L14.0406 3.74448C15.1845 1.41851 17.9716 1.41851 19.1055 3.74448Z" fill="url(#paint6_radial_131_260)"/>
<path d="M19.1055 3.74448L21.3086 8.36425C21.6498 9.05025 22.2719 9.5326 22.9943 9.63978L27.9218 10.3365C30.4604 10.7117 31.418 13.4375 29.4492 15.4219L25.9961 18.9844C25.4342 19.5417 25.1733 20.3671 25.3138 21.171L26.0898 26.2344C26.5314 28.8605 24.3195 30.7236 22.0818 29.5231L17.5464 27.1114C16.9142 26.7791 16.1717 26.7791 15.5395 27.1114L11.004 29.5231C8.7664 30.7128 6.41797 28.9062 7.07422 26.1719L7.83984 21.2188C7.98032 20.4148 7.71943 19.5895 7.15752 19.0322L3.63668 15.3438C1.65234 13.3828 2.62545 10.7117 5.16411 10.3365L9.9103 9.63978C10.6328 9.5326 11.4618 9.06097 11.793 8.36425L14.0406 3.74448C15.1845 1.41851 17.9716 1.41851 19.1055 3.74448Z" fill="url(#paint7_radial_131_260)"/>
<path d="M19.1055 3.74448L21.3086 8.36425C21.6498 9.05025 22.2719 9.5326 22.9943 9.63978L27.9218 10.3365C30.4604 10.7117 31.418 13.4375 29.4492 15.4219L25.9961 18.9844C25.4342 19.5417 25.1733 20.3671 25.3138 21.171L26.0898 26.2344C26.5314 28.8605 24.3195 30.7236 22.0818 29.5231L17.5464 27.1114C16.9142 26.7791 16.1717 26.7791 15.5395 27.1114L11.004 29.5231C8.7664 30.7128 6.41797 28.9062 7.07422 26.1719L7.83984 21.2188C7.98032 20.4148 7.71943 19.5895 7.15752 19.0322L3.63668 15.3438C1.65234 13.3828 2.62545 10.7117 5.16411 10.3365L9.9103 9.63978C10.6328 9.5326 11.4618 9.06097 11.793 8.36425L14.0406 3.74448C15.1845 1.41851 17.9716 1.41851 19.1055 3.74448Z" fill="url(#paint8_radial_131_260)"/>
<path d="M19.1055 3.74448L21.3086 8.36425C21.6498 9.05025 22.2719 9.5326 22.9943 9.63978L27.9218 10.3365C30.4604 10.7117 31.418 13.4375 29.4492 15.4219L25.9961 18.9844C25.4342 19.5417 25.1733 20.3671 25.3138 21.171L26.0898 26.2344C26.5314 28.8605 24.3195 30.7236 22.0818 29.5231L17.5464 27.1114C16.9142 26.7791 16.1717 26.7791 15.5395 27.1114L11.004 29.5231C8.7664 30.7128 6.41797 28.9062 7.07422 26.1719L7.83984 21.2188C7.98032 20.4148 7.71943 19.5895 7.15752 19.0322L3.63668 15.3438C1.65234 13.3828 2.62545 10.7117 5.16411 10.3365L9.9103 9.63978C10.6328 9.5326 11.4618 9.06097 11.793 8.36425L14.0406 3.74448C15.1845 1.41851 17.9716 1.41851 19.1055 3.74448Z" fill="url(#paint9_radial_131_260)"/>
<path d="M19.1055 3.74448L21.3086 8.36425C21.6498 9.05025 22.2719 9.5326 22.9943 9.63978L27.9218 10.3365C30.4604 10.7117 31.418 13.4375 29.4492 15.4219L25.9961 18.9844C25.4342 19.5417 25.1733 20.3671 25.3138 21.171L26.0898 26.2344C26.5314 28.8605 24.3195 30.7236 22.0818 29.5231L17.5464 27.1114C16.9142 26.7791 16.1717 26.7791 15.5395 27.1114L11.004 29.5231C8.7664 30.7128 6.41797 28.9062 7.07422 26.1719L7.83984 21.2188C7.98032 20.4148 7.71943 19.5895 7.15752 19.0322L3.63668 15.3438C1.65234 13.3828 2.62545 10.7117 5.16411 10.3365L9.9103 9.63978C10.6328 9.5326 11.4618 9.06097 11.793 8.36425L14.0406 3.74448C15.1845 1.41851 17.9716 1.41851 19.1055 3.74448Z" fill="url(#paint10_radial_131_260)"/>
<path d="M19.1055 3.74448L21.3086 8.36425C21.6498 9.05025 22.2719 9.5326 22.9943 9.63978L27.9218 10.3365C30.4604 10.7117 31.418 13.4375 29.4492 15.4219L25.9961 18.9844C25.4342 19.5417 25.1733 20.3671 25.3138 21.171L26.0898 26.2344C26.5314 28.8605 24.3195 30.7236 22.0818 29.5231L17.5464 27.1114C16.9142 26.7791 16.1717 26.7791 15.5395 27.1114L11.004 29.5231C8.7664 30.7128 6.41797 28.9062 7.07422 26.1719L7.83984 21.2188C7.98032 20.4148 7.71943 19.5895 7.15752 19.0322L3.63668 15.3438C1.65234 13.3828 2.62545 10.7117 5.16411 10.3365L9.9103 9.63978C10.6328 9.5326 11.4618 9.06097 11.793 8.36425L14.0406 3.74448C15.1845 1.41851 17.9716 1.41851 19.1055 3.74448Z" fill="url(#paint11_radial_131_260)"/>
<path d="M19.1055 3.74448L21.3086 8.36425C21.6498 9.05025 22.2719 9.5326 22.9943 9.63978L27.9218 10.3365C30.4604 10.7117 31.418 13.4375 29.4492 15.4219L25.9961 18.9844C25.4342 19.5417 25.1733 20.3671 25.3138 21.171L26.0898 26.2344C26.5314 28.8605 24.3195 30.7236 22.0818 29.5231L17.5464 27.1114C16.9142 26.7791 16.1717 26.7791 15.5395 27.1114L11.004 29.5231C8.7664 30.7128 6.41797 28.9062 7.07422 26.1719L7.83984 21.2188C7.98032 20.4148 7.71943 19.5895 7.15752 19.0322L3.63668 15.3438C1.65234 13.3828 2.62545 10.7117 5.16411 10.3365L9.9103 9.63978C10.6328 9.5326 11.4618 9.06097 11.793 8.36425L14.0406 3.74448C15.1845 1.41851 17.9716 1.41851 19.1055 3.74448Z" fill="url(#paint12_radial_131_260)"/>
<path d="M19.1055 3.74448L21.3086 8.36425C21.6498 9.05025 22.2719 9.5326 22.9943 9.63978L27.9218 10.3365C30.4604 10.7117 31.418 13.4375 29.4492 15.4219L25.9961 18.9844C25.4342 19.5417 25.1733 20.3671 25.3138 21.171L26.0898 26.2344C26.5314 28.8605 24.3195 30.7236 22.0818 29.5231L17.5464 27.1114C16.9142 26.7791 16.1717 26.7791 15.5395 27.1114L11.004 29.5231C8.7664 30.7128 6.41797 28.9062 7.07422 26.1719L7.83984 21.2188C7.98032 20.4148 7.71943 19.5895 7.15752 19.0322L3.63668 15.3438C1.65234 13.3828 2.62545 10.7117 5.16411 10.3365L9.9103 9.63978C10.6328 9.5326 11.4618 9.06097 11.793 8.36425L14.0406 3.74448C15.1845 1.41851 17.9716 1.41851 19.1055 3.74448Z" fill="url(#paint13_radial_131_260)"/>
<path d="M19.1055 3.74448L21.3086 8.36425C21.6498 9.05025 22.2719 9.5326 22.9943 9.63978L27.9218 10.3365C30.4604 10.7117 31.418 13.4375 29.4492 15.4219L25.9961 18.9844C25.4342 19.5417 25.1733 20.3671 25.3138 21.171L26.0898 26.2344C26.5314 28.8605 24.3195 30.7236 22.0818 29.5231L17.5464 27.1114C16.9142 26.7791 16.1717 26.7791 15.5395 27.1114L11.004 29.5231C8.7664 30.7128 6.41797 28.9062 7.07422 26.1719L7.83984 21.2188C7.98032 20.4148 7.71943 19.5895 7.15752 19.0322L3.63668 15.3438C1.65234 13.3828 2.62545 10.7117 5.16411 10.3365L9.9103 9.63978C10.6328 9.5326 11.4618 9.06097 11.793 8.36425L14.0406 3.74448C15.1845 1.41851 17.9716 1.41851 19.1055 3.74448Z" fill="url(#paint14_radial_131_260)"/>
<path d="M19.1055 3.74448L21.3086 8.36425C21.6498 9.05025 22.2719 9.5326 22.9943 9.63978L27.9218 10.3365C30.4604 10.7117 31.418 13.4375 29.4492 15.4219L25.9961 18.9844C25.4342 19.5417 25.1733 20.3671 25.3138 21.171L26.0898 26.2344C26.5314 28.8605 24.3195 30.7236 22.0818 29.5231L17.5464 27.1114C16.9142 26.7791 16.1717 26.7791 15.5395 27.1114L11.004 29.5231C8.7664 30.7128 6.41797 28.9062 7.07422 26.1719L7.83984 21.2188C7.98032 20.4148 7.71943 19.5895 7.15752 19.0322L3.63668 15.3438C1.65234 13.3828 2.62545 10.7117 5.16411 10.3365L9.9103 9.63978C10.6328 9.5326 11.4618 9.06097 11.793 8.36425L14.0406 3.74448C15.1845 1.41851 17.9716 1.41851 19.1055 3.74448Z" fill="url(#paint15_radial_131_260)"/>
<path d="M19.1055 3.74448L21.3086 8.36425C21.6498 9.05025 22.2719 9.5326 22.9943 9.63978L27.9218 10.3365C30.4604 10.7117 31.418 13.4375 29.4492 15.4219L25.9961 18.9844C25.4342 19.5417 25.1733 20.3671 25.3138 21.171L26.0898 26.2344C26.5314 28.8605 24.3195 30.7236 22.0818 29.5231L17.5464 27.1114C16.9142 26.7791 16.1717 26.7791 15.5395 27.1114L11.004 29.5231C8.7664 30.7128 6.41797 28.9062 7.07422 26.1719L7.83984 21.2188C7.98032 20.4148 7.71943 19.5895 7.15752 19.0322L3.63668 15.3438C1.65234 13.3828 2.62545 10.7117 5.16411 10.3365L9.9103 9.63978C10.6328 9.5326 11.4618 9.06097 11.793 8.36425L14.0406 3.74448C15.1845 1.41851 17.9716 1.41851 19.1055 3.74448Z" fill="url(#paint16_radial_131_260)"/>
<path d="M19.1055 3.74448L21.3086 8.36425C21.6498 9.05025 22.2719 9.5326 22.9943 9.63978L27.9218 10.3365C30.4604 10.7117 31.418 13.4375 29.4492 15.4219L25.9961 18.9844C25.4342 19.5417 25.1733 20.3671 25.3138 21.171L26.0898 26.2344C26.5314 28.8605 24.3195 30.7236 22.0818 29.5231L17.5464 27.1114C16.9142 26.7791 16.1717 26.7791 15.5395 27.1114L11.004 29.5231C8.7664 30.7128 6.41797 28.9062 7.07422 26.1719L7.83984 21.2188C7.98032 20.4148 7.71943 19.5895 7.15752 19.0322L3.63668 15.3438C1.65234 13.3828 2.62545 10.7117 5.16411 10.3365L9.9103 9.63978C10.6328 9.5326 11.4618 9.06097 11.793 8.36425L14.0406 3.74448C15.1845 1.41851 17.9716 1.41851 19.1055 3.74448Z" fill="url(#paint17_radial_131_260)"/>
<path d="M19.1055 3.74448L21.3086 8.36425C21.6498 9.05025 22.2719 9.5326 22.9943 9.63978L27.9218 10.3365C30.4604 10.7117 31.418 13.4375 29.4492 15.4219L25.9961 18.9844C25.4342 19.5417 25.1733 20.3671 25.3138 21.171L26.0898 26.2344C26.5314 28.8605 24.3195 30.7236 22.0818 29.5231L17.5464 27.1114C16.9142 26.7791 16.1717 26.7791 15.5395 27.1114L11.004 29.5231C8.7664 30.7128 6.41797 28.9062 7.07422 26.1719L7.83984 21.2188C7.98032 20.4148 7.71943 19.5895 7.15752 19.0322L3.63668 15.3438C1.65234 13.3828 2.62545 10.7117 5.16411 10.3365L9.9103 9.63978C10.6328 9.5326 11.4618 9.06097 11.793 8.36425L14.0406 3.74448C15.1845 1.41851 17.9716 1.41851 19.1055 3.74448Z" fill="url(#paint18_radial_131_260)"/>
<path d="M19.1055 3.74448L21.3086 8.36425C21.6498 9.05025 22.2719 9.5326 22.9943 9.63978L27.9218 10.3365C30.4604 10.7117 31.418 13.4375 29.4492 15.4219L25.9961 18.9844C25.4342 19.5417 25.1733 20.3671 25.3138 21.171L26.0898 26.2344C26.5314 28.8605 24.3195 30.7236 22.0818 29.5231L17.5464 27.1114C16.9142 26.7791 16.1717 26.7791 15.5395 27.1114L11.004 29.5231C8.7664 30.7128 6.41797 28.9062 7.07422 26.1719L7.83984 21.2188C7.98032 20.4148 7.71943 19.5895 7.15752 19.0322L3.63668 15.3438C1.65234 13.3828 2.62545 10.7117 5.16411 10.3365L9.9103 9.63978C10.6328 9.5326 11.4618 9.06097 11.793 8.36425L14.0406 3.74448C15.1845 1.41851 17.9716 1.41851 19.1055 3.74448Z" fill="url(#paint19_radial_131_260)"/>
<path d="M19.1055 3.74448L21.3086 8.36425C21.6498 9.05025 22.2719 9.5326 22.9943 9.63978L27.9218 10.3365C30.4604 10.7117 31.418 13.4375 29.4492 15.4219L25.9961 18.9844C25.4342 19.5417 25.1733 20.3671 25.3138 21.171L26.0898 26.2344C26.5314 28.8605 24.3195 30.7236 22.0818 29.5231L17.5464 27.1114C16.9142 26.7791 16.1717 26.7791 15.5395 27.1114L11.004 29.5231C8.7664 30.7128 6.41797 28.9062 7.07422 26.1719L7.83984 21.2188C7.98032 20.4148 7.71943 19.5895 7.15752 19.0322L3.63668 15.3438C1.65234 13.3828 2.62545 10.7117 5.16411 10.3365L9.9103 9.63978C10.6328 9.5326 11.4618 9.06097 11.793 8.36425L14.0406 3.74448C15.1845 1.41851 17.9716 1.41851 19.1055 3.74448Z" fill="url(#paint20_radial_131_260)"/>
<defs>
<radialGradient id="paint0_radial_131_260" cx="0" cy="0" r="1" gradientUnits="userSpaceOnUse" gradientTransform="translate(25.043 8.96877) rotate(132.939) scale(19.9803 19.7731)">
<stop stop-color="#F7C334"/>
<stop offset="1" stop-color="#FAC832"/>
</radialGradient>
<radialGradient id="paint1_radial_131_260" cx="0" cy="0" r="1" gradientUnits="userSpaceOnUse" gradientTransform="translate(16.5395 15.9478) rotate(90) scale(13.9478 13.9614)">
<stop stop-color="#DDBA38"/>
<stop offset="1" stop-color="#DDBA38" stop-opacity="0"/>
</radialGradient>
<radialGradient id="paint2_radial_131_260" cx="0" cy="0" r="1" gradientUnits="userSpaceOnUse" gradientTransform="translate(7.56097 10.0815) rotate(74.0546) scale(2.26515 7.5594)">
<stop stop-color="#DDBA38"/>
<stop offset="1" stop-color="#DDBA38" stop-opacity="0"/>
</radialGradient>
<radialGradient id="paint3_radial_131_260" cx="0" cy="0" r="1" gradientUnits="userSpaceOnUse" gradientTransform="translate(2.57813 11.5205) rotate(16.0828) scale(3.93102 3.93486)">
<stop stop-color="#B5953A"/>
<stop offset="1" stop-color="#B5953A" stop-opacity="0"/>
</radialGradient>
<radialGradient id="paint4_radial_131_260" cx="0" cy="0" r="1" gradientUnits="userSpaceOnUse" gradientTransform="translate(9.38893 30.8113) rotate(-58.4957) scale(2.82823 2.83099)">
<stop stop-color="#C47E42"/>
<stop offset="1" stop-color="#C47E42" stop-opacity="0"/>
</radialGradient>
<radialGradient id="paint5_radial_131_260" cx="0" cy="0" r="1" gradientUnits="userSpaceOnUse" gradientTransform="translate(31.5578 11.6761) rotate(150.751) scale(2.2288 2.93061)">
<stop stop-color="#FFF246"/>
<stop offset="1" stop-color="#FFF246" stop-opacity="0"/>
</radialGradient>
<radialGradient id="paint6_radial_131_260" cx="0" cy="0" r="1" gradientUnits="userSpaceOnUse" gradientTransform="translate(26.501 29.5) rotate(21.8014) scale(2.69258 1.34629)">
<stop stop-color="#FFF246"/>
<stop offset="1" stop-color="#FFF246" stop-opacity="0"/>
</radialGradient>
<radialGradient id="paint7_radial_131_260" cx="0" cy="0" r="1" gradientUnits="userSpaceOnUse" gradientTransform="translate(22.501 9) rotate(-45) scale(9.19239)">
<stop offset="0.113127" stop-color="#FFF249"/>
<stop offset="0.298269" stop-color="#FFF249" stop-opacity="0"/>
</radialGradient>
<radialGradient id="paint8_radial_131_260" cx="0" cy="0" r="1" gradientUnits="userSpaceOnUse" gradientTransform="translate(26.001 23) rotate(-18.435) scale(6.32455 13.1926)">
<stop offset="0.0592265" stop-color="#FFF249"/>
<stop offset="0.39519" stop-color="#FFF249" stop-opacity="0"/>
</radialGradient>
<radialGradient id="paint9_radial_131_260" cx="0" cy="0" r="1" gradientUnits="userSpaceOnUse" gradientTransform="translate(26.501 10.5) rotate(3.57634) scale(8.01561 2.16214)">
<stop offset="0.26571" stop-color="#FFF249"/>
<stop offset="0.807393" stop-color="#FFF249" stop-opacity="0"/>
</radialGradient>
<radialGradient id="paint10_radial_131_260" cx="0" cy="0" r="1" gradientUnits="userSpaceOnUse" gradientTransform="translate(19.501 4) rotate(74.4759) scale(9.34077 2.51959)">
<stop offset="0.26571" stop-color="#FFF249"/>
<stop offset="0.738695" stop-color="#FFF249" stop-opacity="0"/>
</radialGradient>
<radialGradient id="paint11_radial_131_260" cx="0" cy="0" r="1" gradientUnits="userSpaceOnUse" gradientTransform="translate(26.501 28) rotate(-98.5308) scale(10.1119 2.72758)">
<stop offset="0.26571" stop-color="#FFF249"/>
<stop offset="0.738695" stop-color="#FFF249" stop-opacity="0"/>
</radialGradient>
<radialGradient id="paint12_radial_131_260" cx="0" cy="0" r="1" gradientUnits="userSpaceOnUse" gradientTransform="translate(14.501 3.5) rotate(116.565) scale(10.0623 2.57148)">
<stop offset="0.0888889" stop-color="#B58B32"/>
<stop offset="0.933333" stop-color="#B58B32" stop-opacity="0"/>
</radialGradient>
<radialGradient id="paint13_radial_131_260" cx="0" cy="0" r="1" gradientUnits="userSpaceOnUse" gradientTransform="translate(3.00098 14.5) rotate(48.0128) scale(13.4536 4.78031)">
<stop offset="0.121202" stop-color="#B58B32"/>
<stop offset="0.758978" stop-color="#B58B32" stop-opacity="0"/>
</radialGradient>
<radialGradient id="paint14_radial_131_260" cx="0" cy="0" r="1" gradientUnits="userSpaceOnUse" gradientTransform="translate(7.50098 24) rotate(100.62) scale(8.13941 3.35943)">
<stop offset="0.121202" stop-color="#B58B32"/>
<stop offset="0.863208" stop-color="#B58B32" stop-opacity="0"/>
</radialGradient>
<radialGradient id="paint15_radial_131_260" cx="0" cy="0" r="1" gradientUnits="userSpaceOnUse" gradientTransform="translate(13.001 28.5) rotate(153.435) scale(7.82624 3.77337)">
<stop offset="0.121202" stop-color="#C6913B"/>
<stop offset="0.957143" stop-color="#C6913B" stop-opacity="0"/>
</radialGradient>
<radialGradient id="paint16_radial_131_260" cx="0" cy="0" r="1" gradientUnits="userSpaceOnUse" gradientTransform="translate(20.001 28) rotate(28.3007) scale(7.38241 2.68374)">
<stop offset="0.121202" stop-color="#B48A32"/>
<stop offset="0.738695" stop-color="#B48A32" stop-opacity="0"/>
</radialGradient>
<radialGradient id="paint17_radial_131_260" cx="0" cy="0" r="1" gradientUnits="userSpaceOnUse" gradientTransform="translate(7.00098 29) rotate(119.745) scale(4.03113 5.05829)">
<stop offset="0.144231" stop-color="#B58B32"/>
<stop offset="0.738695" stop-color="#B58B32" stop-opacity="0"/>
</radialGradient>
<radialGradient id="paint18_radial_131_260" cx="0" cy="0" r="1" gradientUnits="userSpaceOnUse" gradientTransform="translate(30.001 11) rotate(-29.7449) scale(4.03113 4.67456)">
<stop offset="0.0027979" stop-color="#FFF249"/>
<stop offset="0.686538" stop-color="#FFF249" stop-opacity="0"/>
</radialGradient>
<radialGradient id="paint19_radial_131_260" cx="0" cy="0" r="1" gradientUnits="userSpaceOnUse" gradientTransform="translate(28.001 16.5) rotate(45) scale(3.53553 8.60821)">
<stop offset="0.125" stop-color="#E0AE33"/>
<stop offset="0.95" stop-color="#E0AE33" stop-opacity="0"/>
</radialGradient>
<radialGradient id="paint20_radial_131_260" cx="0" cy="0" r="1" gradientUnits="userSpaceOnUse" gradientTransform="translate(28.501 17) rotate(45) scale(2.82843 9.68313)">
<stop offset="0.234947" stop-color="#E5BD42"/>
<stop offset="0.693004" stop-color="#E5BD42" stop-opacity="0"/>
</radialGradient>
</defs>
</svg>
