<svg width="1440" height="674" viewBox="0 0 1440 674" fill="none" xmlns="http://www.w3.org/2000/svg">
<path opacity="0.33" d="M1 545.886C240.667 110.132 480.333 54.3656 720 378.588C959.667 702.809 1199.33 758.576 1439 545.886" stroke="url(#paint0_linear_108_190)" stroke-opacity="0.56" stroke-width="2" stroke-linecap="round"/>
<path opacity="0.64" d="M1 524.487C240.667 102.999 480.333 54.3658 720 378.588C959.667 702.809 1199.33 751.443 1439 524.487" stroke="url(#paint1_linear_108_190)" stroke-opacity="0.56" stroke-width="2" stroke-linecap="round"/>
<path opacity="0.98" d="M1 503.088C240.667 95.8659 480.333 54.3655 720 378.587C959.667 702.809 1199.33 744.309 1439 503.088" stroke="url(#paint2_linear_108_190)" stroke-opacity="0.56" stroke-width="2" stroke-linecap="round"/>
<path opacity="0.47" d="M1 481.69C240.667 88.7334 480.333 54.3659 720 378.588C959.667 702.81 1199.33 737.177 1439 481.69" stroke="url(#paint3_linear_108_190)" stroke-opacity="0.56" stroke-width="2" stroke-linecap="round"/>
<path opacity="0.31" d="M1 460.291C240.667 81.6001 480.333 54.3655 720 378.587C959.667 702.809 1199.33 730.044 1439 460.291" stroke="url(#paint4_linear_108_190)" stroke-opacity="0.56" stroke-width="2" stroke-linecap="round"/>
<path opacity="0.31" d="M1 438.893C240.667 74.4675 480.333 54.3658 720 378.588C959.667 702.809 1199.33 722.911 1439 438.893" stroke="url(#paint5_linear_108_190)" stroke-opacity="0.56" stroke-width="2" stroke-linecap="round"/>
<path opacity="0.15" d="M1 417.494C240.667 67.3344 480.333 54.3655 720 378.587C959.667 702.809 1199.33 715.778 1439 417.494" stroke="url(#paint6_linear_108_190)" stroke-opacity="0.56" stroke-width="2" stroke-linecap="round"/>
<path opacity="0.8" d="M1 396.095C240.667 60.2017 480.333 54.3657 720 378.587C959.667 702.809 1199.33 708.645 1439 396.095" stroke="url(#paint7_linear_108_190)" stroke-opacity="0.56" stroke-width="2" stroke-linecap="round"/>
<path opacity="0.32" d="M1 374.697C240.667 53.0689 480.333 54.3657 720 378.588C959.667 702.809 1199.33 701.513 1439 374.697" stroke="url(#paint8_linear_108_190)" stroke-opacity="0.56" stroke-width="2" stroke-linecap="round"/>
<path opacity="0.21" d="M1 353.298C240.667 45.936 480.333 54.3658 720 378.588C959.667 702.809 1199.33 694.38 1439 353.298" stroke="url(#paint9_linear_108_190)" stroke-opacity="0.56" stroke-width="2" stroke-linecap="round"/>
<path opacity="0.67" d="M1 331.9C240.667 38.803 480.333 54.3657 720 378.587C959.667 702.809 1199.33 687.247 1439 331.9" stroke="url(#paint10_linear_108_190)" stroke-opacity="0.56" stroke-width="2" stroke-linecap="round"/>
<path opacity="0.98" d="M1 310.501C240.667 31.67 480.333 54.3655 720 378.587C959.667 702.809 1199.33 680.114 1439 310.501" stroke="url(#paint11_linear_108_190)" stroke-opacity="0.56" stroke-width="2" stroke-linecap="round"/>
<path opacity="0.43" d="M1 289.102C240.667 24.5371 480.333 54.3655 720 378.587C959.667 702.809 1199.33 672.981 1439 289.102" stroke="url(#paint12_linear_108_190)" stroke-opacity="0.56" stroke-width="2" stroke-linecap="round"/>
<path opacity="0.1" d="M1 267.704C240.667 17.4044 480.333 54.3657 720 378.587C959.667 702.809 1199.33 665.848 1439 267.704" stroke="url(#paint13_linear_108_190)" stroke-opacity="0.56" stroke-width="2" stroke-linecap="round"/>
<path opacity="0.67" d="M1 246.305C240.667 10.2713 480.333 54.3655 720 378.587C959.667 702.809 1199.33 658.715 1439 246.305" stroke="url(#paint14_linear_108_190)" stroke-opacity="0.56" stroke-width="2" stroke-linecap="round"/>
<path opacity="0.55" d="M1 224.906C240.667 3.13859 480.333 54.3656 720 378.588C959.667 702.809 1199.33 651.582 1439 224.906" stroke="url(#paint15_linear_108_190)" stroke-opacity="0.56" stroke-width="2" stroke-linecap="round"/>
<path opacity="0.38" d="M1 203.508C240.667 -3.99418 480.333 54.3657 720 378.588C959.667 702.809 1199.33 644.449 1439 203.508" stroke="url(#paint16_linear_108_190)" stroke-opacity="0.56" stroke-width="2" stroke-linecap="round"/>
<path opacity="0.17" d="M1 182.109C240.667 -11.1271 480.333 54.3657 720 378.587C959.667 702.809 1199.33 637.317 1439 182.109" stroke="url(#paint17_linear_108_190)" stroke-opacity="0.56" stroke-width="2" stroke-linecap="round"/>
<path opacity="0.56" d="M1 160.71C240.667 -18.2602 480.333 54.3655 720 378.587C959.667 702.809 1199.33 630.183 1439 160.71" stroke="url(#paint18_linear_108_190)" stroke-opacity="0.56" stroke-width="2" stroke-linecap="round"/>
<path opacity="0.35" d="M1 139.312C240.667 -25.3929 480.333 54.3657 720 378.587C959.667 702.809 1199.33 623.051 1439 139.312" stroke="url(#paint19_linear_108_190)" stroke-opacity="0.56" stroke-width="2" stroke-linecap="round"/>
<path opacity="0.41" d="M1 117.913C240.667 -32.5255 480.333 54.3659 720 378.588C959.667 702.81 1199.33 615.918 1439 117.913" stroke="url(#paint20_linear_108_190)" stroke-opacity="0.56" stroke-width="2" stroke-linecap="round"/>
<path opacity="0.29" d="M1 96.5143C240.667 -39.6588 480.333 54.3655 720 378.587C959.667 702.809 1199.33 608.785 1439 96.5143" stroke="url(#paint21_linear_108_190)" stroke-opacity="0.56" stroke-width="2" stroke-linecap="round"/>
<path opacity="0.42" d="M1 75.1159C240.667 -46.7915 480.333 54.3657 720 378.587C959.667 702.809 1199.33 601.652 1439 75.1159" stroke="url(#paint22_linear_108_190)" stroke-opacity="0.56" stroke-width="2" stroke-linecap="round"/>
<path opacity="0.54" d="M1 53.7171C240.667 -53.9245 480.333 54.3655 720 378.587C959.667 702.809 1199.33 594.519 1439 53.7171" stroke="url(#paint23_linear_108_190)" stroke-opacity="0.56" stroke-width="2" stroke-linecap="round"/>
<path opacity="0.61" d="M1 32.3186C240.667 -61.0573 480.333 54.3657 720 378.588C959.667 702.809 1199.33 587.386 1439 32.3186" stroke="url(#paint24_linear_108_190)" stroke-opacity="0.56" stroke-width="2" stroke-linecap="round"/>
<defs>
<linearGradient id="paint0_linear_108_190" x1="71901" y1="171.108" x2="71901" y2="50287" gradientUnits="userSpaceOnUse">
<stop stop-color="#FF8000"/>
<stop offset="1" stop-color="#FFB366"/>
</linearGradient>
<linearGradient id="paint1_linear_108_190" x1="71901" y1="167.139" x2="71901" y2="49919.9" gradientUnits="userSpaceOnUse">
<stop stop-color="#FF8000"/>
<stop offset="1" stop-color="#FFB366"/>
</linearGradient>
<linearGradient id="paint2_linear_108_190" x1="71901" y1="163.014" x2="71901" y2="49606.4" gradientUnits="userSpaceOnUse">
<stop stop-color="#FF8000"/>
<stop offset="1" stop-color="#FFB366"/>
</linearGradient>
<linearGradient id="paint3_linear_108_190" x1="71901" y1="158.727" x2="71901" y2="49344.7" gradientUnits="userSpaceOnUse">
<stop stop-color="#FF8000"/>
<stop offset="1" stop-color="#FFB366"/>
</linearGradient>
<linearGradient id="paint4_linear_108_190" x1="71901" y1="154.264" x2="71901" y2="49133.1" gradientUnits="userSpaceOnUse">
<stop stop-color="#FF8000"/>
<stop offset="1" stop-color="#FFB366"/>
</linearGradient>
<linearGradient id="paint5_linear_108_190" x1="71901" y1="149.617" x2="71901" y2="48970.6" gradientUnits="userSpaceOnUse">
<stop stop-color="#FF8000"/>
<stop offset="1" stop-color="#FFB366"/>
</linearGradient>
<linearGradient id="paint6_linear_108_190" x1="71901" y1="144.773" x2="71901" y2="48856" gradientUnits="userSpaceOnUse">
<stop stop-color="#FF8000"/>
<stop offset="1" stop-color="#FFB366"/>
</linearGradient>
<linearGradient id="paint7_linear_108_190" x1="71901" y1="139.721" x2="71901" y2="48788.8" gradientUnits="userSpaceOnUse">
<stop stop-color="#FF8000"/>
<stop offset="1" stop-color="#FFB366"/>
</linearGradient>
<linearGradient id="paint8_linear_108_190" x1="71901" y1="134.445" x2="71901" y2="48768.5" gradientUnits="userSpaceOnUse">
<stop stop-color="#FF8000"/>
<stop offset="1" stop-color="#FFB366"/>
</linearGradient>
<linearGradient id="paint9_linear_108_190" x1="71901" y1="128.93" x2="71901" y2="48795.1" gradientUnits="userSpaceOnUse">
<stop stop-color="#FF8000"/>
<stop offset="1" stop-color="#FFB366"/>
</linearGradient>
<linearGradient id="paint10_linear_108_190" x1="71901" y1="123.161" x2="71901" y2="48868.7" gradientUnits="userSpaceOnUse">
<stop stop-color="#FF8000"/>
<stop offset="1" stop-color="#FFB366"/>
</linearGradient>
<linearGradient id="paint11_linear_108_190" x1="71901" y1="117.118" x2="71901" y2="48989.9" gradientUnits="userSpaceOnUse">
<stop stop-color="#FF8000"/>
<stop offset="1" stop-color="#FFB366"/>
</linearGradient>
<linearGradient id="paint12_linear_108_190" x1="71901" y1="110.783" x2="71901" y2="49159.2" gradientUnits="userSpaceOnUse">
<stop stop-color="#FF8000"/>
<stop offset="1" stop-color="#FFB366"/>
</linearGradient>
<linearGradient id="paint13_linear_108_190" x1="71901" y1="104.133" x2="71901" y2="49377.8" gradientUnits="userSpaceOnUse">
<stop stop-color="#FF8000"/>
<stop offset="1" stop-color="#FFB366"/>
</linearGradient>
<linearGradient id="paint14_linear_108_190" x1="71901" y1="97.1447" x2="71901" y2="49646.9" gradientUnits="userSpaceOnUse">
<stop stop-color="#FF8000"/>
<stop offset="1" stop-color="#FFB366"/>
</linearGradient>
<linearGradient id="paint15_linear_108_190" x1="71901" y1="89.7913" x2="71901" y2="49968.2" gradientUnits="userSpaceOnUse">
<stop stop-color="#FF8000"/>
<stop offset="1" stop-color="#FFB366"/>
</linearGradient>
<linearGradient id="paint16_linear_108_190" x1="71901" y1="82.0432" x2="71901" y2="50343.8" gradientUnits="userSpaceOnUse">
<stop stop-color="#FF8000"/>
<stop offset="1" stop-color="#FFB366"/>
</linearGradient>
<linearGradient id="paint17_linear_108_190" x1="71901" y1="73.8677" x2="71901" y2="50776" gradientUnits="userSpaceOnUse">
<stop stop-color="#FF8000"/>
<stop offset="1" stop-color="#FFB366"/>
</linearGradient>
<linearGradient id="paint18_linear_108_190" x1="71901" y1="65.2286" x2="71901" y2="51267.6" gradientUnits="userSpaceOnUse">
<stop stop-color="#FF8000"/>
<stop offset="1" stop-color="#FFB366"/>
</linearGradient>
<linearGradient id="paint19_linear_108_190" x1="71901" y1="56.0857" x2="71901" y2="51822" gradientUnits="userSpaceOnUse">
<stop stop-color="#FF8000"/>
<stop offset="1" stop-color="#FFB366"/>
</linearGradient>
<linearGradient id="paint20_linear_108_190" x1="71901" y1="46.3932" x2="71901" y2="52443" gradientUnits="userSpaceOnUse">
<stop stop-color="#FF8000"/>
<stop offset="1" stop-color="#FFB366"/>
</linearGradient>
<linearGradient id="paint21_linear_108_190" x1="71901" y1="36.0995" x2="71901" y2="53135" gradientUnits="userSpaceOnUse">
<stop stop-color="#FF8000"/>
<stop offset="1" stop-color="#FFB366"/>
</linearGradient>
<linearGradient id="paint22_linear_108_190" x1="71901" y1="25.148" x2="71901" y2="53903.1" gradientUnits="userSpaceOnUse">
<stop stop-color="#FF8000"/>
<stop offset="1" stop-color="#FFB366"/>
</linearGradient>
<linearGradient id="paint23_linear_108_190" x1="71901" y1="13.4727" x2="71901" y2="54753.3" gradientUnits="userSpaceOnUse">
<stop stop-color="#FF8000"/>
<stop offset="1" stop-color="#FFB366"/>
</linearGradient>
<linearGradient id="paint24_linear_108_190" x1="71901" y1="1" x2="71901" y2="55692.4" gradientUnits="userSpaceOnUse">
<stop stop-color="#FF8000"/>
<stop offset="1" stop-color="#FFB366"/>
</linearGradient>
</defs>
</svg>
