<svg width="468" height="480" viewBox="0 0 468 480" fill="none" xmlns="http://www.w3.org/2000/svg">
<g clip-path="url(#clip0_108_726)">
<rect x="0.5" width="467" height="480" rx="16" fill="url(#paint0_linear_108_726)"/>
<g clip-path="url(#clip1_108_726)">
<path d="M342.25 703.152H142.69C116.688 703.152 95.5332 681.997 95.5332 655.995V141.157C95.5332 115.155 116.688 94 142.69 94H342.25C368.253 94 389.407 115.155 389.407 141.157V655.995C389.407 681.997 368.253 703.152 342.25 703.152Z" fill="#2F2E41"/>
<path d="M342.454 690.425H142.488C122.977 690.425 107.104 674.552 107.104 655.041V139.219C107.104 119.708 122.977 103.834 142.488 103.834H342.454C361.964 103.834 377.838 119.708 377.838 139.219V655.041C377.838 674.552 361.964 690.425 342.454 690.425Z" fill="white"/>
<path d="M273.709 137.387H210.075C202.738 137.387 196.77 131.418 196.77 124.082C196.77 116.745 202.738 110.776 210.075 110.776H273.709C281.046 110.776 287.014 116.745 287.014 124.082C287.014 131.418 281.046 137.387 273.709 137.387Z" fill="#2F2E41"/>
<path d="M178.85 166.58V170H177.77V166.565L174.245 161.03V161H175.445L178.325 165.575L181.175 161H182.36V161.03L178.85 166.58ZM185.903 170.165C183.698 170.165 182.393 168.755 182.393 166.49C182.393 164.225 183.848 162.86 185.903 162.86C187.958 162.86 189.413 164.225 189.413 166.49C189.413 168.755 188.108 170.165 185.903 170.165ZM185.903 163.82C184.358 163.82 183.428 164.84 183.428 166.475C183.428 168.11 184.313 169.205 185.888 169.205C187.493 169.205 188.378 168.11 188.378 166.475C188.378 164.84 187.448 163.82 185.903 163.82ZM196.208 170V168.14H196.178C195.893 169.505 194.963 170.165 193.703 170.165C191.783 170.165 191.168 168.905 191.168 167.42V163.025H192.203V167.18C192.203 168.23 192.623 169.22 194.063 169.22C195.383 169.22 196.208 168.485 196.208 167.18V163.025H197.228V170H196.208ZM200.561 163.025V165.05H200.591C200.846 163.625 201.551 163.025 202.706 163.025H203.186V164.15H202.616C201.221 164.15 200.561 164.72 200.561 166.175V170H199.526V163.025H200.561ZM213.29 167.225H209.15L208.04 170H206.885L210.65 161H211.82L215.585 170H214.415L213.29 167.225ZM211.265 162.065H211.19C210.83 163.04 210.35 164.285 209.93 165.32L209.525 166.31H212.915L212.525 165.32C212.105 164.285 211.61 163.025 211.265 162.065ZM223.668 166.505C223.668 168.77 222.558 170.18 220.713 170.165C219.048 170.18 218.223 169.235 217.968 167.855H217.953V172.085H216.918V163.025H217.953V165.14H217.983C218.268 163.775 219.108 162.86 220.668 162.86C222.633 162.86 223.668 164.27 223.668 166.505ZM217.953 166.46V166.55C217.953 168.17 218.898 169.235 220.353 169.235C221.853 169.235 222.633 168.23 222.633 166.505C222.633 164.765 221.898 163.805 220.353 163.805C218.898 163.805 217.953 164.765 217.953 166.46ZM232.244 166.505C232.244 168.77 231.134 170.18 229.289 170.165C227.624 170.18 226.799 169.235 226.544 167.855H226.529V172.085H225.494V163.025H226.529V165.14H226.559C226.844 163.775 227.684 162.86 229.244 162.86C231.209 162.86 232.244 164.27 232.244 166.505ZM226.529 166.46V166.55C226.529 168.17 227.474 169.235 228.929 169.235C230.429 169.235 231.209 168.23 231.209 166.505C231.209 164.765 230.474 163.805 228.929 163.805C227.474 163.805 226.529 164.765 226.529 166.46ZM244.606 170H243.316L240.136 165.185C239.521 164.225 238.816 163.04 238.291 162.125H238.261C238.276 163.1 238.291 164.39 238.291 165.395V170H237.241V161H238.741L241.501 165.23C242.281 166.43 243.001 167.645 243.541 168.56H243.571C243.556 167.645 243.541 166.55 243.541 165.605V161H244.606V170ZM248.91 170.15C247.515 170.15 246.63 169.505 246.63 168.2C246.63 167.045 247.425 166.145 249.06 166.145H251.475V165.68C251.475 164.435 251.025 163.775 249.765 163.775C248.64 163.775 248.04 164.315 247.845 165.59L246.855 165.425C247.11 163.73 248.085 162.875 249.795 162.875C251.67 162.875 252.495 163.865 252.495 165.65V170H251.475V168.2H251.445C251.145 169.52 250.125 170.15 248.91 170.15ZM251.475 167.435V166.985H249.165C248.16 166.985 247.65 167.36 247.65 168.11C247.65 168.695 248.04 169.265 249.135 169.265C250.575 169.265 251.475 168.47 251.475 167.435ZM255.749 163.025V164.9H255.764C256.064 163.535 256.994 162.86 258.254 162.86C259.919 162.86 260.609 163.82 260.744 165.035H260.774C260.999 163.58 261.824 162.86 263.249 162.86C265.199 162.86 265.829 164.135 265.829 165.62V170H264.794V165.845C264.794 164.825 264.344 163.805 262.934 163.805C261.599 163.805 260.789 164.54 260.789 165.845V170H259.754V165.845C259.754 164.825 259.319 163.805 257.894 163.805C256.559 163.805 255.749 164.54 255.749 165.845V170H254.714V163.025H255.749ZM271.111 170.165C268.951 170.165 267.571 168.8 267.571 166.535C267.571 164.24 269.026 162.86 271.081 162.86C273.121 162.86 274.276 164.165 274.276 166.1C274.276 166.28 274.261 166.55 274.246 166.835H268.606C268.726 168.35 269.611 169.235 271.111 169.235C272.491 169.235 273.046 168.515 273.301 167.615L274.231 167.885C273.871 169.31 272.836 170.165 271.111 170.165ZM268.636 165.98H273.301C273.226 164.585 272.491 163.775 271.051 163.775C269.686 163.775 268.801 164.525 268.636 165.98Z" fill="black"/>
<path d="M130.5 382H292.5V391H130.5V382Z" fill="#3C5FEB"/>
<path d="M174.5 176H249.5V184H174.5V176Z" fill="#3C5FEB"/>
<path d="M130.5 397H238.5V406H130.5V397Z" fill="#D9D9D9"/>
<rect x="130.5" y="221" width="160" height="140" rx="8" fill="#BAC6F8"/>
<rect x="317.5" y="221" width="31" height="29" rx="4" fill="#3C5FEB"/>
<rect x="317.5" y="258" width="31" height="29" rx="4" fill="#D9D9D9"/>
<rect x="317.5" y="295" width="31" height="29" rx="4" fill="#3C5FEB"/>
<rect x="317.5" y="332" width="31" height="29" rx="4" fill="#D9D9D9"/>
<circle cx="149" cy="165.5" r="18.5" fill="#3C5FEB"/>
<circle cx="148" cy="441.5" r="17.5" fill="#3C5FEB"/>
<circle cx="242" cy="441.5" r="17.5" fill="#D9D9D9"/>
<circle cx="336" cy="441.5" r="17.5" fill="#D9D9D9"/>
</g>
<path d="M209.324 52.848H196.94L194.252 60H188.588L200.108 31.2H206.348L217.868 60H211.964L209.324 52.848ZM203.324 36.576H202.988C202.028 39.312 200.924 42.288 199.916 45.024L198.668 48.384H207.644L206.396 45.024C205.292 42.288 204.236 39.312 203.324 36.576ZM224.021 37.008V37.44H229.877V41.808H224.021V60H218.885V41.808H215.285V37.44H218.885V37.056C218.885 32.64 221.333 29.616 226.661 29.616C228.341 29.616 229.397 29.808 230.309 30L229.877 33.744C228.965 33.6 228.149 33.504 227.333 33.504C225.125 33.504 224.021 34.656 224.021 37.008ZM230.472 41.808V37.44H233.544V31.44H238.68V37.44H245.352V41.808H238.68V52.272C238.68 54.432 239.544 55.584 241.8 55.584C242.952 55.584 244.008 55.296 245.016 55.056L245.64 59.808C243.96 60.336 242.856 60.624 240.6 60.624C235.656 60.624 233.544 57.36 233.544 53.136V41.808H230.472ZM257.518 60.576C250.606 60.576 245.998 56.496 245.998 49.008C245.998 41.376 250.462 36.864 257.518 36.864C264.382 36.864 267.838 41.184 267.838 47.376V47.424C267.838 48.336 267.886 49.2 267.742 50.4H251.182C251.662 54.192 253.774 56.064 257.566 56.064C261.166 56.064 262.558 54.288 263.182 51.984L267.694 53.28C266.542 57.552 263.47 60.576 257.518 60.576ZM251.23 46.56H263.038C262.75 43.008 260.878 41.232 257.374 41.232C253.966 41.232 251.806 42.912 251.23 46.56ZM275.348 37.44V44.832H275.444C276.5 38.976 278.42 37.44 281.876 37.44H283.172V43.248H280.964C276.932 43.248 275.348 44.592 275.348 48.576V60H270.164V37.44H275.348Z" fill="#45241B"/>
</g>
<defs>
<linearGradient id="paint0_linear_108_726" x1="234" y1="0" x2="234" y2="480" gradientUnits="userSpaceOnUse">
<stop stop-color="#D88F4A"/>
<stop offset="1" stop-color="#AB713B"/>
</linearGradient>
<clipPath id="clip0_108_726">
<rect x="0.5" width="467" height="480" rx="16" fill="white"/>
</clipPath>
<clipPath id="clip1_108_726">
<rect width="525.301" height="609.595" fill="white" transform="translate(-58.5 94)"/>
</clipPath>
</defs>
</svg>
