<svg width="32" height="32" viewBox="0 0 32 32" fill="none" xmlns="http://www.w3.org/2000/svg">
<path fill-rule="evenodd" clip-rule="evenodd" d="M28.9282 10.3004C30.1592 11.6067 30.0982 13.6636 28.7918 14.8946L13.9399 28.8901C12.6485 30.107 10.6198 30.0632 9.38213 28.7917L3.11839 22.3567C1.86641 21.0705 1.89417 19.0129 3.18037 17.7609C4.46658 16.509 6.52418 16.5367 7.77615 17.8229L11.8094 21.9665L24.3341 10.164C25.6404 8.93304 27.6972 8.99411 28.9282 10.3004Z" fill="#785DC8"/>
<path fill-rule="evenodd" clip-rule="evenodd" d="M28.9282 10.3004C30.1592 11.6067 30.0982 13.6636 28.7918 14.8946L13.9399 28.8901C12.6485 30.107 10.6198 30.0632 9.38213 28.7917L3.11839 22.3567C1.86641 21.0705 1.89417 19.0129 3.18037 17.7609C4.46658 16.509 6.52418 16.5367 7.77615 17.8229L11.8094 21.9665L24.3341 10.164C25.6404 8.93304 27.6972 8.99411 28.9282 10.3004Z" fill="url(#paint0_linear_128_317)"/>
<path fill-rule="evenodd" clip-rule="evenodd" d="M28.9282 10.3004C30.1592 11.6067 30.0982 13.6636 28.7918 14.8946L13.9399 28.8901C12.6485 30.107 10.6198 30.0632 9.38213 28.7917L3.11839 22.3567C1.86641 21.0705 1.89417 19.0129 3.18037 17.7609C4.46658 16.509 6.52418 16.5367 7.77615 17.8229L11.8094 21.9665L24.3341 10.164C25.6404 8.93304 27.6972 8.99411 28.9282 10.3004Z" fill="url(#paint1_radial_128_317)"/>
<path fill-rule="evenodd" clip-rule="evenodd" d="M28.9282 10.3004C30.1592 11.6067 30.0982 13.6636 28.7918 14.8946L13.9399 28.8901C12.6485 30.107 10.6198 30.0632 9.38213 28.7917L3.11839 22.3567C1.86641 21.0705 1.89417 19.0129 3.18037 17.7609C4.46658 16.509 6.52418 16.5367 7.77615 17.8229L11.8094 21.9665L24.3341 10.164C25.6404 8.93304 27.6972 8.99411 28.9282 10.3004Z" fill="url(#paint2_radial_128_317)" fill-opacity="0.8"/>
<path d="M24.334 10.1641C25.6403 8.93308 27.6977 8.99447 28.9287 10.3008C30.1592 11.6071 30.0981 13.6637 28.792 14.8945L13.9395 28.8896C13.3279 29.4659 12.5514 29.7562 11.7715 29.7705L11.7715 21.9268L11.8096 21.9668L24.334 10.1641Z" fill="url(#paint3_linear_128_317)"/>
<path d="M24.334 10.1641C25.6403 8.93308 27.6977 8.99447 28.9287 10.3008C30.1592 11.6071 30.0981 13.6637 28.792 14.8945L13.9395 28.8896C13.3279 29.4659 12.5514 29.7562 11.7715 29.7705L11.7715 21.9268L11.8096 21.9668L24.334 10.1641Z" fill="url(#paint4_radial_128_317)"/>
<path d="M24.334 10.1641C25.6403 8.93308 27.6977 8.99447 28.9287 10.3008C30.1592 11.6071 30.0981 13.6637 28.792 14.8945L13.9395 28.8896C13.3279 29.4659 12.5514 29.7562 11.7715 29.7705L11.7715 21.9268L11.8096 21.9668L24.334 10.1641Z" fill="url(#paint5_radial_128_317)"/>
<path d="M24.334 10.1641C25.6403 8.93308 27.6977 8.99447 28.9287 10.3008C30.1592 11.6071 30.0981 13.6637 28.792 14.8945L13.9395 28.8896C13.3279 29.4659 12.5514 29.7562 11.7715 29.7705L11.7715 21.9268L11.8096 21.9668L24.334 10.1641Z" fill="url(#paint6_radial_128_317)"/>
<path d="M24.334 10.1641C25.6403 8.93308 27.6977 8.99447 28.9287 10.3008C30.1592 11.6071 30.0981 13.6637 28.792 14.8945L13.9395 28.8896C13.3279 29.4659 12.5514 29.7562 11.7715 29.7705L11.7715 21.9268L11.8096 21.9668L24.334 10.1641Z" fill="url(#paint7_radial_128_317)" fill-opacity="0.8"/>
<defs>
<linearGradient id="paint0_linear_128_317" x1="10.7199" y1="20.3886" x2="5.78581" y2="25.3227" gradientUnits="userSpaceOnUse">
<stop stop-color="#655898"/>
<stop offset="0.198744" stop-color="#978CCF"/>
<stop offset="0.290502" stop-color="#978CCF"/>
<stop offset="0.361715" stop-color="#978CCF"/>
<stop offset="0.522977" stop-color="#7966C1"/>
<stop offset="0.818118" stop-color="#8842EC"/>
<stop offset="1" stop-color="#6035BE"/>
</linearGradient>
<radialGradient id="paint1_radial_128_317" cx="0" cy="0" r="1" gradientUnits="userSpaceOnUse" gradientTransform="translate(9.10765 23.454) rotate(47.1984) scale(10.1514)">
<stop offset="0.568763" stop-color="#423473" stop-opacity="0"/>
<stop offset="0.862826" stop-color="#41366A"/>
</radialGradient>
<radialGradient id="paint2_radial_128_317" cx="0" cy="0" r="1" gradientUnits="userSpaceOnUse" gradientTransform="translate(12.008 27.8081) rotate(-90) scale(2.01214 2.70769)">
<stop offset="0.0961684" stop-color="#9447FE"/>
<stop offset="0.846473" stop-color="#9447FE" stop-opacity="0"/>
</radialGradient>
<linearGradient id="paint3_linear_128_317" x1="15.3546" y1="17.9491" x2="20.7911" y2="23.7143" gradientUnits="userSpaceOnUse">
<stop stop-color="#473B76"/>
<stop offset="0.266006" stop-color="#6C5EA9"/>
<stop offset="0.522977" stop-color="#7966C1"/>
<stop offset="0.735806" stop-color="#7C50D8"/>
<stop offset="0.894873" stop-color="#6035BE"/>
</linearGradient>
<radialGradient id="paint4_radial_128_317" cx="0" cy="0" r="1" gradientUnits="userSpaceOnUse" gradientTransform="translate(27.9497 11.0707) rotate(-54.0993) scale(3.17759 3.17779)">
<stop offset="0.1767" stop-color="#A398D8"/>
<stop offset="1" stop-color="#8A7ACC" stop-opacity="0"/>
</radialGradient>
<radialGradient id="paint5_radial_128_317" cx="0" cy="0" r="1" gradientUnits="userSpaceOnUse" gradientTransform="translate(11.3455 24.2395) rotate(90) scale(3.02744 2.08178)">
<stop offset="0.366279" stop-color="#978CCF"/>
<stop offset="1" stop-color="#7363B5" stop-opacity="0"/>
</radialGradient>
<radialGradient id="paint6_radial_128_317" cx="0" cy="0" r="1" gradientUnits="userSpaceOnUse" gradientTransform="translate(19.5132 24.2178) rotate(89.4241) scale(21.7937 19.3655)">
<stop offset="0.568763" stop-color="#423473" stop-opacity="0"/>
<stop offset="0.862826" stop-color="#41366A"/>
</radialGradient>
<radialGradient id="paint7_radial_128_317" cx="0" cy="0" r="1" gradientUnits="userSpaceOnUse" gradientTransform="translate(11.7715 27.6972) rotate(-90) scale(2.17819 2.7092)">
<stop offset="0.0961684" stop-color="#9447FE"/>
<stop offset="0.846473" stop-color="#9447FE" stop-opacity="0"/>
</radialGradient>
</defs>
</svg>
