<svg width="32" height="32" viewBox="0 0 32 32" fill="none" xmlns="http://www.w3.org/2000/svg">
<circle cx="5.37891" cy="23.251" r="1.55078" fill="url(#paint0_radial_18_17387)"/>
<circle cx="26.6328" cy="23.2627" r="1.55078" fill="url(#paint1_radial_18_17387)"/>
<circle cx="26.6328" cy="23.2627" r="1.55078" fill="url(#paint2_radial_18_17387)"/>
<path d="M9.00781 13.083C8.40781 13.983 7.97135 15.208 7.82031 15.6768L10.1641 17.3643L11.9531 15.0986C11.7422 14.7731 11.2406 14.0479 10.9531 13.6729C10.6656 13.2979 10.2318 12.8395 10.0547 12.6572L9.00781 13.083Z" fill="url(#paint3_radial_18_17387)"/>
<path d="M9.00781 13.083C8.40781 13.983 7.97135 15.208 7.82031 15.6768L10.1641 17.3643L11.9531 15.0986C11.7422 14.7731 11.2406 14.0479 10.9531 13.6729C10.6656 13.2979 10.2318 12.8395 10.0547 12.6572L9.00781 13.083Z" fill="url(#paint4_radial_18_17387)"/>
<path d="M22.9922 13.083C23.5922 13.983 24.0286 15.208 24.1797 15.6768L21.8359 17.3643L20.0469 15.0986C20.2578 14.7731 20.7594 14.0479 21.0469 13.6729C21.3344 13.2979 21.7682 12.8395 21.9453 12.6572L22.9922 13.083Z" fill="url(#paint5_radial_18_17387)"/>
<path d="M22.9922 13.083C23.5922 13.983 24.0286 15.208 24.1797 15.6768L21.8359 17.3643L20.0469 15.0986C20.2578 14.7731 20.7594 14.0479 21.0469 13.6729C21.3344 13.2979 21.7682 12.8395 21.9453 12.6572L22.9922 13.083Z" fill="url(#paint6_radial_18_17387)"/>
<path d="M22.9922 13.083C23.5922 13.983 24.0286 15.208 24.1797 15.6768L21.8359 17.3643L20.0469 15.0986C20.2578 14.7731 20.7594 14.0479 21.0469 13.6729C21.3344 13.2979 21.7682 12.8395 21.9453 12.6572L22.9922 13.083Z" fill="url(#paint7_radial_18_17387)"/>
<path d="M3.125 13.1533L6.23123 28.312C6.38376 29.0564 7.03881 29.5908 7.79866 29.5908H24.2013C24.9612 29.5908 25.6162 29.0564 25.7688 28.312L28.875 13.1533L27.8834 12.6689C26.3986 13.7471 23.2914 15.958 22.4887 16.4424C21.8486 16.8286 21.2607 16.1991 21.139 16.0205C20.0215 14.3799 18.3172 11.992 17.6797 11.1533C17.0265 10.2939 16.2886 9.86947 16 9.83301C15.7114 9.86947 14.9735 10.2939 14.3203 11.1533C13.6828 11.992 11.9785 14.3799 10.861 16.0205C10.7393 16.1991 10.1514 16.8286 9.51135 16.4424C8.70863 15.958 5.60137 13.7471 4.1166 12.6689L3.125 13.1533Z" fill="url(#paint8_linear_18_17387)"/>
<path d="M3.125 13.1533L6.23123 28.312C6.38376 29.0564 7.03881 29.5908 7.79866 29.5908H24.2013C24.9612 29.5908 25.6162 29.0564 25.7688 28.312L28.875 13.1533L27.8834 12.6689C26.3986 13.7471 23.2914 15.958 22.4887 16.4424C21.8486 16.8286 21.2607 16.1991 21.139 16.0205C20.0215 14.3799 18.3172 11.992 17.6797 11.1533C17.0265 10.2939 16.2886 9.86947 16 9.83301C15.7114 9.86947 14.9735 10.2939 14.3203 11.1533C13.6828 11.992 11.9785 14.3799 10.861 16.0205C10.7393 16.1991 10.1514 16.8286 9.51135 16.4424C8.70863 15.958 5.60137 13.7471 4.1166 12.6689L3.125 13.1533Z" fill="url(#paint9_radial_18_17387)"/>
<path d="M3.125 13.1533L6.23123 28.312C6.38376 29.0564 7.03881 29.5908 7.79866 29.5908H24.2013C24.9612 29.5908 25.6162 29.0564 25.7688 28.312L28.875 13.1533L27.8834 12.6689C26.3986 13.7471 23.2914 15.958 22.4887 16.4424C21.8486 16.8286 21.2607 16.1991 21.139 16.0205C20.0215 14.3799 18.3172 11.992 17.6797 11.1533C17.0265 10.2939 16.2886 9.86947 16 9.83301C15.7114 9.86947 14.9735 10.2939 14.3203 11.1533C13.6828 11.992 11.9785 14.3799 10.861 16.0205C10.7393 16.1991 10.1514 16.8286 9.51135 16.4424C8.70863 15.958 5.60137 13.7471 4.1166 12.6689L3.125 13.1533Z" fill="url(#paint10_linear_18_17387)"/>
<path d="M3.125 13.1533L6.23123 28.312C6.38376 29.0564 7.03881 29.5908 7.79866 29.5908H24.2013C24.9612 29.5908 25.6162 29.0564 25.7688 28.312L28.875 13.1533L27.8834 12.6689C26.3986 13.7471 23.2914 15.958 22.4887 16.4424C21.8486 16.8286 21.2607 16.1991 21.139 16.0205C20.0215 14.3799 18.3172 11.992 17.6797 11.1533C17.0265 10.2939 16.2886 9.86947 16 9.83301C15.7114 9.86947 14.9735 10.2939 14.3203 11.1533C13.6828 11.992 11.9785 14.3799 10.861 16.0205C10.7393 16.1991 10.1514 16.8286 9.51135 16.4424C8.70863 15.958 5.60137 13.7471 4.1166 12.6689L3.125 13.1533Z" fill="url(#paint11_linear_18_17387)"/>
<path d="M3.125 13.1533L6.23123 28.312C6.38376 29.0564 7.03881 29.5908 7.79866 29.5908H24.2013C24.9612 29.5908 25.6162 29.0564 25.7688 28.312L28.875 13.1533L27.8834 12.6689C26.3986 13.7471 23.2914 15.958 22.4887 16.4424C21.8486 16.8286 21.2607 16.1991 21.139 16.0205C20.0215 14.3799 18.3172 11.992 17.6797 11.1533C17.0265 10.2939 16.2886 9.86947 16 9.83301C15.7114 9.86947 14.9735 10.2939 14.3203 11.1533C13.6828 11.992 11.9785 14.3799 10.861 16.0205C10.7393 16.1991 10.1514 16.8286 9.51135 16.4424C8.70863 15.958 5.60137 13.7471 4.1166 12.6689L3.125 13.1533Z" fill="url(#paint12_radial_18_17387)"/>
<path d="M3.125 13.1533L6.23123 28.312C6.38376 29.0564 7.03881 29.5908 7.79866 29.5908H24.2013C24.9612 29.5908 25.6162 29.0564 25.7688 28.312L28.875 13.1533L27.8834 12.6689C26.3986 13.7471 23.2914 15.958 22.4887 16.4424C21.8486 16.8286 21.2607 16.1991 21.139 16.0205C20.0215 14.3799 18.3172 11.992 17.6797 11.1533C17.0265 10.2939 16.2886 9.86947 16 9.83301C15.7114 9.86947 14.9735 10.2939 14.3203 11.1533C13.6828 11.992 11.9785 14.3799 10.861 16.0205C10.7393 16.1991 10.1514 16.8286 9.51135 16.4424C8.70863 15.958 5.60137 13.7471 4.1166 12.6689L3.125 13.1533Z" fill="url(#paint13_radial_18_17387)"/>
<path d="M3.125 13.1533L6.23123 28.312C6.38376 29.0564 7.03881 29.5908 7.79866 29.5908H24.2013C24.9612 29.5908 25.6162 29.0564 25.7688 28.312L28.875 13.1533L27.8834 12.6689C26.3986 13.7471 23.2914 15.958 22.4887 16.4424C21.8486 16.8286 21.2607 16.1991 21.139 16.0205C20.0215 14.3799 18.3172 11.992 17.6797 11.1533C17.0265 10.2939 16.2886 9.86947 16 9.83301C15.7114 9.86947 14.9735 10.2939 14.3203 11.1533C13.6828 11.992 11.9785 14.3799 10.861 16.0205C10.7393 16.1991 10.1514 16.8286 9.51135 16.4424C8.70863 15.958 5.60137 13.7471 4.1166 12.6689L3.125 13.1533Z" fill="url(#paint14_radial_18_17387)" fill-opacity="0.9"/>
<path d="M3.125 13.1533L6.23123 28.312C6.38376 29.0564 7.03881 29.5908 7.79866 29.5908H24.2013C24.9612 29.5908 25.6162 29.0564 25.7688 28.312L28.875 13.1533L27.8834 12.6689C26.3986 13.7471 23.2914 15.958 22.4887 16.4424C21.8486 16.8286 21.2607 16.1991 21.139 16.0205C20.0215 14.3799 18.3172 11.992 17.6797 11.1533C17.0265 10.2939 16.2886 9.86947 16 9.83301C15.7114 9.86947 14.9735 10.2939 14.3203 11.1533C13.6828 11.992 11.9785 14.3799 10.861 16.0205C10.7393 16.1991 10.1514 16.8286 9.51135 16.4424C8.70863 15.958 5.60137 13.7471 4.1166 12.6689L3.125 13.1533Z" fill="url(#paint15_radial_18_17387)" fill-opacity="0.6"/>
<path d="M3.125 13.1533L6.23123 28.312C6.38376 29.0564 7.03881 29.5908 7.79866 29.5908H24.2013C24.9612 29.5908 25.6162 29.0564 25.7688 28.312L28.875 13.1533L27.8834 12.6689C26.3986 13.7471 23.2914 15.958 22.4887 16.4424C21.8486 16.8286 21.2607 16.1991 21.139 16.0205C20.0215 14.3799 18.3172 11.992 17.6797 11.1533C17.0265 10.2939 16.2886 9.86947 16 9.83301C15.7114 9.86947 14.9735 10.2939 14.3203 11.1533C13.6828 11.992 11.9785 14.3799 10.861 16.0205C10.7393 16.1991 10.1514 16.8286 9.51135 16.4424C8.70863 15.958 5.60137 13.7471 4.1166 12.6689L3.125 13.1533Z" fill="url(#paint16_radial_18_17387)" fill-opacity="0.6"/>
<path d="M3.125 13.1533L6.23123 28.312C6.38376 29.0564 7.03881 29.5908 7.79866 29.5908H24.2013C24.9612 29.5908 25.6162 29.0564 25.7688 28.312L28.875 13.1533L27.8834 12.6689C26.3986 13.7471 23.2914 15.958 22.4887 16.4424C21.8486 16.8286 21.2607 16.1991 21.139 16.0205C20.0215 14.3799 18.3172 11.992 17.6797 11.1533C17.0265 10.2939 16.2886 9.86947 16 9.83301C15.7114 9.86947 14.9735 10.2939 14.3203 11.1533C13.6828 11.992 11.9785 14.3799 10.861 16.0205C10.7393 16.1991 10.1514 16.8286 9.51135 16.4424C8.70863 15.958 5.60137 13.7471 4.1166 12.6689L3.125 13.1533Z" fill="url(#paint17_linear_18_17387)" fill-opacity="0.7"/>
<path d="M3.125 13.1533L6.23123 28.312C6.38376 29.0564 7.03881 29.5908 7.79866 29.5908H24.2013C24.9612 29.5908 25.6162 29.0564 25.7688 28.312L28.875 13.1533L27.8834 12.6689C26.3986 13.7471 23.2914 15.958 22.4887 16.4424C21.8486 16.8286 21.2607 16.1991 21.139 16.0205C20.0215 14.3799 18.3172 11.992 17.6797 11.1533C17.0265 10.2939 16.2886 9.86947 16 9.83301C15.7114 9.86947 14.9735 10.2939 14.3203 11.1533C13.6828 11.992 11.9785 14.3799 10.861 16.0205C10.7393 16.1991 10.1514 16.8286 9.51135 16.4424C8.70863 15.958 5.60137 13.7471 4.1166 12.6689L3.125 13.1533Z" fill="url(#paint18_radial_18_17387)" fill-opacity="0.8"/>
<path d="M3.125 13.1533L6.23123 28.312C6.38376 29.0564 7.03881 29.5908 7.79866 29.5908H24.2013C24.9612 29.5908 25.6162 29.0564 25.7688 28.312L28.875 13.1533L27.8834 12.6689C26.3986 13.7471 23.2914 15.958 22.4887 16.4424C21.8486 16.8286 21.2607 16.1991 21.139 16.0205C20.0215 14.3799 18.3172 11.992 17.6797 11.1533C17.0265 10.2939 16.2886 9.86947 16 9.83301C15.7114 9.86947 14.9735 10.2939 14.3203 11.1533C13.6828 11.992 11.9785 14.3799 10.861 16.0205C10.7393 16.1991 10.1514 16.8286 9.51135 16.4424C8.70863 15.958 5.60137 13.7471 4.1166 12.6689L3.125 13.1533Z" fill="url(#paint19_radial_18_17387)" fill-opacity="0.9"/>
<path d="M3.125 13.1533L6.23123 28.312C6.38376 29.0564 7.03881 29.5908 7.79866 29.5908H24.2013C24.9612 29.5908 25.6162 29.0564 25.7688 28.312L28.875 13.1533L27.8834 12.6689C26.3986 13.7471 23.2914 15.958 22.4887 16.4424C21.8486 16.8286 21.2607 16.1991 21.139 16.0205C20.0215 14.3799 18.3172 11.992 17.6797 11.1533C17.0265 10.2939 16.2886 9.86947 16 9.83301C15.7114 9.86947 14.9735 10.2939 14.3203 11.1533C13.6828 11.992 11.9785 14.3799 10.861 16.0205C10.7393 16.1991 10.1514 16.8286 9.51135 16.4424C8.70863 15.958 5.60137 13.7471 4.1166 12.6689L3.125 13.1533Z" fill="url(#paint20_radial_18_17387)" fill-opacity="0.9"/>
<path d="M3.125 13.1533L6.23123 28.312C6.38376 29.0564 7.03881 29.5908 7.79866 29.5908H24.2013C24.9612 29.5908 25.6162 29.0564 25.7688 28.312L28.875 13.1533L27.8834 12.6689C26.3986 13.7471 23.2914 15.958 22.4887 16.4424C21.8486 16.8286 21.2607 16.1991 21.139 16.0205C20.0215 14.3799 18.3172 11.992 17.6797 11.1533C17.0265 10.2939 16.2886 9.86947 16 9.83301C15.7114 9.86947 14.9735 10.2939 14.3203 11.1533C13.6828 11.992 11.9785 14.3799 10.861 16.0205C10.7393 16.1991 10.1514 16.8286 9.51135 16.4424C8.70863 15.958 5.60137 13.7471 4.1166 12.6689L3.125 13.1533Z" fill="url(#paint21_linear_18_17387)" fill-opacity="0.8"/>
<path d="M3.125 13.1533L6.23123 28.312C6.38376 29.0564 7.03881 29.5908 7.79866 29.5908H24.2013C24.9612 29.5908 25.6162 29.0564 25.7688 28.312L28.875 13.1533L27.8834 12.6689C26.3986 13.7471 23.2914 15.958 22.4887 16.4424C21.8486 16.8286 21.2607 16.1991 21.139 16.0205C20.0215 14.3799 18.3172 11.992 17.6797 11.1533C17.0265 10.2939 16.2886 9.86947 16 9.83301C15.7114 9.86947 14.9735 10.2939 14.3203 11.1533C13.6828 11.992 11.9785 14.3799 10.861 16.0205C10.7393 16.1991 10.1514 16.8286 9.51135 16.4424C8.70863 15.958 5.60137 13.7471 4.1166 12.6689L3.125 13.1533Z" fill="url(#paint22_radial_18_17387)"/>
<path d="M3.125 13.1533L6.23123 28.312C6.38376 29.0564 7.03881 29.5908 7.79866 29.5908H24.2013C24.9612 29.5908 25.6162 29.0564 25.7688 28.312L28.875 13.1533L27.8834 12.6689C26.3986 13.7471 23.2914 15.958 22.4887 16.4424C21.8486 16.8286 21.2607 16.1991 21.139 16.0205C20.0215 14.3799 18.3172 11.992 17.6797 11.1533C17.0265 10.2939 16.2886 9.86947 16 9.83301C15.7114 9.86947 14.9735 10.2939 14.3203 11.1533C13.6828 11.992 11.9785 14.3799 10.861 16.0205C10.7393 16.1991 10.1514 16.8286 9.51135 16.4424C8.70863 15.958 5.60137 13.7471 4.1166 12.6689L3.125 13.1533Z" fill="url(#paint23_linear_18_17387)"/>
<path d="M3.125 13.1533L6.23123 28.312C6.38376 29.0564 7.03881 29.5908 7.79866 29.5908H24.2013C24.9612 29.5908 25.6162 29.0564 25.7688 28.312L28.875 13.1533L27.8834 12.6689C26.3986 13.7471 23.2914 15.958 22.4887 16.4424C21.8486 16.8286 21.2607 16.1991 21.139 16.0205C20.0215 14.3799 18.3172 11.992 17.6797 11.1533C17.0265 10.2939 16.2886 9.86947 16 9.83301C15.7114 9.86947 14.9735 10.2939 14.3203 11.1533C13.6828 11.992 11.9785 14.3799 10.861 16.0205C10.7393 16.1991 10.1514 16.8286 9.51135 16.4424C8.70863 15.958 5.60137 13.7471 4.1166 12.6689L3.125 13.1533Z" fill="url(#paint24_linear_18_17387)"/>
<path d="M3.125 13.1533L6.23123 28.312C6.38376 29.0564 7.03881 29.5908 7.79866 29.5908H24.2013C24.9612 29.5908 25.6162 29.0564 25.7688 28.312L28.875 13.1533L27.8834 12.6689C26.3986 13.7471 23.2914 15.958 22.4887 16.4424C21.8486 16.8286 21.2607 16.1991 21.139 16.0205C20.0215 14.3799 18.3172 11.992 17.6797 11.1533C17.0265 10.2939 16.2886 9.86947 16 9.83301C15.7114 9.86947 14.9735 10.2939 14.3203 11.1533C13.6828 11.992 11.9785 14.3799 10.861 16.0205C10.7393 16.1991 10.1514 16.8286 9.51135 16.4424C8.70863 15.958 5.60137 13.7471 4.1166 12.6689L3.125 13.1533Z" fill="url(#paint25_linear_18_17387)"/>
<path d="M3.125 13.1533L6.23123 28.312C6.38376 29.0564 7.03881 29.5908 7.79866 29.5908H24.2013C24.9612 29.5908 25.6162 29.0564 25.7688 28.312L28.875 13.1533L27.8834 12.6689C26.3986 13.7471 23.2914 15.958 22.4887 16.4424C21.8486 16.8286 21.2607 16.1991 21.139 16.0205C20.0215 14.3799 18.3172 11.992 17.6797 11.1533C17.0265 10.2939 16.2886 9.86947 16 9.83301C15.7114 9.86947 14.9735 10.2939 14.3203 11.1533C13.6828 11.992 11.9785 14.3799 10.861 16.0205C10.7393 16.1991 10.1514 16.8286 9.51135 16.4424C8.70863 15.958 5.60137 13.7471 4.1166 12.6689L3.125 13.1533Z" fill="url(#paint26_radial_18_17387)" fill-opacity="0.9"/>
<path d="M3.125 13.1533L6.23123 28.312C6.38376 29.0564 7.03881 29.5908 7.79866 29.5908H24.2013C24.9612 29.5908 25.6162 29.0564 25.7688 28.312L28.875 13.1533L27.8834 12.6689C26.3986 13.7471 23.2914 15.958 22.4887 16.4424C21.8486 16.8286 21.2607 16.1991 21.139 16.0205C20.0215 14.3799 18.3172 11.992 17.6797 11.1533C17.0265 10.2939 16.2886 9.86947 16 9.83301C15.7114 9.86947 14.9735 10.2939 14.3203 11.1533C13.6828 11.992 11.9785 14.3799 10.861 16.0205C10.7393 16.1991 10.1514 16.8286 9.51135 16.4424C8.70863 15.958 5.60137 13.7471 4.1166 12.6689L3.125 13.1533Z" fill="url(#paint27_radial_18_17387)" fill-opacity="0.9"/>
<path d="M3.125 13.1533L6.23123 28.312C6.38376 29.0564 7.03881 29.5908 7.79866 29.5908H24.2013C24.9612 29.5908 25.6162 29.0564 25.7688 28.312L28.875 13.1533L27.8834 12.6689C26.3986 13.7471 23.2914 15.958 22.4887 16.4424C21.8486 16.8286 21.2607 16.1991 21.139 16.0205C20.0215 14.3799 18.3172 11.992 17.6797 11.1533C17.0265 10.2939 16.2886 9.86947 16 9.83301C15.7114 9.86947 14.9735 10.2939 14.3203 11.1533C13.6828 11.992 11.9785 14.3799 10.861 16.0205C10.7393 16.1991 10.1514 16.8286 9.51135 16.4424C8.70863 15.958 5.60137 13.7471 4.1166 12.6689L3.125 13.1533Z" fill="url(#paint28_radial_18_17387)" fill-opacity="0.9"/>
<path d="M3.125 13.1533L6.23123 28.312C6.38376 29.0564 7.03881 29.5908 7.79866 29.5908H24.2013C24.9612 29.5908 25.6162 29.0564 25.7688 28.312L28.875 13.1533L27.8834 12.6689C26.3986 13.7471 23.2914 15.958 22.4887 16.4424C21.8486 16.8286 21.2607 16.1991 21.139 16.0205C20.0215 14.3799 18.3172 11.992 17.6797 11.1533C17.0265 10.2939 16.2886 9.86947 16 9.83301C15.7114 9.86947 14.9735 10.2939 14.3203 11.1533C13.6828 11.992 11.9785 14.3799 10.861 16.0205C10.7393 16.1991 10.1514 16.8286 9.51135 16.4424C8.70863 15.958 5.60137 13.7471 4.1166 12.6689L3.125 13.1533Z" fill="url(#paint29_radial_18_17387)" fill-opacity="0.8"/>
<path d="M3.125 13.1533L6.23123 28.312C6.38376 29.0564 7.03881 29.5908 7.79866 29.5908H24.2013C24.9612 29.5908 25.6162 29.0564 25.7688 28.312L28.875 13.1533L27.8834 12.6689C26.3986 13.7471 23.2914 15.958 22.4887 16.4424C21.8486 16.8286 21.2607 16.1991 21.139 16.0205C20.0215 14.3799 18.3172 11.992 17.6797 11.1533C17.0265 10.2939 16.2886 9.86947 16 9.83301C15.7114 9.86947 14.9735 10.2939 14.3203 11.1533C13.6828 11.992 11.9785 14.3799 10.861 16.0205C10.7393 16.1991 10.1514 16.8286 9.51135 16.4424C8.70863 15.958 5.60137 13.7471 4.1166 12.6689L3.125 13.1533Z" fill="url(#paint30_radial_18_17387)" fill-opacity="0.8"/>
<path d="M23.7793 23.7424C23.5142 24.5568 22.662 24.9651 21.8476 24.7C21.2344 24.45 20.9692 23.7488 21.2344 22.9344C21.4995 22.12 22.3344 21.6526 22.8398 21.8172C23.6542 22.0823 24.0445 22.928 23.7793 23.7424Z" fill="url(#paint31_radial_18_17387)"/>
<path d="M23.7793 23.7424C23.5142 24.5568 22.662 24.9651 21.8476 24.7C21.2344 24.45 20.9692 23.7488 21.2344 22.9344C21.4995 22.12 22.3344 21.6526 22.8398 21.8172C23.6542 22.0823 24.0445 22.928 23.7793 23.7424Z" fill="url(#paint32_radial_18_17387)"/>
<path d="M23.7793 23.7424C23.5142 24.5568 22.662 24.9651 21.8476 24.7C21.2344 24.45 20.9692 23.7488 21.2344 22.9344C21.4995 22.12 22.3344 21.6526 22.8398 21.8172C23.6542 22.0823 24.0445 22.928 23.7793 23.7424Z" fill="url(#paint33_radial_18_17387)"/>
<path d="M8.29708 23.7424C8.5622 24.5568 9.41437 24.9651 10.2288 24.7C10.8421 24.45 11.1072 23.7488 10.8421 22.9344C10.5769 22.12 9.74202 21.6526 9.23659 21.8172C8.42219 22.0823 8.03196 22.928 8.29708 23.7424Z" fill="url(#paint34_radial_18_17387)"/>
<path d="M8.29708 23.7424C8.5622 24.5568 9.41437 24.9651 10.2288 24.7C10.8421 24.45 11.1072 23.7488 10.8421 22.9344C10.5769 22.12 9.74202 21.6526 9.23659 21.8172C8.42219 22.0823 8.03196 22.928 8.29708 23.7424Z" fill="url(#paint35_radial_18_17387)"/>
<path d="M8.29708 23.7424C8.5622 24.5568 9.41437 24.9651 10.2288 24.7C10.8421 24.45 11.1072 23.7488 10.8421 22.9344C10.5769 22.12 9.74202 21.6526 9.23659 21.8172C8.42219 22.0823 8.03196 22.928 8.29708 23.7424Z" fill="url(#paint36_radial_18_17387)"/>
<path d="M4.92188 12.9248C4.92188 13.6928 4.29927 14.3154 3.53125 14.3154C2.76323 14.3154 2.14062 13.6928 2.14062 12.9248C2.14062 12.1568 2.76323 11.5342 3.53125 11.5342C4.29927 11.5342 4.92188 12.1568 4.92188 12.9248Z" fill="url(#paint37_radial_18_17387)"/>
<path d="M4.92188 12.9248C4.92188 13.6928 4.29927 14.3154 3.53125 14.3154C2.76323 14.3154 2.14062 13.6928 2.14062 12.9248C2.14062 12.1568 2.76323 11.5342 3.53125 11.5342C4.29927 11.5342 4.92188 12.1568 4.92188 12.9248Z" fill="url(#paint38_radial_18_17387)"/>
<path d="M4.92188 12.9248C4.92188 13.6928 4.29927 14.3154 3.53125 14.3154C2.76323 14.3154 2.14062 13.6928 2.14062 12.9248C2.14062 12.1568 2.76323 11.5342 3.53125 11.5342C4.29927 11.5342 4.92188 12.1568 4.92188 12.9248Z" fill="url(#paint39_radial_18_17387)"/>
<path d="M4.92188 12.9248C4.92188 13.6928 4.29927 14.3154 3.53125 14.3154C2.76323 14.3154 2.14062 13.6928 2.14062 12.9248C2.14062 12.1568 2.76323 11.5342 3.53125 11.5342C4.29927 11.5342 4.92188 12.1568 4.92188 12.9248Z" fill="url(#paint40_radial_18_17387)"/>
<path d="M10.2807 13.1798C10.6924 12.9384 10.9688 12.4912 10.9688 11.9795C10.9688 11.2115 10.3461 10.5889 9.57812 10.5889C8.8101 10.5889 8.1875 11.2115 8.1875 11.9795C8.1875 12.5116 8.48637 12.9739 8.9254 13.2077C9.01248 13.1731 9.17138 13.1389 9.34375 13.1885C9.55805 13.2502 9.91001 13.3281 10.2807 13.1798Z" fill="url(#paint41_radial_18_17387)"/>
<path d="M10.2807 13.1798C10.6924 12.9384 10.9688 12.4912 10.9688 11.9795C10.9688 11.2115 10.3461 10.5889 9.57812 10.5889C8.8101 10.5889 8.1875 11.2115 8.1875 11.9795C8.1875 12.5116 8.48637 12.9739 8.9254 13.2077C9.01248 13.1731 9.17138 13.1389 9.34375 13.1885C9.55805 13.2502 9.91001 13.3281 10.2807 13.1798Z" fill="url(#paint42_radial_18_17387)"/>
<path d="M10.2807 13.1798C10.6924 12.9384 10.9688 12.4912 10.9688 11.9795C10.9688 11.2115 10.3461 10.5889 9.57812 10.5889C8.8101 10.5889 8.1875 11.2115 8.1875 11.9795C8.1875 12.5116 8.48637 12.9739 8.9254 13.2077C9.01248 13.1731 9.17138 13.1389 9.34375 13.1885C9.55805 13.2502 9.91001 13.3281 10.2807 13.1798Z" fill="url(#paint43_radial_18_17387)"/>
<path d="M10.2807 13.1798C10.6924 12.9384 10.9688 12.4912 10.9688 11.9795C10.9688 11.2115 10.3461 10.5889 9.57812 10.5889C8.8101 10.5889 8.1875 11.2115 8.1875 11.9795C8.1875 12.5116 8.48637 12.9739 8.9254 13.2077C9.01248 13.1731 9.17138 13.1389 9.34375 13.1885C9.55805 13.2502 9.91001 13.3281 10.2807 13.1798Z" fill="url(#paint44_radial_18_17387)"/>
<path d="M21.7193 13.1798C21.3076 12.9384 21.0312 12.4912 21.0312 11.9795C21.0312 11.2115 21.6539 10.5889 22.4219 10.5889C23.1899 10.5889 23.8125 11.2115 23.8125 11.9795C23.8125 12.5116 23.5136 12.9739 23.0746 13.2077C22.9875 13.1731 22.8286 13.1389 22.6563 13.1885C22.4419 13.2502 22.09 13.3281 21.7193 13.1798Z" fill="url(#paint45_radial_18_17387)"/>
<path d="M21.7193 13.1798C21.3076 12.9384 21.0312 12.4912 21.0312 11.9795C21.0312 11.2115 21.6539 10.5889 22.4219 10.5889C23.1899 10.5889 23.8125 11.2115 23.8125 11.9795C23.8125 12.5116 23.5136 12.9739 23.0746 13.2077C22.9875 13.1731 22.8286 13.1389 22.6563 13.1885C22.4419 13.2502 22.09 13.3281 21.7193 13.1798Z" fill="url(#paint46_radial_18_17387)"/>
<circle cx="16.0382" cy="23.3258" r="2.46791" fill="url(#paint47_radial_18_17387)"/>
<circle cx="16.0382" cy="23.3258" r="2.46791" fill="url(#paint48_radial_18_17387)"/>
<circle cx="15.9961" cy="8.64551" r="1.80078" fill="url(#paint49_radial_18_17387)"/>
<circle cx="15.9961" cy="8.64551" r="1.80078" fill="url(#paint50_radial_18_17387)"/>
<circle cx="15.9961" cy="8.64551" r="1.80078" fill="url(#paint51_radial_18_17387)"/>
<circle cx="15.9961" cy="8.64551" r="1.80078" fill="url(#paint52_radial_18_17387)"/>
<path d="M29.9219 12.9248C29.9219 13.6928 29.2993 14.3154 28.5312 14.3154C27.7632 14.3154 27.1406 13.6928 27.1406 12.9248C27.1406 12.1568 27.7632 11.5342 28.5312 11.5342C29.2993 11.5342 29.9219 12.1568 29.9219 12.9248Z" fill="url(#paint53_radial_18_17387)"/>
<path d="M29.9219 12.9248C29.9219 13.6928 29.2993 14.3154 28.5312 14.3154C27.7632 14.3154 27.1406 13.6928 27.1406 12.9248C27.1406 12.1568 27.7632 11.5342 28.5312 11.5342C29.2993 11.5342 29.9219 12.1568 29.9219 12.9248Z" fill="url(#paint54_radial_18_17387)"/>
<path d="M29.9219 12.9248C29.9219 13.6928 29.2993 14.3154 28.5312 14.3154C27.7632 14.3154 27.1406 13.6928 27.1406 12.9248C27.1406 12.1568 27.7632 11.5342 28.5312 11.5342C29.2993 11.5342 29.9219 12.1568 29.9219 12.9248Z" fill="url(#paint55_radial_18_17387)"/>
<path d="M29.9219 12.9248C29.9219 13.6928 29.2993 14.3154 28.5312 14.3154C27.7632 14.3154 27.1406 13.6928 27.1406 12.9248C27.1406 12.1568 27.7632 11.5342 28.5312 11.5342C29.2993 11.5342 29.9219 12.1568 29.9219 12.9248Z" fill="url(#paint56_radial_18_17387)"/>
<defs>
<radialGradient id="paint0_radial_18_17387" cx="0" cy="0" r="1" gradientUnits="userSpaceOnUse" gradientTransform="translate(5.37891 24.2471) rotate(-103.54) scale(1.75182 2.1567)">
<stop stop-color="#395DE0"/>
<stop offset="1" stop-color="#2C68A3"/>
</radialGradient>
<radialGradient id="paint1_radial_18_17387" cx="0" cy="0" r="1" gradientUnits="userSpaceOnUse" gradientTransform="translate(27.5937 21.9814) rotate(108.743) scale(2.99062)">
<stop offset="0.248616" stop-color="#3DB3F3"/>
<stop offset="1" stop-color="#5B73F4"/>
</radialGradient>
<radialGradient id="paint2_radial_18_17387" cx="0" cy="0" r="1" gradientUnits="userSpaceOnUse" gradientTransform="translate(28.0937 22.6533) rotate(161.162) scale(1.4033 0.889718)">
<stop offset="0.257996" stop-color="#5FBEFF"/>
<stop offset="1" stop-color="#5FBEFF" stop-opacity="0"/>
</radialGradient>
<radialGradient id="paint3_radial_18_17387" cx="0" cy="0" r="1" gradientUnits="userSpaceOnUse" gradientTransform="translate(8.65625 14.5596) rotate(15.9454) scale(3.18505 7.94974)">
<stop stop-color="#FBC96E"/>
<stop offset="1" stop-color="#FAC567"/>
</radialGradient>
<radialGradient id="paint4_radial_18_17387" cx="0" cy="0" r="1" gradientUnits="userSpaceOnUse" gradientTransform="translate(10.5312 15.2471) rotate(-156.753) scale(2.41481 7.26267)">
<stop offset="0.765376" stop-color="#D89F3A" stop-opacity="0"/>
<stop offset="0.91124" stop-color="#DAA139"/>
</radialGradient>
<radialGradient id="paint5_radial_18_17387" cx="0" cy="0" r="1" gradientUnits="userSpaceOnUse" gradientTransform="translate(23.875 16.4971) rotate(-125.455) scale(2.53202 2.59683)">
<stop offset="0.254227" stop-color="#BF812A"/>
<stop offset="1" stop-color="#CE9333"/>
</radialGradient>
<radialGradient id="paint6_radial_18_17387" cx="0" cy="0" r="1" gradientUnits="userSpaceOnUse" gradientTransform="translate(21.9219 15.2627) rotate(-23.0913) scale(2.19118 5.70837)">
<stop offset="0.734364" stop-color="#E9BB61" stop-opacity="0"/>
<stop offset="0.929116" stop-color="#E9BB61"/>
</radialGradient>
<radialGradient id="paint7_radial_18_17387" cx="0" cy="0" r="1" gradientUnits="userSpaceOnUse" gradientTransform="translate(23.2188 15.8877) rotate(-142.922) scale(3.4469 5.81507)">
<stop offset="0.772711" stop-color="#C18739" stop-opacity="0"/>
<stop offset="0.948485" stop-color="#C18739"/>
</radialGradient>
<linearGradient id="paint8_linear_18_17387" x1="23.2057" y1="21.58" x2="5.5403" y2="25.7002" gradientUnits="userSpaceOnUse">
<stop stop-color="#FFBC5D"/>
<stop offset="0.303505" stop-color="#FCAD6A"/>
<stop offset="1" stop-color="#CB7547"/>
</linearGradient>
<radialGradient id="paint9_radial_18_17387" cx="0" cy="0" r="1" gradientUnits="userSpaceOnUse" gradientTransform="translate(12.1326 32.8591) rotate(-69.4212) scale(11.0026 21.4146)">
<stop stop-color="#F67B4E"/>
<stop offset="1" stop-color="#F67B4E" stop-opacity="0"/>
</radialGradient>
<linearGradient id="paint10_linear_18_17387" x1="5.28125" y1="25.2783" x2="8" y2="24.7158" gradientUnits="userSpaceOnUse">
<stop stop-color="#C2794C"/>
<stop offset="1" stop-color="#E07648" stop-opacity="0"/>
</linearGradient>
<linearGradient id="paint11_linear_18_17387" x1="26.625" y1="27.0283" x2="22" y2="25.9658" gradientUnits="userSpaceOnUse">
<stop offset="0.116056" stop-color="#F1AF51"/>
<stop offset="1" stop-color="#FFBB5B" stop-opacity="0"/>
</linearGradient>
<radialGradient id="paint12_radial_18_17387" cx="0" cy="0" r="1" gradientUnits="userSpaceOnUse" gradientTransform="translate(28.0625 13.4033) rotate(113.385) scale(2.51945 2.08843)">
<stop offset="0.377231" stop-color="#DD9049"/>
<stop offset="1" stop-color="#F8BF60" stop-opacity="0"/>
</radialGradient>
<radialGradient id="paint13_radial_18_17387" cx="0" cy="0" r="1" gradientUnits="userSpaceOnUse" gradientTransform="translate(4.04688 13.5439) rotate(64.2171) scale(2.04759 1.11998)">
<stop offset="0.195602" stop-color="#D7783D"/>
<stop offset="1" stop-color="#D7783D" stop-opacity="0"/>
</radialGradient>
<radialGradient id="paint14_radial_18_17387" cx="0" cy="0" r="1" gradientUnits="userSpaceOnUse" gradientTransform="translate(15.4213 23.7523) rotate(35.0738) scale(3.69606 3.31079)">
<stop offset="0.578091" stop-color="#EF7660"/>
<stop offset="0.853374" stop-color="#EF7660" stop-opacity="0"/>
</radialGradient>
<radialGradient id="paint15_radial_18_17387" cx="0" cy="0" r="1" gradientUnits="userSpaceOnUse" gradientTransform="translate(22.2457 23.6897) rotate(112.087) scale(2.12974 1.90773)">
<stop offset="0.437694" stop-color="#EF7660" stop-opacity="0.63"/>
<stop offset="0.918503" stop-color="#EF7660" stop-opacity="0"/>
</radialGradient>
<radialGradient id="paint16_radial_18_17387" cx="0" cy="0" r="1" gradientUnits="userSpaceOnUse" gradientTransform="translate(9.24077 23.1358) rotate(77.3807) scale(1.97623 1.77023)">
<stop offset="0.437694" stop-color="#EF7660" stop-opacity="0.63"/>
<stop offset="0.918503" stop-color="#EF7660" stop-opacity="0"/>
</radialGradient>
<linearGradient id="paint17_linear_18_17387" x1="4.30667" y1="25.7671" x2="6.47379" y2="25.3157" gradientUnits="userSpaceOnUse">
<stop offset="0.128534" stop-color="#FFBB5B" stop-opacity="0.81"/>
<stop offset="0.909576" stop-color="#FFBB5B" stop-opacity="0"/>
</linearGradient>
<radialGradient id="paint18_radial_18_17387" cx="0" cy="0" r="1" gradientUnits="userSpaceOnUse" gradientTransform="translate(5.99585 12.033) rotate(134.27) scale(2.59974 9.10663)">
<stop offset="0.605974" stop-color="#FFBB5B" stop-opacity="0.81"/>
<stop offset="0.77855" stop-color="#FFBB5B" stop-opacity="0"/>
</radialGradient>
<radialGradient id="paint19_radial_18_17387" cx="0" cy="0" r="1" gradientUnits="userSpaceOnUse" gradientTransform="translate(12.0409 12.8812) rotate(28.0725) scale(1.6207 5.55022)">
<stop offset="0.480277" stop-color="#D6974B"/>
<stop offset="0.631665" stop-color="#D6974B"/>
<stop offset="0.868706" stop-color="#D6974B" stop-opacity="0"/>
</radialGradient>
<radialGradient id="paint20_radial_18_17387" cx="0" cy="0" r="1" gradientUnits="userSpaceOnUse" gradientTransform="translate(13.177 11.3136) rotate(38.6099) scale(1.70802 5.53536)">
<stop offset="0.600879" stop-color="#D6974B" stop-opacity="0.81"/>
<stop offset="0.838463" stop-color="#D6974B" stop-opacity="0"/>
</radialGradient>
<linearGradient id="paint21_linear_18_17387" x1="22.3443" y1="17.154" x2="20.7271" y2="18.3456" gradientUnits="userSpaceOnUse">
<stop offset="0.013715" stop-color="#E7B050" stop-opacity="0"/>
<stop offset="0.132242" stop-color="#E7B050"/>
<stop offset="0.271719" stop-color="#F9DB41" stop-opacity="0.46"/>
<stop offset="0.358426" stop-color="#FFF5BE" stop-opacity="0.39"/>
<stop offset="0.519292" stop-color="#FFBB5B" stop-opacity="0"/>
</linearGradient>
<radialGradient id="paint22_radial_18_17387" cx="0" cy="0" r="1" gradientUnits="userSpaceOnUse" gradientTransform="translate(16 9.83301) rotate(72.2118) scale(1.27709 2.79665)">
<stop offset="0.382465" stop-color="#D48C33"/>
<stop offset="1" stop-color="#FEB16A" stop-opacity="0"/>
</radialGradient>
<linearGradient id="paint23_linear_18_17387" x1="23.1892" y1="24.5675" x2="6.04388" y2="22.6867" gradientUnits="userSpaceOnUse">
<stop stop-color="#FFBC5D"/>
<stop offset="0.0785587" stop-color="#FFBC5E"/>
<stop offset="0.151317" stop-color="#FEB763"/>
<stop offset="0.279293" stop-color="#FCAD6A" stop-opacity="0"/>
<stop offset="1" stop-color="#CB7547" stop-opacity="0"/>
</linearGradient>
<linearGradient id="paint24_linear_18_17387" x1="28.0563" y1="25.3568" x2="25.5169" y2="24.7135" gradientUnits="userSpaceOnUse">
<stop offset="0.582693" stop-color="#EFB25B"/>
<stop offset="1" stop-color="#FFBE5F" stop-opacity="0"/>
</linearGradient>
<linearGradient id="paint25_linear_18_17387" x1="17.4375" y1="29.8721" x2="17.4375" y2="28.6846" gradientUnits="userSpaceOnUse">
<stop offset="0.184212" stop-color="#FF6F8C"/>
<stop offset="1" stop-color="#FF7A6A" stop-opacity="0"/>
</linearGradient>
<radialGradient id="paint26_radial_18_17387" cx="0" cy="0" r="1" gradientUnits="userSpaceOnUse" gradientTransform="translate(25.7661 12.8354) rotate(53.7147) scale(2.02313 6.6671)">
<stop offset="0.395019" stop-color="#E8A655"/>
<stop offset="0.961653" stop-color="#FAEA59" stop-opacity="0"/>
</radialGradient>
<radialGradient id="paint27_radial_18_17387" cx="0" cy="0" r="1" gradientUnits="userSpaceOnUse" gradientTransform="translate(22.5706 15.6972) rotate(68.5523) scale(1.38482 2.00241)">
<stop offset="0.501105" stop-color="#E8A655"/>
<stop offset="0.961653" stop-color="#FAEA59" stop-opacity="0"/>
</radialGradient>
<radialGradient id="paint28_radial_18_17387" cx="0" cy="0" r="1" gradientUnits="userSpaceOnUse" gradientTransform="translate(25.4862 12.8946) rotate(47.1071) scale(2.00336 6.60193)">
<stop offset="0.618024" stop-color="#D6974B" stop-opacity="0.81"/>
<stop offset="0.830772" stop-color="#D6974B" stop-opacity="0"/>
<stop offset="1" stop-color="#FFBC5D" stop-opacity="0"/>
</radialGradient>
<radialGradient id="paint29_radial_18_17387" cx="0" cy="0" r="1" gradientUnits="userSpaceOnUse" gradientTransform="translate(22.2028 15.4697) rotate(96.0959) scale(1.7453 1.84467)">
<stop offset="0.515657" stop-color="#D6974B" stop-opacity="0.81"/>
<stop offset="0.814866" stop-color="#D6974B" stop-opacity="0"/>
<stop offset="1" stop-color="#FFBC5D" stop-opacity="0"/>
</radialGradient>
<radialGradient id="paint30_radial_18_17387" cx="0" cy="0" r="1" gradientUnits="userSpaceOnUse" gradientTransform="translate(16.4148 10.5177) rotate(108.787) scale(0.198183 0.438107)">
<stop offset="0.260946" stop-color="#FEBE71" stop-opacity="0.54"/>
<stop offset="1" stop-color="#FDBF73" stop-opacity="0"/>
</radialGradient>
<radialGradient id="paint31_radial_18_17387" cx="0" cy="0" r="1" gradientUnits="userSpaceOnUse" gradientTransform="translate(22.0312 24.0594) rotate(-51.5819) scale(2.31334 1.4927)">
<stop stop-color="#FF196C"/>
<stop offset="1" stop-color="#FF1F4A"/>
</radialGradient>
<radialGradient id="paint32_radial_18_17387" cx="0" cy="0" r="1" gradientUnits="userSpaceOnUse" gradientTransform="translate(23.625 22.8406) rotate(149.744) scale(1.73656 1.09996)">
<stop offset="0.222789" stop-color="#FF5873"/>
<stop offset="1" stop-color="#FF5873" stop-opacity="0"/>
</radialGradient>
<radialGradient id="paint33_radial_18_17387" cx="0" cy="0" r="1" gradientUnits="userSpaceOnUse" gradientTransform="translate(22.2726 24.9592) rotate(-97.6961) scale(2.35576 1.49217)">
<stop offset="0.302724" stop-color="#FD2E4C"/>
<stop offset="1" stop-color="#FD2E4C" stop-opacity="0"/>
</radialGradient>
<radialGradient id="paint34_radial_18_17387" cx="0" cy="0" r="1" gradientUnits="userSpaceOnUse" gradientTransform="translate(9.81261 24.1219) rotate(-104.281) scale(1.77356 1.69812)">
<stop stop-color="#F6196C"/>
<stop offset="1" stop-color="#E42047"/>
</radialGradient>
<radialGradient id="paint35_radial_18_17387" cx="0" cy="0" r="1" gradientUnits="userSpaceOnUse" gradientTransform="translate(10.547 23.0437) rotate(155.726) scale(0.874163 0.765693)">
<stop stop-color="#FE536F"/>
<stop offset="1" stop-color="#FE536F" stop-opacity="0"/>
</radialGradient>
<radialGradient id="paint36_radial_18_17387" cx="0" cy="0" r="1" gradientUnits="userSpaceOnUse" gradientTransform="translate(9.8038 24.9592) rotate(-82.3039) scale(2.35576 1.49217)">
<stop offset="0.302724" stop-color="#FD2E4C"/>
<stop offset="1" stop-color="#FD2E4C" stop-opacity="0"/>
</radialGradient>
<radialGradient id="paint37_radial_18_17387" cx="0" cy="0" r="1" gradientUnits="userSpaceOnUse" gradientTransform="translate(4.65625 11.9747) rotate(135.198) scale(2.97287 3.09287)">
<stop offset="0.172433" stop-color="#E7C04E"/>
<stop offset="1" stop-color="#D9972A"/>
</radialGradient>
<radialGradient id="paint38_radial_18_17387" cx="0" cy="0" r="1" gradientUnits="userSpaceOnUse" gradientTransform="translate(3.21875 14.4971) rotate(-71.3305) scale(1.65959 1.79772)">
<stop offset="0.0645976" stop-color="#DF8089"/>
<stop offset="1" stop-color="#DF8089" stop-opacity="0"/>
</radialGradient>
<radialGradient id="paint39_radial_18_17387" cx="0" cy="0" r="1" gradientUnits="userSpaceOnUse" gradientTransform="translate(4.76562 12.0396) rotate(141.017) scale(1.40706 0.727129)">
<stop stop-color="#FFDE71"/>
<stop offset="1" stop-color="#FFDE71" stop-opacity="0"/>
</radialGradient>
<radialGradient id="paint40_radial_18_17387" cx="0" cy="0" r="1" gradientUnits="userSpaceOnUse" gradientTransform="translate(4.01562 13.014) rotate(180) scale(1.875 1.94872)">
<stop offset="0.487603" stop-color="#E1AD3D" stop-opacity="0"/>
<stop offset="1" stop-color="#B9894B"/>
</radialGradient>
<radialGradient id="paint41_radial_18_17387" cx="0" cy="0" r="1" gradientUnits="userSpaceOnUse" gradientTransform="translate(10.7031 11.0127) rotate(136.302) scale(2.91757 3.03227)">
<stop offset="0.172433" stop-color="#E7C04E"/>
<stop offset="1" stop-color="#D9972A"/>
</radialGradient>
<radialGradient id="paint42_radial_18_17387" cx="0" cy="0" r="1" gradientUnits="userSpaceOnUse" gradientTransform="translate(10.8125 11.0752) rotate(142.093) scale(1.38624 0.710131)">
<stop stop-color="#FFDE71"/>
<stop offset="1" stop-color="#FFDE71" stop-opacity="0"/>
</radialGradient>
<radialGradient id="paint43_radial_18_17387" cx="0" cy="0" r="1" gradientUnits="userSpaceOnUse" gradientTransform="translate(9.57813 13.4346) rotate(-76.7989) scale(1.29998 1.7338)">
<stop stop-color="#E4A122"/>
<stop offset="1" stop-color="#E4A122" stop-opacity="0"/>
</radialGradient>
<radialGradient id="paint44_radial_18_17387" cx="0" cy="0" r="1" gradientUnits="userSpaceOnUse" gradientTransform="translate(10.0625 12.0127) rotate(180) scale(1.875)">
<stop offset="0.487603" stop-color="#E1AD3D" stop-opacity="0"/>
<stop offset="1" stop-color="#B9894B"/>
</radialGradient>
<radialGradient id="paint45_radial_18_17387" cx="0" cy="0" r="1" gradientUnits="userSpaceOnUse" gradientTransform="translate(23.4688 11.4658) rotate(136.32) scale(2.39817 2.49246)">
<stop offset="0.172433" stop-color="#F0C950"/>
<stop offset="1" stop-color="#C8861F"/>
</radialGradient>
<radialGradient id="paint46_radial_18_17387" cx="0" cy="0" r="1" gradientUnits="userSpaceOnUse" gradientTransform="translate(23.6719 11.2002) rotate(147.14) scale(1.33929 0.68608)">
<stop offset="0.183948" stop-color="#FFDE71"/>
<stop offset="1" stop-color="#FFDE71" stop-opacity="0"/>
</radialGradient>
<radialGradient id="paint47_radial_18_17387" cx="0" cy="0" r="1" gradientUnits="userSpaceOnUse" gradientTransform="translate(17.1251 22.5594) rotate(138.155) scale(2.81059)">
<stop stop-color="#5FBFFF"/>
<stop offset="1" stop-color="#3E94FF"/>
</radialGradient>
<radialGradient id="paint48_radial_18_17387" cx="0" cy="0" r="1" gradientUnits="userSpaceOnUse" gradientTransform="translate(17.1708 22.3918) rotate(135.725) scale(4.17884 5.63114)">
<stop stop-color="#5FBFFF" stop-opacity="0"/>
<stop offset="0.568087" stop-color="#4E67FF" stop-opacity="0.85"/>
<stop offset="1" stop-color="#2E49EF"/>
</radialGradient>
<radialGradient id="paint49_radial_18_17387" cx="0" cy="0" r="1" gradientUnits="userSpaceOnUse" gradientTransform="translate(17.4375 7.65332) rotate(125.606) scale(3.43521 2.91657)">
<stop offset="0.376296" stop-color="#F3D154"/>
<stop offset="1" stop-color="#CC9848"/>
</radialGradient>
<radialGradient id="paint50_radial_18_17387" cx="0" cy="0" r="1" gradientUnits="userSpaceOnUse" gradientTransform="translate(15.6562 10.4463) rotate(-79.3128) scale(1.83257 2.17841)">
<stop stop-color="#E78F5E"/>
<stop offset="1" stop-color="#E78F5E" stop-opacity="0"/>
</radialGradient>
<radialGradient id="paint51_radial_18_17387" cx="0" cy="0" r="1" gradientUnits="userSpaceOnUse" gradientTransform="translate(16.75 9.24707) rotate(-146.725) scale(3.58831 4.29179)">
<stop offset="0.557117" stop-color="#E9C251" stop-opacity="0"/>
<stop offset="1" stop-color="#B49858"/>
</radialGradient>
<radialGradient id="paint52_radial_18_17387" cx="0" cy="0" r="1" gradientUnits="userSpaceOnUse" gradientTransform="translate(18.0625 7.84082) rotate(156.06) scale(1.9831 1.52608)">
<stop stop-color="#FFED77"/>
<stop offset="1" stop-color="#FFED77" stop-opacity="0"/>
</radialGradient>
<radialGradient id="paint53_radial_18_17387" cx="0" cy="0" r="1" gradientUnits="userSpaceOnUse" gradientTransform="translate(29.6563 11.9747) rotate(135.198) scale(2.97287 3.09287)">
<stop offset="0.172433" stop-color="#F8CB54"/>
<stop offset="1" stop-color="#EAA34B"/>
</radialGradient>
<radialGradient id="paint54_radial_18_17387" cx="0" cy="0" r="1" gradientUnits="userSpaceOnUse" gradientTransform="translate(28.2187 14.4971) rotate(-71.3305) scale(1.65959 2.24326)">
<stop offset="0.159577" stop-color="#F1907C"/>
<stop offset="1" stop-color="#F1907C" stop-opacity="0"/>
</radialGradient>
<radialGradient id="paint55_radial_18_17387" cx="0" cy="0" r="1" gradientUnits="userSpaceOnUse" gradientTransform="translate(29.7656 12.0396) rotate(141.017) scale(1.40706 0.727129)">
<stop stop-color="#FFDE71"/>
<stop offset="1" stop-color="#FFDE71" stop-opacity="0"/>
</radialGradient>
<radialGradient id="paint56_radial_18_17387" cx="0" cy="0" r="1" gradientUnits="userSpaceOnUse" gradientTransform="translate(29.0156 13.014) rotate(180) scale(1.875 1.94872)">
<stop offset="0.487603" stop-color="#E0A444" stop-opacity="0"/>
<stop offset="1" stop-color="#C6924D"/>
</radialGradient>
</defs>
</svg>
