<svg width="32" height="32" viewBox="0 0 32 32" fill="none" xmlns="http://www.w3.org/2000/svg">
<g clip-path="url(#clip0_20020_4022)">
<path fill-rule="evenodd" clip-rule="evenodd" d="M10.393 5.95762C8.4548 5.78039 7.26645 6.24745 6.8139 6.4698C3.97607 7.55982 1.96191 10.3109 1.96191 13.5325C1.96191 15.3109 2.57575 16.946 3.60309 18.2374L5.30625 16.5081C6.21348 15.587 7.71282 15.633 8.56191 16.608C9.02881 17.1441 9.19401 17.8442 9.06585 18.4958C9.88823 18.0452 10.9527 18.1452 11.6486 18.8285C12.3065 19.4745 12.4742 20.4747 12.1321 21.289C12.7887 21.1484 13.5291 21.3881 14.0728 22.0104C14.61 22.6252 14.7811 23.6337 14.3505 24.3864C14.9887 24.2944 15.6611 24.5344 16.1351 25.0788C16.8328 25.8799 16.8933 27.3112 16.1351 28.0553L14.8338 29.4007L14.9367 29.4904C15.9123 30.3409 17.381 30.2867 18.2913 29.3665C18.6464 29.0076 18.8671 28.5683 18.9556 28.1094C19.8903 28.6713 21.113 28.5393 21.906 27.7395C22.3543 27.2873 22.5852 26.7048 22.6033 26.1184C23.4683 26.4442 24.4773 26.2524 25.164 25.5598C25.9193 24.7979 26.0575 23.666 25.6 22.7685C26.2661 22.8575 26.9624 22.6445 27.4709 22.1369C28.3842 21.2254 28.3349 19.7312 27.3636 18.8819L27.3499 18.8699C27.348 18.8716 27.346 18.8733 27.3441 18.875L18.2507 10.914C18.0684 10.7543 17.8337 10.6664 17.5961 10.7137C16.9756 10.8372 15.9363 11.18 15.057 11.4699L15.057 11.47C14.8504 11.5381 14.6527 11.6033 14.4713 11.662L14.4678 11.6632C14.2488 11.7341 14.0382 11.8023 13.8403 11.8655C13.5949 11.9663 13.3263 12.0219 13.0446 12.0219C11.8877 12.0219 10.9499 11.0841 10.9499 9.92723C10.9499 9.09833 11.4313 8.38187 12.1299 8.04228L12.1275 8.03638C13.3975 7.53292 14.821 7.13541 16.2531 6.8278C15.0778 6.64642 12.9765 6.3324 10.393 5.95762Z" fill="url(#paint0_linear_20020_4022)"/>
<path fill-rule="evenodd" clip-rule="evenodd" d="M10.393 5.95762C8.4548 5.78039 7.26645 6.24745 6.8139 6.4698C3.97607 7.55982 1.96191 10.3109 1.96191 13.5325C1.96191 15.3109 2.57575 16.946 3.60309 18.2374L5.30625 16.5081C6.21348 15.587 7.71282 15.633 8.56191 16.608C9.02881 17.1441 9.19401 17.8442 9.06585 18.4958C9.88823 18.0452 10.9527 18.1452 11.6486 18.8285C12.3065 19.4745 12.4742 20.4747 12.1321 21.289C12.7887 21.1484 13.5291 21.3881 14.0728 22.0104C14.61 22.6252 14.7811 23.6337 14.3505 24.3864C14.9887 24.2944 15.6611 24.5344 16.1351 25.0788C16.8328 25.8799 16.8933 27.3112 16.1351 28.0553L14.8338 29.4007L14.9367 29.4904C15.9123 30.3409 17.381 30.2867 18.2913 29.3665C18.6464 29.0076 18.8671 28.5683 18.9556 28.1094C19.8903 28.6713 21.113 28.5393 21.906 27.7395C22.3543 27.2873 22.5852 26.7048 22.6033 26.1184C23.4683 26.4442 24.4773 26.2524 25.164 25.5598C25.9193 24.7979 26.0575 23.666 25.6 22.7685C26.2661 22.8575 26.9624 22.6445 27.4709 22.1369C28.3842 21.2254 28.3349 19.7312 27.3636 18.8819L27.3499 18.8699C27.348 18.8716 27.346 18.8733 27.3441 18.875L18.2507 10.914C18.0684 10.7543 17.8337 10.6664 17.5961 10.7137C16.9756 10.8372 15.9363 11.18 15.057 11.4699L15.057 11.47C14.8504 11.5381 14.6527 11.6033 14.4713 11.662L14.4678 11.6632C14.2488 11.7341 14.0382 11.8023 13.8403 11.8655C13.5949 11.9663 13.3263 12.0219 13.0446 12.0219C11.8877 12.0219 10.9499 11.0841 10.9499 9.92723C10.9499 9.09833 11.4313 8.38187 12.1299 8.04228L12.1275 8.03638C13.3975 7.53292 14.821 7.13541 16.2531 6.8278C15.0778 6.64642 12.9765 6.3324 10.393 5.95762Z" fill="url(#paint1_radial_20020_4022)"/>
<path fill-rule="evenodd" clip-rule="evenodd" d="M10.393 5.95762C8.4548 5.78039 7.26645 6.24745 6.8139 6.4698C3.97607 7.55982 1.96191 10.3109 1.96191 13.5325C1.96191 15.3109 2.57575 16.946 3.60309 18.2374L5.30625 16.5081C6.21348 15.587 7.71282 15.633 8.56191 16.608C9.02881 17.1441 9.19401 17.8442 9.06585 18.4958C9.88823 18.0452 10.9527 18.1452 11.6486 18.8285C12.3065 19.4745 12.4742 20.4747 12.1321 21.289C12.7887 21.1484 13.5291 21.3881 14.0728 22.0104C14.61 22.6252 14.7811 23.6337 14.3505 24.3864C14.9887 24.2944 15.6611 24.5344 16.1351 25.0788C16.8328 25.8799 16.8933 27.3112 16.1351 28.0553L14.8338 29.4007L14.9367 29.4904C15.9123 30.3409 17.381 30.2867 18.2913 29.3665C18.6464 29.0076 18.8671 28.5683 18.9556 28.1094C19.8903 28.6713 21.113 28.5393 21.906 27.7395C22.3543 27.2873 22.5852 26.7048 22.6033 26.1184C23.4683 26.4442 24.4773 26.2524 25.164 25.5598C25.9193 24.7979 26.0575 23.666 25.6 22.7685C26.2661 22.8575 26.9624 22.6445 27.4709 22.1369C28.3842 21.2254 28.3349 19.7312 27.3636 18.8819L27.3499 18.8699C27.348 18.8716 27.346 18.8733 27.3441 18.875L18.2507 10.914C18.0684 10.7543 17.8337 10.6664 17.5961 10.7137C16.9756 10.8372 15.9363 11.18 15.057 11.4699L15.057 11.47C14.8504 11.5381 14.6527 11.6033 14.4713 11.662L14.4678 11.6632C14.2488 11.7341 14.0382 11.8023 13.8403 11.8655C13.5949 11.9663 13.3263 12.0219 13.0446 12.0219C11.8877 12.0219 10.9499 11.0841 10.9499 9.92723C10.9499 9.09833 11.4313 8.38187 12.1299 8.04228L12.1275 8.03638C13.3975 7.53292 14.821 7.13541 16.2531 6.8278C15.0778 6.64642 12.9765 6.3324 10.393 5.95762Z" fill="url(#paint2_radial_20020_4022)"/>
<path fill-rule="evenodd" clip-rule="evenodd" d="M10.393 5.95762C8.4548 5.78039 7.26645 6.24745 6.8139 6.4698C3.97607 7.55982 1.96191 10.3109 1.96191 13.5325C1.96191 15.3109 2.57575 16.946 3.60309 18.2374L5.30625 16.5081C6.21348 15.587 7.71282 15.633 8.56191 16.608C9.02881 17.1441 9.19401 17.8442 9.06585 18.4958C9.88823 18.0452 10.9527 18.1452 11.6486 18.8285C12.3065 19.4745 12.4742 20.4747 12.1321 21.289C12.7887 21.1484 13.5291 21.3881 14.0728 22.0104C14.61 22.6252 14.7811 23.6337 14.3505 24.3864C14.9887 24.2944 15.6611 24.5344 16.1351 25.0788C16.8328 25.8799 16.8933 27.3112 16.1351 28.0553L14.8338 29.4007L14.9367 29.4904C15.9123 30.3409 17.381 30.2867 18.2913 29.3665C18.6464 29.0076 18.8671 28.5683 18.9556 28.1094C19.8903 28.6713 21.113 28.5393 21.906 27.7395C22.3543 27.2873 22.5852 26.7048 22.6033 26.1184C23.4683 26.4442 24.4773 26.2524 25.164 25.5598C25.9193 24.7979 26.0575 23.666 25.6 22.7685C26.2661 22.8575 26.9624 22.6445 27.4709 22.1369C28.3842 21.2254 28.3349 19.7312 27.3636 18.8819L27.3499 18.8699C27.348 18.8716 27.346 18.8733 27.3441 18.875L18.2507 10.914C18.0684 10.7543 17.8337 10.6664 17.5961 10.7137C16.9756 10.8372 15.9363 11.18 15.057 11.4699L15.057 11.47C14.8504 11.5381 14.6527 11.6033 14.4713 11.662L14.4678 11.6632C14.2488 11.7341 14.0382 11.8023 13.8403 11.8655C13.5949 11.9663 13.3263 12.0219 13.0446 12.0219C11.8877 12.0219 10.9499 11.0841 10.9499 9.92723C10.9499 9.09833 11.4313 8.38187 12.1299 8.04228L12.1275 8.03638C13.3975 7.53292 14.821 7.13541 16.2531 6.8278C15.0778 6.64642 12.9765 6.3324 10.393 5.95762Z" fill="url(#paint3_radial_20020_4022)"/>
<path fill-rule="evenodd" clip-rule="evenodd" d="M10.393 5.95762C8.4548 5.78039 7.26645 6.24745 6.8139 6.4698C3.97607 7.55982 1.96191 10.3109 1.96191 13.5325C1.96191 15.3109 2.57575 16.946 3.60309 18.2374L5.30625 16.5081C6.21348 15.587 7.71282 15.633 8.56191 16.608C9.02881 17.1441 9.19401 17.8442 9.06585 18.4958C9.88823 18.0452 10.9527 18.1452 11.6486 18.8285C12.3065 19.4745 12.4742 20.4747 12.1321 21.289C12.7887 21.1484 13.5291 21.3881 14.0728 22.0104C14.61 22.6252 14.7811 23.6337 14.3505 24.3864C14.9887 24.2944 15.6611 24.5344 16.1351 25.0788C16.8328 25.8799 16.8933 27.3112 16.1351 28.0553L14.8338 29.4007L14.9367 29.4904C15.9123 30.3409 17.381 30.2867 18.2913 29.3665C18.6464 29.0076 18.8671 28.5683 18.9556 28.1094C19.8903 28.6713 21.113 28.5393 21.906 27.7395C22.3543 27.2873 22.5852 26.7048 22.6033 26.1184C23.4683 26.4442 24.4773 26.2524 25.164 25.5598C25.9193 24.7979 26.0575 23.666 25.6 22.7685C26.2661 22.8575 26.9624 22.6445 27.4709 22.1369C28.3842 21.2254 28.3349 19.7312 27.3636 18.8819L27.3499 18.8699C27.348 18.8716 27.346 18.8733 27.3441 18.875L18.2507 10.914C18.0684 10.7543 17.8337 10.6664 17.5961 10.7137C16.9756 10.8372 15.9363 11.18 15.057 11.4699L15.057 11.47C14.8504 11.5381 14.6527 11.6033 14.4713 11.662L14.4678 11.6632C14.2488 11.7341 14.0382 11.8023 13.8403 11.8655C13.5949 11.9663 13.3263 12.0219 13.0446 12.0219C11.8877 12.0219 10.9499 11.0841 10.9499 9.92723C10.9499 9.09833 11.4313 8.38187 12.1299 8.04228L12.1275 8.03638C13.3975 7.53292 14.821 7.13541 16.2531 6.8278C15.0778 6.64642 12.9765 6.3324 10.393 5.95762Z" fill="url(#paint4_radial_20020_4022)"/>
<path fill-rule="evenodd" clip-rule="evenodd" d="M10.393 5.95762C8.4548 5.78039 7.26645 6.24745 6.8139 6.4698C3.97607 7.55982 1.96191 10.3109 1.96191 13.5325C1.96191 15.3109 2.57575 16.946 3.60309 18.2374L5.30625 16.5081C6.21348 15.587 7.71282 15.633 8.56191 16.608C9.02881 17.1441 9.19401 17.8442 9.06585 18.4958C9.88823 18.0452 10.9527 18.1452 11.6486 18.8285C12.3065 19.4745 12.4742 20.4747 12.1321 21.289C12.7887 21.1484 13.5291 21.3881 14.0728 22.0104C14.61 22.6252 14.7811 23.6337 14.3505 24.3864C14.9887 24.2944 15.6611 24.5344 16.1351 25.0788C16.8328 25.8799 16.8933 27.3112 16.1351 28.0553L14.8338 29.4007L14.9367 29.4904C15.9123 30.3409 17.381 30.2867 18.2913 29.3665C18.6464 29.0076 18.8671 28.5683 18.9556 28.1094C19.8903 28.6713 21.113 28.5393 21.906 27.7395C22.3543 27.2873 22.5852 26.7048 22.6033 26.1184C23.4683 26.4442 24.4773 26.2524 25.164 25.5598C25.9193 24.7979 26.0575 23.666 25.6 22.7685C26.2661 22.8575 26.9624 22.6445 27.4709 22.1369C28.3842 21.2254 28.3349 19.7312 27.3636 18.8819L27.3499 18.8699C27.348 18.8716 27.346 18.8733 27.3441 18.875L18.2507 10.914C18.0684 10.7543 17.8337 10.6664 17.5961 10.7137C16.9756 10.8372 15.9363 11.18 15.057 11.4699L15.057 11.47C14.8504 11.5381 14.6527 11.6033 14.4713 11.662L14.4678 11.6632C14.2488 11.7341 14.0382 11.8023 13.8403 11.8655C13.5949 11.9663 13.3263 12.0219 13.0446 12.0219C11.8877 12.0219 10.9499 11.0841 10.9499 9.92723C10.9499 9.09833 11.4313 8.38187 12.1299 8.04228L12.1275 8.03638C13.3975 7.53292 14.821 7.13541 16.2531 6.8278C15.0778 6.64642 12.9765 6.3324 10.393 5.95762Z" fill="url(#paint5_radial_20020_4022)"/>
<path fill-rule="evenodd" clip-rule="evenodd" d="M10.393 5.95762C8.4548 5.78039 7.26645 6.24745 6.8139 6.4698C3.97607 7.55982 1.96191 10.3109 1.96191 13.5325C1.96191 15.3109 2.57575 16.946 3.60309 18.2374L5.30625 16.5081C6.21348 15.587 7.71282 15.633 8.56191 16.608C9.02881 17.1441 9.19401 17.8442 9.06585 18.4958C9.88823 18.0452 10.9527 18.1452 11.6486 18.8285C12.3065 19.4745 12.4742 20.4747 12.1321 21.289C12.7887 21.1484 13.5291 21.3881 14.0728 22.0104C14.61 22.6252 14.7811 23.6337 14.3505 24.3864C14.9887 24.2944 15.6611 24.5344 16.1351 25.0788C16.8328 25.8799 16.8933 27.3112 16.1351 28.0553L14.8338 29.4007L14.9367 29.4904C15.9123 30.3409 17.381 30.2867 18.2913 29.3665C18.6464 29.0076 18.8671 28.5683 18.9556 28.1094C19.8903 28.6713 21.113 28.5393 21.906 27.7395C22.3543 27.2873 22.5852 26.7048 22.6033 26.1184C23.4683 26.4442 24.4773 26.2524 25.164 25.5598C25.9193 24.7979 26.0575 23.666 25.6 22.7685C26.2661 22.8575 26.9624 22.6445 27.4709 22.1369C28.3842 21.2254 28.3349 19.7312 27.3636 18.8819L27.3499 18.8699C27.348 18.8716 27.346 18.8733 27.3441 18.875L18.2507 10.914C18.0684 10.7543 17.8337 10.6664 17.5961 10.7137C16.9756 10.8372 15.9363 11.18 15.057 11.4699L15.057 11.47C14.8504 11.5381 14.6527 11.6033 14.4713 11.662L14.4678 11.6632C14.2488 11.7341 14.0382 11.8023 13.8403 11.8655C13.5949 11.9663 13.3263 12.0219 13.0446 12.0219C11.8877 12.0219 10.9499 11.0841 10.9499 9.92723C10.9499 9.09833 11.4313 8.38187 12.1299 8.04228L12.1275 8.03638C13.3975 7.53292 14.821 7.13541 16.2531 6.8278C15.0778 6.64642 12.9765 6.3324 10.393 5.95762Z" fill="url(#paint6_radial_20020_4022)"/>
<path fill-rule="evenodd" clip-rule="evenodd" d="M10.393 5.95762C8.4548 5.78039 7.26645 6.24745 6.8139 6.4698C3.97607 7.55982 1.96191 10.3109 1.96191 13.5325C1.96191 15.3109 2.57575 16.946 3.60309 18.2374L5.30625 16.5081C6.21348 15.587 7.71282 15.633 8.56191 16.608C9.02881 17.1441 9.19401 17.8442 9.06585 18.4958C9.88823 18.0452 10.9527 18.1452 11.6486 18.8285C12.3065 19.4745 12.4742 20.4747 12.1321 21.289C12.7887 21.1484 13.5291 21.3881 14.0728 22.0104C14.61 22.6252 14.7811 23.6337 14.3505 24.3864C14.9887 24.2944 15.6611 24.5344 16.1351 25.0788C16.8328 25.8799 16.8933 27.3112 16.1351 28.0553L14.8338 29.4007L14.9367 29.4904C15.9123 30.3409 17.381 30.2867 18.2913 29.3665C18.6464 29.0076 18.8671 28.5683 18.9556 28.1094C19.8903 28.6713 21.113 28.5393 21.906 27.7395C22.3543 27.2873 22.5852 26.7048 22.6033 26.1184C23.4683 26.4442 24.4773 26.2524 25.164 25.5598C25.9193 24.7979 26.0575 23.666 25.6 22.7685C26.2661 22.8575 26.9624 22.6445 27.4709 22.1369C28.3842 21.2254 28.3349 19.7312 27.3636 18.8819L27.3499 18.8699C27.348 18.8716 27.346 18.8733 27.3441 18.875L18.2507 10.914C18.0684 10.7543 17.8337 10.6664 17.5961 10.7137C16.9756 10.8372 15.9363 11.18 15.057 11.4699L15.057 11.47C14.8504 11.5381 14.6527 11.6033 14.4713 11.662L14.4678 11.6632C14.2488 11.7341 14.0382 11.8023 13.8403 11.8655C13.5949 11.9663 13.3263 12.0219 13.0446 12.0219C11.8877 12.0219 10.9499 11.0841 10.9499 9.92723C10.9499 9.09833 11.4313 8.38187 12.1299 8.04228L12.1275 8.03638C13.3975 7.53292 14.821 7.13541 16.2531 6.8278C15.0778 6.64642 12.9765 6.3324 10.393 5.95762Z" fill="url(#paint7_radial_20020_4022)"/>
<path fill-rule="evenodd" clip-rule="evenodd" d="M10.393 5.95762C8.4548 5.78039 7.26645 6.24745 6.8139 6.4698C3.97607 7.55982 1.96191 10.3109 1.96191 13.5325C1.96191 15.3109 2.57575 16.946 3.60309 18.2374L5.30625 16.5081C6.21348 15.587 7.71282 15.633 8.56191 16.608C9.02881 17.1441 9.19401 17.8442 9.06585 18.4958C9.88823 18.0452 10.9527 18.1452 11.6486 18.8285C12.3065 19.4745 12.4742 20.4747 12.1321 21.289C12.7887 21.1484 13.5291 21.3881 14.0728 22.0104C14.61 22.6252 14.7811 23.6337 14.3505 24.3864C14.9887 24.2944 15.6611 24.5344 16.1351 25.0788C16.8328 25.8799 16.8933 27.3112 16.1351 28.0553L14.8338 29.4007L14.9367 29.4904C15.9123 30.3409 17.381 30.2867 18.2913 29.3665C18.6464 29.0076 18.8671 28.5683 18.9556 28.1094C19.8903 28.6713 21.113 28.5393 21.906 27.7395C22.3543 27.2873 22.5852 26.7048 22.6033 26.1184C23.4683 26.4442 24.4773 26.2524 25.164 25.5598C25.9193 24.7979 26.0575 23.666 25.6 22.7685C26.2661 22.8575 26.9624 22.6445 27.4709 22.1369C28.3842 21.2254 28.3349 19.7312 27.3636 18.8819L27.3499 18.8699C27.348 18.8716 27.346 18.8733 27.3441 18.875L18.2507 10.914C18.0684 10.7543 17.8337 10.6664 17.5961 10.7137C16.9756 10.8372 15.9363 11.18 15.057 11.4699L15.057 11.47C14.8504 11.5381 14.6527 11.6033 14.4713 11.662L14.4678 11.6632C14.2488 11.7341 14.0382 11.8023 13.8403 11.8655C13.5949 11.9663 13.3263 12.0219 13.0446 12.0219C11.8877 12.0219 10.9499 11.0841 10.9499 9.92723C10.9499 9.09833 11.4313 8.38187 12.1299 8.04228L12.1275 8.03638C13.3975 7.53292 14.821 7.13541 16.2531 6.8278C15.0778 6.64642 12.9765 6.3324 10.393 5.95762Z" fill="url(#paint8_radial_20020_4022)"/>
<path fill-rule="evenodd" clip-rule="evenodd" d="M10.393 5.95762C8.4548 5.78039 7.26645 6.24745 6.8139 6.4698C3.97607 7.55982 1.96191 10.3109 1.96191 13.5325C1.96191 15.3109 2.57575 16.946 3.60309 18.2374L5.30625 16.5081C6.21348 15.587 7.71282 15.633 8.56191 16.608C9.02881 17.1441 9.19401 17.8442 9.06585 18.4958C9.88823 18.0452 10.9527 18.1452 11.6486 18.8285C12.3065 19.4745 12.4742 20.4747 12.1321 21.289C12.7887 21.1484 13.5291 21.3881 14.0728 22.0104C14.61 22.6252 14.7811 23.6337 14.3505 24.3864C14.9887 24.2944 15.6611 24.5344 16.1351 25.0788C16.8328 25.8799 16.8933 27.3112 16.1351 28.0553L14.8338 29.4007L14.9367 29.4904C15.9123 30.3409 17.381 30.2867 18.2913 29.3665C18.6464 29.0076 18.8671 28.5683 18.9556 28.1094C19.8903 28.6713 21.113 28.5393 21.906 27.7395C22.3543 27.2873 22.5852 26.7048 22.6033 26.1184C23.4683 26.4442 24.4773 26.2524 25.164 25.5598C25.9193 24.7979 26.0575 23.666 25.6 22.7685C26.2661 22.8575 26.9624 22.6445 27.4709 22.1369C28.3842 21.2254 28.3349 19.7312 27.3636 18.8819L27.3499 18.8699C27.348 18.8716 27.346 18.8733 27.3441 18.875L18.2507 10.914C18.0684 10.7543 17.8337 10.6664 17.5961 10.7137C16.9756 10.8372 15.9363 11.18 15.057 11.4699L15.057 11.47C14.8504 11.5381 14.6527 11.6033 14.4713 11.662L14.4678 11.6632C14.2488 11.7341 14.0382 11.8023 13.8403 11.8655C13.5949 11.9663 13.3263 12.0219 13.0446 12.0219C11.8877 12.0219 10.9499 11.0841 10.9499 9.92723C10.9499 9.09833 11.4313 8.38187 12.1299 8.04228L12.1275 8.03638C13.3975 7.53292 14.821 7.13541 16.2531 6.8278C15.0778 6.64642 12.9765 6.3324 10.393 5.95762Z" fill="url(#paint9_radial_20020_4022)"/>
<path fill-rule="evenodd" clip-rule="evenodd" d="M10.393 5.95762C8.4548 5.78039 7.26645 6.24745 6.8139 6.4698C3.97607 7.55982 1.96191 10.3109 1.96191 13.5325C1.96191 15.3109 2.57575 16.946 3.60309 18.2374L5.30625 16.5081C6.21348 15.587 7.71282 15.633 8.56191 16.608C9.02881 17.1441 9.19401 17.8442 9.06585 18.4958C9.88823 18.0452 10.9527 18.1452 11.6486 18.8285C12.3065 19.4745 12.4742 20.4747 12.1321 21.289C12.7887 21.1484 13.5291 21.3881 14.0728 22.0104C14.61 22.6252 14.7811 23.6337 14.3505 24.3864C14.9887 24.2944 15.6611 24.5344 16.1351 25.0788C16.8328 25.8799 16.8933 27.3112 16.1351 28.0553L14.8338 29.4007L14.9367 29.4904C15.9123 30.3409 17.381 30.2867 18.2913 29.3665C18.6464 29.0076 18.8671 28.5683 18.9556 28.1094C19.8903 28.6713 21.113 28.5393 21.906 27.7395C22.3543 27.2873 22.5852 26.7048 22.6033 26.1184C23.4683 26.4442 24.4773 26.2524 25.164 25.5598C25.9193 24.7979 26.0575 23.666 25.6 22.7685C26.2661 22.8575 26.9624 22.6445 27.4709 22.1369C28.3842 21.2254 28.3349 19.7312 27.3636 18.8819L27.3499 18.8699C27.348 18.8716 27.346 18.8733 27.3441 18.875L18.2507 10.914C18.0684 10.7543 17.8337 10.6664 17.5961 10.7137C16.9756 10.8372 15.9363 11.18 15.057 11.4699L15.057 11.47C14.8504 11.5381 14.6527 11.6033 14.4713 11.662L14.4678 11.6632C14.2488 11.7341 14.0382 11.8023 13.8403 11.8655C13.5949 11.9663 13.3263 12.0219 13.0446 12.0219C11.8877 12.0219 10.9499 11.0841 10.9499 9.92723C10.9499 9.09833 11.4313 8.38187 12.1299 8.04228L12.1275 8.03638C13.3975 7.53292 14.821 7.13541 16.2531 6.8278C15.0778 6.64642 12.9765 6.3324 10.393 5.95762Z" fill="url(#paint10_radial_20020_4022)" fill-opacity="0.8"/>
<path fill-rule="evenodd" clip-rule="evenodd" d="M10.393 5.95762C8.4548 5.78039 7.26645 6.24745 6.8139 6.4698C3.97607 7.55982 1.96191 10.3109 1.96191 13.5325C1.96191 15.3109 2.57575 16.946 3.60309 18.2374L5.30625 16.5081C6.21348 15.587 7.71282 15.633 8.56191 16.608C9.02881 17.1441 9.19401 17.8442 9.06585 18.4958C9.88823 18.0452 10.9527 18.1452 11.6486 18.8285C12.3065 19.4745 12.4742 20.4747 12.1321 21.289C12.7887 21.1484 13.5291 21.3881 14.0728 22.0104C14.61 22.6252 14.7811 23.6337 14.3505 24.3864C14.9887 24.2944 15.6611 24.5344 16.1351 25.0788C16.8328 25.8799 16.8933 27.3112 16.1351 28.0553L14.8338 29.4007L14.9367 29.4904C15.9123 30.3409 17.381 30.2867 18.2913 29.3665C18.6464 29.0076 18.8671 28.5683 18.9556 28.1094C19.8903 28.6713 21.113 28.5393 21.906 27.7395C22.3543 27.2873 22.5852 26.7048 22.6033 26.1184C23.4683 26.4442 24.4773 26.2524 25.164 25.5598C25.9193 24.7979 26.0575 23.666 25.6 22.7685C26.2661 22.8575 26.9624 22.6445 27.4709 22.1369C28.3842 21.2254 28.3349 19.7312 27.3636 18.8819L27.3499 18.8699C27.348 18.8716 27.346 18.8733 27.3441 18.875L18.2507 10.914C18.0684 10.7543 17.8337 10.6664 17.5961 10.7137C16.9756 10.8372 15.9363 11.18 15.057 11.4699L15.057 11.47C14.8504 11.5381 14.6527 11.6033 14.4713 11.662L14.4678 11.6632C14.2488 11.7341 14.0382 11.8023 13.8403 11.8655C13.5949 11.9663 13.3263 12.0219 13.0446 12.0219C11.8877 12.0219 10.9499 11.0841 10.9499 9.92723C10.9499 9.09833 11.4313 8.38187 12.1299 8.04228L12.1275 8.03638C13.3975 7.53292 14.821 7.13541 16.2531 6.8278C15.0778 6.64642 12.9765 6.3324 10.393 5.95762Z" fill="url(#paint11_radial_20020_4022)" fill-opacity="0.8"/>
<path fill-rule="evenodd" clip-rule="evenodd" d="M10.393 5.95762C8.4548 5.78039 7.26645 6.24745 6.8139 6.4698C3.97607 7.55982 1.96191 10.3109 1.96191 13.5325C1.96191 15.3109 2.57575 16.946 3.60309 18.2374L5.30625 16.5081C6.21348 15.587 7.71282 15.633 8.56191 16.608C9.02881 17.1441 9.19401 17.8442 9.06585 18.4958C9.88823 18.0452 10.9527 18.1452 11.6486 18.8285C12.3065 19.4745 12.4742 20.4747 12.1321 21.289C12.7887 21.1484 13.5291 21.3881 14.0728 22.0104C14.61 22.6252 14.7811 23.6337 14.3505 24.3864C14.9887 24.2944 15.6611 24.5344 16.1351 25.0788C16.8328 25.8799 16.8933 27.3112 16.1351 28.0553L14.8338 29.4007L14.9367 29.4904C15.9123 30.3409 17.381 30.2867 18.2913 29.3665C18.6464 29.0076 18.8671 28.5683 18.9556 28.1094C19.8903 28.6713 21.113 28.5393 21.906 27.7395C22.3543 27.2873 22.5852 26.7048 22.6033 26.1184C23.4683 26.4442 24.4773 26.2524 25.164 25.5598C25.9193 24.7979 26.0575 23.666 25.6 22.7685C26.2661 22.8575 26.9624 22.6445 27.4709 22.1369C28.3842 21.2254 28.3349 19.7312 27.3636 18.8819L27.3499 18.8699C27.348 18.8716 27.346 18.8733 27.3441 18.875L18.2507 10.914C18.0684 10.7543 17.8337 10.6664 17.5961 10.7137C16.9756 10.8372 15.9363 11.18 15.057 11.4699L15.057 11.47C14.8504 11.5381 14.6527 11.6033 14.4713 11.662L14.4678 11.6632C14.2488 11.7341 14.0382 11.8023 13.8403 11.8655C13.5949 11.9663 13.3263 12.0219 13.0446 12.0219C11.8877 12.0219 10.9499 11.0841 10.9499 9.92723C10.9499 9.09833 11.4313 8.38187 12.1299 8.04228L12.1275 8.03638C13.3975 7.53292 14.821 7.13541 16.2531 6.8278C15.0778 6.64642 12.9765 6.3324 10.393 5.95762Z" fill="url(#paint12_radial_20020_4022)" fill-opacity="0.8"/>
<path fill-rule="evenodd" clip-rule="evenodd" d="M10.393 5.95762C8.4548 5.78039 7.26645 6.24745 6.8139 6.4698C3.97607 7.55982 1.96191 10.3109 1.96191 13.5325C1.96191 15.3109 2.57575 16.946 3.60309 18.2374L5.30625 16.5081C6.21348 15.587 7.71282 15.633 8.56191 16.608C9.02881 17.1441 9.19401 17.8442 9.06585 18.4958C9.88823 18.0452 10.9527 18.1452 11.6486 18.8285C12.3065 19.4745 12.4742 20.4747 12.1321 21.289C12.7887 21.1484 13.5291 21.3881 14.0728 22.0104C14.61 22.6252 14.7811 23.6337 14.3505 24.3864C14.9887 24.2944 15.6611 24.5344 16.1351 25.0788C16.8328 25.8799 16.8933 27.3112 16.1351 28.0553L14.8338 29.4007L14.9367 29.4904C15.9123 30.3409 17.381 30.2867 18.2913 29.3665C18.6464 29.0076 18.8671 28.5683 18.9556 28.1094C19.8903 28.6713 21.113 28.5393 21.906 27.7395C22.3543 27.2873 22.5852 26.7048 22.6033 26.1184C23.4683 26.4442 24.4773 26.2524 25.164 25.5598C25.9193 24.7979 26.0575 23.666 25.6 22.7685C26.2661 22.8575 26.9624 22.6445 27.4709 22.1369C28.3842 21.2254 28.3349 19.7312 27.3636 18.8819L27.3499 18.8699C27.348 18.8716 27.346 18.8733 27.3441 18.875L18.2507 10.914C18.0684 10.7543 17.8337 10.6664 17.5961 10.7137C16.9756 10.8372 15.9363 11.18 15.057 11.4699L15.057 11.47C14.8504 11.5381 14.6527 11.6033 14.4713 11.662L14.4678 11.6632C14.2488 11.7341 14.0382 11.8023 13.8403 11.8655C13.5949 11.9663 13.3263 12.0219 13.0446 12.0219C11.8877 12.0219 10.9499 11.0841 10.9499 9.92723C10.9499 9.09833 11.4313 8.38187 12.1299 8.04228L12.1275 8.03638C13.3975 7.53292 14.821 7.13541 16.2531 6.8278C15.0778 6.64642 12.9765 6.3324 10.393 5.95762Z" fill="url(#paint13_radial_20020_4022)" fill-opacity="0.3"/>
<path fill-rule="evenodd" clip-rule="evenodd" d="M10.393 5.95762C8.4548 5.78039 7.26645 6.24745 6.8139 6.4698C3.97607 7.55982 1.96191 10.3109 1.96191 13.5325C1.96191 15.3109 2.57575 16.946 3.60309 18.2374L5.30625 16.5081C6.21348 15.587 7.71282 15.633 8.56191 16.608C9.02881 17.1441 9.19401 17.8442 9.06585 18.4958C9.88823 18.0452 10.9527 18.1452 11.6486 18.8285C12.3065 19.4745 12.4742 20.4747 12.1321 21.289C12.7887 21.1484 13.5291 21.3881 14.0728 22.0104C14.61 22.6252 14.7811 23.6337 14.3505 24.3864C14.9887 24.2944 15.6611 24.5344 16.1351 25.0788C16.8328 25.8799 16.8933 27.3112 16.1351 28.0553L14.8338 29.4007L14.9367 29.4904C15.9123 30.3409 17.381 30.2867 18.2913 29.3665C18.6464 29.0076 18.8671 28.5683 18.9556 28.1094C19.8903 28.6713 21.113 28.5393 21.906 27.7395C22.3543 27.2873 22.5852 26.7048 22.6033 26.1184C23.4683 26.4442 24.4773 26.2524 25.164 25.5598C25.9193 24.7979 26.0575 23.666 25.6 22.7685C26.2661 22.8575 26.9624 22.6445 27.4709 22.1369C28.3842 21.2254 28.3349 19.7312 27.3636 18.8819L27.3499 18.8699C27.348 18.8716 27.346 18.8733 27.3441 18.875L18.2507 10.914C18.0684 10.7543 17.8337 10.6664 17.5961 10.7137C16.9756 10.8372 15.9363 11.18 15.057 11.4699L15.057 11.47C14.8504 11.5381 14.6527 11.6033 14.4713 11.662L14.4678 11.6632C14.2488 11.7341 14.0382 11.8023 13.8403 11.8655C13.5949 11.9663 13.3263 12.0219 13.0446 12.0219C11.8877 12.0219 10.9499 11.0841 10.9499 9.92723C10.9499 9.09833 11.4313 8.38187 12.1299 8.04228L12.1275 8.03638C13.3975 7.53292 14.821 7.13541 16.2531 6.8278C15.0778 6.64642 12.9765 6.3324 10.393 5.95762Z" fill="url(#paint14_radial_20020_4022)"/>
<path fill-rule="evenodd" clip-rule="evenodd" d="M10.393 5.95762C8.4548 5.78039 7.26645 6.24745 6.8139 6.4698C3.97607 7.55982 1.96191 10.3109 1.96191 13.5325C1.96191 15.3109 2.57575 16.946 3.60309 18.2374L5.30625 16.5081C6.21348 15.587 7.71282 15.633 8.56191 16.608C9.02881 17.1441 9.19401 17.8442 9.06585 18.4958C9.88823 18.0452 10.9527 18.1452 11.6486 18.8285C12.3065 19.4745 12.4742 20.4747 12.1321 21.289C12.7887 21.1484 13.5291 21.3881 14.0728 22.0104C14.61 22.6252 14.7811 23.6337 14.3505 24.3864C14.9887 24.2944 15.6611 24.5344 16.1351 25.0788C16.8328 25.8799 16.8933 27.3112 16.1351 28.0553L14.8338 29.4007L14.9367 29.4904C15.9123 30.3409 17.381 30.2867 18.2913 29.3665C18.6464 29.0076 18.8671 28.5683 18.9556 28.1094C19.8903 28.6713 21.113 28.5393 21.906 27.7395C22.3543 27.2873 22.5852 26.7048 22.6033 26.1184C23.4683 26.4442 24.4773 26.2524 25.164 25.5598C25.9193 24.7979 26.0575 23.666 25.6 22.7685C26.2661 22.8575 26.9624 22.6445 27.4709 22.1369C28.3842 21.2254 28.3349 19.7312 27.3636 18.8819L27.3499 18.8699C27.348 18.8716 27.346 18.8733 27.3441 18.875L18.2507 10.914C18.0684 10.7543 17.8337 10.6664 17.5961 10.7137C16.9756 10.8372 15.9363 11.18 15.057 11.4699L15.057 11.47C14.8504 11.5381 14.6527 11.6033 14.4713 11.662L14.4678 11.6632C14.2488 11.7341 14.0382 11.8023 13.8403 11.8655C13.5949 11.9663 13.3263 12.0219 13.0446 12.0219C11.8877 12.0219 10.9499 11.0841 10.9499 9.92723C10.9499 9.09833 11.4313 8.38187 12.1299 8.04228L12.1275 8.03638C13.3975 7.53292 14.821 7.13541 16.2531 6.8278C15.0778 6.64642 12.9765 6.3324 10.393 5.95762Z" fill="url(#paint15_radial_20020_4022)"/>
<path fill-rule="evenodd" clip-rule="evenodd" d="M10.393 5.95762C8.4548 5.78039 7.26645 6.24745 6.8139 6.4698C3.97607 7.55982 1.96191 10.3109 1.96191 13.5325C1.96191 15.3109 2.57575 16.946 3.60309 18.2374L5.30625 16.5081C6.21348 15.587 7.71282 15.633 8.56191 16.608C9.02881 17.1441 9.19401 17.8442 9.06585 18.4958C9.88823 18.0452 10.9527 18.1452 11.6486 18.8285C12.3065 19.4745 12.4742 20.4747 12.1321 21.289C12.7887 21.1484 13.5291 21.3881 14.0728 22.0104C14.61 22.6252 14.7811 23.6337 14.3505 24.3864C14.9887 24.2944 15.6611 24.5344 16.1351 25.0788C16.8328 25.8799 16.8933 27.3112 16.1351 28.0553L14.8338 29.4007L14.9367 29.4904C15.9123 30.3409 17.381 30.2867 18.2913 29.3665C18.6464 29.0076 18.8671 28.5683 18.9556 28.1094C19.8903 28.6713 21.113 28.5393 21.906 27.7395C22.3543 27.2873 22.5852 26.7048 22.6033 26.1184C23.4683 26.4442 24.4773 26.2524 25.164 25.5598C25.9193 24.7979 26.0575 23.666 25.6 22.7685C26.2661 22.8575 26.9624 22.6445 27.4709 22.1369C28.3842 21.2254 28.3349 19.7312 27.3636 18.8819L27.3499 18.8699C27.348 18.8716 27.346 18.8733 27.3441 18.875L18.2507 10.914C18.0684 10.7543 17.8337 10.6664 17.5961 10.7137C16.9756 10.8372 15.9363 11.18 15.057 11.4699L15.057 11.47C14.8504 11.5381 14.6527 11.6033 14.4713 11.662L14.4678 11.6632C14.2488 11.7341 14.0382 11.8023 13.8403 11.8655C13.5949 11.9663 13.3263 12.0219 13.0446 12.0219C11.8877 12.0219 10.9499 11.0841 10.9499 9.92723C10.9499 9.09833 11.4313 8.38187 12.1299 8.04228L12.1275 8.03638C13.3975 7.53292 14.821 7.13541 16.2531 6.8278C15.0778 6.64642 12.9765 6.3324 10.393 5.95762Z" fill="url(#paint16_radial_20020_4022)"/>
<path fill-rule="evenodd" clip-rule="evenodd" d="M10.393 5.95762C8.4548 5.78039 7.26645 6.24745 6.8139 6.4698C3.97607 7.55982 1.96191 10.3109 1.96191 13.5325C1.96191 15.3109 2.57575 16.946 3.60309 18.2374L5.30625 16.5081C6.21348 15.587 7.71282 15.633 8.56191 16.608C9.02881 17.1441 9.19401 17.8442 9.06585 18.4958C9.88823 18.0452 10.9527 18.1452 11.6486 18.8285C12.3065 19.4745 12.4742 20.4747 12.1321 21.289C12.7887 21.1484 13.5291 21.3881 14.0728 22.0104C14.61 22.6252 14.7811 23.6337 14.3505 24.3864C14.9887 24.2944 15.6611 24.5344 16.1351 25.0788C16.8328 25.8799 16.8933 27.3112 16.1351 28.0553L14.8338 29.4007L14.9367 29.4904C15.9123 30.3409 17.381 30.2867 18.2913 29.3665C18.6464 29.0076 18.8671 28.5683 18.9556 28.1094C19.8903 28.6713 21.113 28.5393 21.906 27.7395C22.3543 27.2873 22.5852 26.7048 22.6033 26.1184C23.4683 26.4442 24.4773 26.2524 25.164 25.5598C25.9193 24.7979 26.0575 23.666 25.6 22.7685C26.2661 22.8575 26.9624 22.6445 27.4709 22.1369C28.3842 21.2254 28.3349 19.7312 27.3636 18.8819L27.3499 18.8699C27.348 18.8716 27.346 18.8733 27.3441 18.875L18.2507 10.914C18.0684 10.7543 17.8337 10.6664 17.5961 10.7137C16.9756 10.8372 15.9363 11.18 15.057 11.4699L15.057 11.47C14.8504 11.5381 14.6527 11.6033 14.4713 11.662L14.4678 11.6632C14.2488 11.7341 14.0382 11.8023 13.8403 11.8655C13.5949 11.9663 13.3263 12.0219 13.0446 12.0219C11.8877 12.0219 10.9499 11.0841 10.9499 9.92723C10.9499 9.09833 11.4313 8.38187 12.1299 8.04228L12.1275 8.03638C13.3975 7.53292 14.821 7.13541 16.2531 6.8278C15.0778 6.64642 12.9765 6.3324 10.393 5.95762Z" fill="url(#paint17_radial_20020_4022)"/>
<path fill-rule="evenodd" clip-rule="evenodd" d="M10.393 5.95762C8.4548 5.78039 7.26645 6.24745 6.8139 6.4698C3.97607 7.55982 1.96191 10.3109 1.96191 13.5325C1.96191 15.3109 2.57575 16.946 3.60309 18.2374L5.30625 16.5081C6.21348 15.587 7.71282 15.633 8.56191 16.608C9.02881 17.1441 9.19401 17.8442 9.06585 18.4958C9.88823 18.0452 10.9527 18.1452 11.6486 18.8285C12.3065 19.4745 12.4742 20.4747 12.1321 21.289C12.7887 21.1484 13.5291 21.3881 14.0728 22.0104C14.61 22.6252 14.7811 23.6337 14.3505 24.3864C14.9887 24.2944 15.6611 24.5344 16.1351 25.0788C16.8328 25.8799 16.8933 27.3112 16.1351 28.0553L14.8338 29.4007L14.9367 29.4904C15.9123 30.3409 17.381 30.2867 18.2913 29.3665C18.6464 29.0076 18.8671 28.5683 18.9556 28.1094C19.8903 28.6713 21.113 28.5393 21.906 27.7395C22.3543 27.2873 22.5852 26.7048 22.6033 26.1184C23.4683 26.4442 24.4773 26.2524 25.164 25.5598C25.9193 24.7979 26.0575 23.666 25.6 22.7685C26.2661 22.8575 26.9624 22.6445 27.4709 22.1369C28.3842 21.2254 28.3349 19.7312 27.3636 18.8819L27.3499 18.8699C27.348 18.8716 27.346 18.8733 27.3441 18.875L18.2507 10.914C18.0684 10.7543 17.8337 10.6664 17.5961 10.7137C16.9756 10.8372 15.9363 11.18 15.057 11.4699L15.057 11.47C14.8504 11.5381 14.6527 11.6033 14.4713 11.662L14.4678 11.6632C14.2488 11.7341 14.0382 11.8023 13.8403 11.8655C13.5949 11.9663 13.3263 12.0219 13.0446 12.0219C11.8877 12.0219 10.9499 11.0841 10.9499 9.92723C10.9499 9.09833 11.4313 8.38187 12.1299 8.04228L12.1275 8.03638C13.3975 7.53292 14.821 7.13541 16.2531 6.8278C15.0778 6.64642 12.9765 6.3324 10.393 5.95762Z" fill="url(#paint18_radial_20020_4022)"/>
<path fill-rule="evenodd" clip-rule="evenodd" d="M10.393 5.95762C8.4548 5.78039 7.26645 6.24745 6.8139 6.4698C3.97607 7.55982 1.96191 10.3109 1.96191 13.5325C1.96191 15.3109 2.57575 16.946 3.60309 18.2374L5.30625 16.5081C6.21348 15.587 7.71282 15.633 8.56191 16.608C9.02881 17.1441 9.19401 17.8442 9.06585 18.4958C9.88823 18.0452 10.9527 18.1452 11.6486 18.8285C12.3065 19.4745 12.4742 20.4747 12.1321 21.289C12.7887 21.1484 13.5291 21.3881 14.0728 22.0104C14.61 22.6252 14.7811 23.6337 14.3505 24.3864C14.9887 24.2944 15.6611 24.5344 16.1351 25.0788C16.8328 25.8799 16.8933 27.3112 16.1351 28.0553L14.8338 29.4007L14.9367 29.4904C15.9123 30.3409 17.381 30.2867 18.2913 29.3665C18.6464 29.0076 18.8671 28.5683 18.9556 28.1094C19.8903 28.6713 21.113 28.5393 21.906 27.7395C22.3543 27.2873 22.5852 26.7048 22.6033 26.1184C23.4683 26.4442 24.4773 26.2524 25.164 25.5598C25.9193 24.7979 26.0575 23.666 25.6 22.7685C26.2661 22.8575 26.9624 22.6445 27.4709 22.1369C28.3842 21.2254 28.3349 19.7312 27.3636 18.8819L27.3499 18.8699C27.348 18.8716 27.346 18.8733 27.3441 18.875L18.2507 10.914C18.0684 10.7543 17.8337 10.6664 17.5961 10.7137C16.9756 10.8372 15.9363 11.18 15.057 11.4699L15.057 11.47C14.8504 11.5381 14.6527 11.6033 14.4713 11.662L14.4678 11.6632C14.2488 11.7341 14.0382 11.8023 13.8403 11.8655C13.5949 11.9663 13.3263 12.0219 13.0446 12.0219C11.8877 12.0219 10.9499 11.0841 10.9499 9.92723C10.9499 9.09833 11.4313 8.38187 12.1299 8.04228L12.1275 8.03638C13.3975 7.53292 14.821 7.13541 16.2531 6.8278C15.0778 6.64642 12.9765 6.3324 10.393 5.95762Z" fill="url(#paint19_radial_20020_4022)"/>
<path fill-rule="evenodd" clip-rule="evenodd" d="M10.393 5.95762C8.4548 5.78039 7.26645 6.24745 6.8139 6.4698C3.97607 7.55982 1.96191 10.3109 1.96191 13.5325C1.96191 15.3109 2.57575 16.946 3.60309 18.2374L5.30625 16.5081C6.21348 15.587 7.71282 15.633 8.56191 16.608C9.02881 17.1441 9.19401 17.8442 9.06585 18.4958C9.88823 18.0452 10.9527 18.1452 11.6486 18.8285C12.3065 19.4745 12.4742 20.4747 12.1321 21.289C12.7887 21.1484 13.5291 21.3881 14.0728 22.0104C14.61 22.6252 14.7811 23.6337 14.3505 24.3864C14.9887 24.2944 15.6611 24.5344 16.1351 25.0788C16.8328 25.8799 16.8933 27.3112 16.1351 28.0553L14.8338 29.4007L14.9367 29.4904C15.9123 30.3409 17.381 30.2867 18.2913 29.3665C18.6464 29.0076 18.8671 28.5683 18.9556 28.1094C19.8903 28.6713 21.113 28.5393 21.906 27.7395C22.3543 27.2873 22.5852 26.7048 22.6033 26.1184C23.4683 26.4442 24.4773 26.2524 25.164 25.5598C25.9193 24.7979 26.0575 23.666 25.6 22.7685C26.2661 22.8575 26.9624 22.6445 27.4709 22.1369C28.3842 21.2254 28.3349 19.7312 27.3636 18.8819L27.3499 18.8699C27.348 18.8716 27.346 18.8733 27.3441 18.875L18.2507 10.914C18.0684 10.7543 17.8337 10.6664 17.5961 10.7137C16.9756 10.8372 15.9363 11.18 15.057 11.4699L15.057 11.47C14.8504 11.5381 14.6527 11.6033 14.4713 11.662L14.4678 11.6632C14.2488 11.7341 14.0382 11.8023 13.8403 11.8655C13.5949 11.9663 13.3263 12.0219 13.0446 12.0219C11.8877 12.0219 10.9499 11.0841 10.9499 9.92723C10.9499 9.09833 11.4313 8.38187 12.1299 8.04228L12.1275 8.03638C13.3975 7.53292 14.821 7.13541 16.2531 6.8278C15.0778 6.64642 12.9765 6.3324 10.393 5.95762Z" fill="url(#paint20_radial_20020_4022)"/>
<path d="M3.40671 21.259C2.68443 20.3903 2.73809 19.1157 3.53081 18.3108L5.30625 16.5081C6.21348 15.587 7.71282 15.633 8.56191 16.608C9.3334 17.4938 9.28117 18.8274 8.44277 19.6502L6.64156 21.5158C5.7241 22.4162 4.22859 22.2474 3.40671 21.259Z" fill="url(#paint21_linear_20020_4022)"/>
<path d="M3.40671 21.259C2.68443 20.3903 2.73809 19.1157 3.53081 18.3108L5.30625 16.5081C6.21348 15.587 7.71282 15.633 8.56191 16.608C9.3334 17.4938 9.28117 18.8274 8.44277 19.6502L6.64156 21.5158C5.7241 22.4162 4.22859 22.2474 3.40671 21.259Z" fill="url(#paint22_linear_20020_4022)"/>
<path d="M3.40671 21.259C2.68443 20.3903 2.73809 19.1157 3.53081 18.3108L5.30625 16.5081C6.21348 15.587 7.71282 15.633 8.56191 16.608C9.3334 17.4938 9.28117 18.8274 8.44277 19.6502L6.64156 21.5158C5.7241 22.4162 4.22859 22.2474 3.40671 21.259Z" fill="url(#paint23_radial_20020_4022)"/>
<path d="M3.40671 21.259C2.68443 20.3903 2.73809 19.1157 3.53081 18.3108L5.30625 16.5081C6.21348 15.587 7.71282 15.633 8.56191 16.608C9.3334 17.4938 9.28117 18.8274 8.44277 19.6502L6.64156 21.5158C5.7241 22.4162 4.22859 22.2474 3.40671 21.259Z" fill="url(#paint24_radial_20020_4022)"/>
<path d="M3.40671 21.259C2.68443 20.3903 2.73809 19.1157 3.53081 18.3108L5.30625 16.5081C6.21348 15.587 7.71282 15.633 8.56191 16.608C9.3334 17.4938 9.28117 18.8274 8.44277 19.6502L6.64156 21.5158C5.7241 22.4162 4.22859 22.2474 3.40671 21.259Z" fill="url(#paint25_linear_20020_4022)"/>
<path d="M6.00487 24.5293C5.16903 23.6964 5.16107 22.3453 5.98704 21.5026L8.5549 18.8827C9.39102 18.0297 10.7963 17.9916 11.6486 18.8285C12.504 19.6683 12.5306 21.107 11.6858 21.9574L9.10092 24.626C8.26349 25.4689 6.84654 25.368 6.00487 24.5293Z" fill="url(#paint26_linear_20020_4022)"/>
<path d="M6.00487 24.5293C5.16903 23.6964 5.16107 22.3453 5.98704 21.5026L8.5549 18.8827C9.39102 18.0297 10.7963 17.9916 11.6486 18.8285C12.504 19.6683 12.5306 21.107 11.6858 21.9574L9.10092 24.626C8.26349 25.4689 6.84654 25.368 6.00487 24.5293Z" fill="url(#paint27_linear_20020_4022)"/>
<path d="M6.00487 24.5293C5.16903 23.6964 5.16107 22.3453 5.98704 21.5026L8.5549 18.8827C9.39102 18.0297 10.7963 17.9916 11.6486 18.8285C12.504 19.6683 12.5306 21.107 11.6858 21.9574L9.10092 24.626C8.26349 25.4689 6.84654 25.368 6.00487 24.5293Z" fill="url(#paint28_radial_20020_4022)"/>
<path d="M6.00487 24.5293C5.16903 23.6964 5.16107 22.3453 5.98704 21.5026L8.5549 18.8827C9.39102 18.0297 10.7963 17.9916 11.6486 18.8285C12.504 19.6683 12.5306 21.107 11.6858 21.9574L9.10092 24.626C8.26349 25.4689 6.84654 25.368 6.00487 24.5293Z" fill="url(#paint29_radial_20020_4022)"/>
<path d="M6.00487 24.5293C5.16903 23.6964 5.16107 22.3453 5.98704 21.5026L8.5549 18.8827C9.39102 18.0297 10.7963 17.9916 11.6486 18.8285C12.504 19.6683 12.5306 21.107 11.6858 21.9574L9.10092 24.626C8.26349 25.4689 6.84654 25.368 6.00487 24.5293Z" fill="url(#paint30_linear_20020_4022)"/>
<path d="M11.5405 29.2434C10.8873 28.4578 10.8236 27.2051 11.5405 26.4772L13.2584 24.9468C14.0789 24.1137 15.3672 24.197 16.1351 25.0788C16.8328 25.8799 16.8933 27.3112 16.1351 28.0553L14.6467 29.5941C13.7289 30.36 12.2838 30.1373 11.5405 29.2434Z" fill="url(#paint31_linear_20020_4022)"/>
<path d="M11.5405 29.2434C10.8873 28.4578 10.8236 27.2051 11.5405 26.4772L13.2584 24.9468C14.0789 24.1137 15.3672 24.197 16.1351 25.0788C16.8328 25.8799 16.8933 27.3112 16.1351 28.0553L14.6467 29.5941C13.7289 30.36 12.2838 30.1373 11.5405 29.2434Z" fill="url(#paint32_linear_20020_4022)"/>
<path d="M11.5405 29.2434C10.8873 28.4578 10.8236 27.2051 11.5405 26.4772L13.2584 24.9468C14.0789 24.1137 15.3672 24.197 16.1351 25.0788C16.8328 25.8799 16.8933 27.3112 16.1351 28.0553L14.6467 29.5941C13.7289 30.36 12.2838 30.1373 11.5405 29.2434Z" fill="url(#paint33_radial_20020_4022)"/>
<path d="M11.5405 29.2434C10.8873 28.4578 10.8236 27.2051 11.5405 26.4772L13.2584 24.9468C14.0789 24.1137 15.3672 24.197 16.1351 25.0788C16.8328 25.8799 16.8933 27.3112 16.1351 28.0553L14.6467 29.5941C13.7289 30.36 12.2838 30.1373 11.5405 29.2434Z" fill="url(#paint34_radial_20020_4022)"/>
<path d="M11.5405 29.2434C10.8873 28.4578 10.8236 27.2051 11.5405 26.4772L13.2584 24.9468C14.0789 24.1137 15.3672 24.197 16.1351 25.0788C16.8328 25.8799 16.8933 27.3112 16.1351 28.0553L14.6467 29.5941C13.7289 30.36 12.2838 30.1373 11.5405 29.2434Z" fill="url(#paint35_linear_20020_4022)"/>
<path d="M9.02385 27.0593C8.26742 26.3029 7.954 25.1221 8.71043 24.3657L11.2674 21.7621C12.0239 21.0057 13.2652 21.0862 14.0728 22.0104C14.7027 22.7313 14.8292 23.9932 14.0728 24.7497L11.7631 27.0593C11.1512 27.7642 9.78027 27.8158 9.02385 27.0593Z" fill="url(#paint36_linear_20020_4022)"/>
<path d="M9.02385 27.0593C8.26742 26.3029 7.954 25.1221 8.71043 24.3657L11.2674 21.7621C12.0239 21.0057 13.2652 21.0862 14.0728 22.0104C14.7027 22.7313 14.8292 23.9932 14.0728 24.7497L11.7631 27.0593C11.1512 27.7642 9.78027 27.8158 9.02385 27.0593Z" fill="url(#paint37_linear_20020_4022)"/>
<path d="M9.02385 27.0593C8.26742 26.3029 7.954 25.1221 8.71043 24.3657L11.2674 21.7621C12.0239 21.0057 13.2652 21.0862 14.0728 22.0104C14.7027 22.7313 14.8292 23.9932 14.0728 24.7497L11.7631 27.0593C11.1512 27.7642 9.78027 27.8158 9.02385 27.0593Z" fill="url(#paint38_radial_20020_4022)"/>
<path d="M9.02385 27.0593C8.26742 26.3029 7.954 25.1221 8.71043 24.3657L11.2674 21.7621C12.0239 21.0057 13.2652 21.0862 14.0728 22.0104C14.7027 22.7313 14.8292 23.9932 14.0728 24.7497L11.7631 27.0593C11.1512 27.7642 9.78027 27.8158 9.02385 27.0593Z" fill="url(#paint39_radial_20020_4022)"/>
<path d="M9.02385 27.0593C8.26742 26.3029 7.954 25.1221 8.71043 24.3657L11.2674 21.7621C12.0239 21.0057 13.2652 21.0862 14.0728 22.0104C14.7027 22.7313 14.8292 23.9932 14.0728 24.7497L11.7631 27.0593C11.1512 27.7642 9.78027 27.8158 9.02385 27.0593Z" fill="url(#paint40_linear_20020_4022)"/>
<path d="M12.1275 8.03638L12.1299 8.04228C11.4313 8.38187 10.9499 9.09833 10.9499 9.92723C10.9499 11.0841 11.8877 12.0219 13.0446 12.0219C13.3263 12.0219 13.5949 11.9663 13.8403 11.8655C14.0382 11.8023 14.2488 11.7341 14.4678 11.6632L14.4713 11.662C15.425 11.353 16.8299 10.8662 17.5961 10.7137C17.8337 10.6664 18.0684 10.7543 18.2507 10.914L27.3441 18.875C28.9899 17.4291 30.0892 15.4597 30.0892 13.1768C30.0892 9.19347 26.935 5.96436 22.8201 5.96436C19.9985 6.10386 15.5166 6.69288 12.1275 8.03638Z" fill="#FBB439"/>
<path d="M12.1275 8.03638L12.1299 8.04228C11.4313 8.38187 10.9499 9.09833 10.9499 9.92723C10.9499 11.0841 11.8877 12.0219 13.0446 12.0219C13.3263 12.0219 13.5949 11.9663 13.8403 11.8655C14.0382 11.8023 14.2488 11.7341 14.4678 11.6632L14.4713 11.662C15.425 11.353 16.8299 10.8662 17.5961 10.7137C17.8337 10.6664 18.0684 10.7543 18.2507 10.914L27.3441 18.875C28.9899 17.4291 30.0892 15.4597 30.0892 13.1768C30.0892 9.19347 26.935 5.96436 22.8201 5.96436C19.9985 6.10386 15.5166 6.69288 12.1275 8.03638Z" fill="url(#paint41_radial_20020_4022)"/>
<path d="M12.1275 8.03638L12.1299 8.04228C11.4313 8.38187 10.9499 9.09833 10.9499 9.92723C10.9499 11.0841 11.8877 12.0219 13.0446 12.0219C13.3263 12.0219 13.5949 11.9663 13.8403 11.8655C14.0382 11.8023 14.2488 11.7341 14.4678 11.6632L14.4713 11.662C15.425 11.353 16.8299 10.8662 17.5961 10.7137C17.8337 10.6664 18.0684 10.7543 18.2507 10.914L27.3441 18.875C28.9899 17.4291 30.0892 15.4597 30.0892 13.1768C30.0892 9.19347 26.935 5.96436 22.8201 5.96436C19.9985 6.10386 15.5166 6.69288 12.1275 8.03638Z" fill="url(#paint42_radial_20020_4022)"/>
<path d="M12.1275 8.03638L12.1299 8.04228C11.4313 8.38187 10.9499 9.09833 10.9499 9.92723C10.9499 11.0841 11.8877 12.0219 13.0446 12.0219C13.3263 12.0219 13.5949 11.9663 13.8403 11.8655C14.0382 11.8023 14.2488 11.7341 14.4678 11.6632L14.4713 11.662C15.425 11.353 16.8299 10.8662 17.5961 10.7137C17.8337 10.6664 18.0684 10.7543 18.2507 10.914L27.3441 18.875C28.9899 17.4291 30.0892 15.4597 30.0892 13.1768C30.0892 9.19347 26.935 5.96436 22.8201 5.96436C19.9985 6.10386 15.5166 6.69288 12.1275 8.03638Z" fill="url(#paint43_radial_20020_4022)"/>
<path d="M12.1275 8.03638L12.1299 8.04228C11.4313 8.38187 10.9499 9.09833 10.9499 9.92723C10.9499 11.0841 11.8877 12.0219 13.0446 12.0219C13.3263 12.0219 13.5949 11.9663 13.8403 11.8655C14.0382 11.8023 14.2488 11.7341 14.4678 11.6632L14.4713 11.662C15.425 11.353 16.8299 10.8662 17.5961 10.7137C17.8337 10.6664 18.0684 10.7543 18.2507 10.914L27.3441 18.875C28.9899 17.4291 30.0892 15.4597 30.0892 13.1768C30.0892 9.19347 26.935 5.96436 22.8201 5.96436C19.9985 6.10386 15.5166 6.69288 12.1275 8.03638Z" fill="url(#paint44_radial_20020_4022)"/>
<path d="M12.1275 8.03638L12.1299 8.04228C11.4313 8.38187 10.9499 9.09833 10.9499 9.92723C10.9499 11.0841 11.8877 12.0219 13.0446 12.0219C13.3263 12.0219 13.5949 11.9663 13.8403 11.8655C14.0382 11.8023 14.2488 11.7341 14.4678 11.6632L14.4713 11.662C15.425 11.353 16.8299 10.8662 17.5961 10.7137C17.8337 10.6664 18.0684 10.7543 18.2507 10.914L27.3441 18.875C28.9899 17.4291 30.0892 15.4597 30.0892 13.1768C30.0892 9.19347 26.935 5.96436 22.8201 5.96436C19.9985 6.10386 15.5166 6.69288 12.1275 8.03638Z" fill="url(#paint45_radial_20020_4022)"/>
<path d="M12.1275 8.03638L12.1299 8.04228C11.4313 8.38187 10.9499 9.09833 10.9499 9.92723C10.9499 11.0841 11.8877 12.0219 13.0446 12.0219C13.3263 12.0219 13.5949 11.9663 13.8403 11.8655C14.0382 11.8023 14.2488 11.7341 14.4678 11.6632L14.4713 11.662C15.425 11.353 16.8299 10.8662 17.5961 10.7137C17.8337 10.6664 18.0684 10.7543 18.2507 10.914L27.3441 18.875C28.9899 17.4291 30.0892 15.4597 30.0892 13.1768C30.0892 9.19347 26.935 5.96436 22.8201 5.96436C19.9985 6.10386 15.5166 6.69288 12.1275 8.03638Z" fill="url(#paint46_radial_20020_4022)"/>
<path d="M12.1275 8.03638L12.1299 8.04228C11.4313 8.38187 10.9499 9.09833 10.9499 9.92723C10.9499 11.0841 11.8877 12.0219 13.0446 12.0219C13.3263 12.0219 13.5949 11.9663 13.8403 11.8655C14.0382 11.8023 14.2488 11.7341 14.4678 11.6632L14.4713 11.662C15.425 11.353 16.8299 10.8662 17.5961 10.7137C17.8337 10.6664 18.0684 10.7543 18.2507 10.914L27.3441 18.875C28.9899 17.4291 30.0892 15.4597 30.0892 13.1768C30.0892 9.19347 26.935 5.96436 22.8201 5.96436C19.9985 6.10386 15.5166 6.69288 12.1275 8.03638Z" fill="url(#paint47_radial_20020_4022)"/>
<path d="M12.1275 8.03638L12.1299 8.04228C11.4313 8.38187 10.9499 9.09833 10.9499 9.92723C10.9499 11.0841 11.8877 12.0219 13.0446 12.0219C13.3263 12.0219 13.5949 11.9663 13.8403 11.8655C14.0382 11.8023 14.2488 11.7341 14.4678 11.6632L14.4713 11.662C15.425 11.353 16.8299 10.8662 17.5961 10.7137C17.8337 10.6664 18.0684 10.7543 18.2507 10.914L27.3441 18.875C28.9899 17.4291 30.0892 15.4597 30.0892 13.1768C30.0892 9.19347 26.935 5.96436 22.8201 5.96436C19.9985 6.10386 15.5166 6.69288 12.1275 8.03638Z" fill="url(#paint48_radial_20020_4022)"/>
<path d="M12.1275 8.03638L12.1299 8.04228C11.4313 8.38187 10.9499 9.09833 10.9499 9.92723C10.9499 11.0841 11.8877 12.0219 13.0446 12.0219C13.3263 12.0219 13.5949 11.9663 13.8403 11.8655C14.0382 11.8023 14.2488 11.7341 14.4678 11.6632L14.4713 11.662C15.425 11.353 16.8299 10.8662 17.5961 10.7137C17.8337 10.6664 18.0684 10.7543 18.2507 10.914L27.3441 18.875C28.9899 17.4291 30.0892 15.4597 30.0892 13.1768C30.0892 9.19347 26.935 5.96436 22.8201 5.96436C19.9985 6.10386 15.5166 6.69288 12.1275 8.03638Z" fill="url(#paint49_radial_20020_4022)"/>
</g>
<defs>
<linearGradient id="paint0_linear_20020_4022" x1="22.5883" y1="14.0318" x2="15.9008" y2="23.8443" gradientUnits="userSpaceOnUse">
<stop stop-color="#FFD741"/>
<stop offset="1" stop-color="#FFBE37"/>
</linearGradient>
<radialGradient id="paint1_radial_20020_4022" cx="0" cy="0" r="1" gradientUnits="userSpaceOnUse" gradientTransform="translate(19.9633 10.4693) rotate(122.645) scale(4.75041 6.60552)">
<stop stop-color="#FFDC38"/>
<stop offset="1" stop-color="#FFDC38" stop-opacity="0"/>
</radialGradient>
<radialGradient id="paint2_radial_20020_4022" cx="0" cy="0" r="1" gradientUnits="userSpaceOnUse" gradientTransform="translate(12 10.5) rotate(-23.9625) scale(4.92443 4.76523)">
<stop offset="0.21875" stop-color="#D77A15"/>
<stop offset="1" stop-color="#FFD83D" stop-opacity="0"/>
</radialGradient>
<radialGradient id="paint3_radial_20020_4022" cx="0" cy="0" r="1" gradientUnits="userSpaceOnUse" gradientTransform="translate(17.5 9) rotate(-25.2011) scale(9.39415 2.75915)">
<stop offset="0.21875" stop-color="#D77A15"/>
<stop offset="1" stop-color="#FFD83D" stop-opacity="0"/>
</radialGradient>
<radialGradient id="paint4_radial_20020_4022" cx="0" cy="0" r="1" gradientUnits="userSpaceOnUse" gradientTransform="translate(27.5 27.5817) rotate(60.9454) scale(5.14781 7.29053)">
<stop stop-color="#F48E5A"/>
<stop offset="1" stop-color="#F48E5A" stop-opacity="0"/>
</radialGradient>
<radialGradient id="paint5_radial_20020_4022" cx="0" cy="0" r="1" gradientUnits="userSpaceOnUse" gradientTransform="translate(24 31.5817) rotate(63.435) scale(6.7082 3.16622)">
<stop stop-color="#F48E5A"/>
<stop offset="1" stop-color="#F48E5A" stop-opacity="0"/>
</radialGradient>
<radialGradient id="paint6_radial_20020_4022" cx="0" cy="0" r="1" gradientUnits="userSpaceOnUse" gradientTransform="translate(24.4633 27.1135) rotate(-134.193) scale(6.2762 1.71453)">
<stop stop-color="#F48E5A"/>
<stop offset="1" stop-color="#F48E5A" stop-opacity="0"/>
</radialGradient>
<radialGradient id="paint7_radial_20020_4022" cx="0" cy="0" r="1" gradientUnits="userSpaceOnUse" gradientTransform="translate(20.0883 28.9573) rotate(-133.968) scale(4.90635 1.55572)">
<stop stop-color="#F48E5A"/>
<stop offset="1" stop-color="#F48E5A" stop-opacity="0"/>
</radialGradient>
<radialGradient id="paint8_radial_20020_4022" cx="0" cy="0" r="1" gradientUnits="userSpaceOnUse" gradientTransform="translate(16.682 30.926) rotate(-139.295) scale(5.60631 1.64332)">
<stop stop-color="#F48E5A"/>
<stop offset="1" stop-color="#F48E5A" stop-opacity="0"/>
</radialGradient>
<radialGradient id="paint9_radial_20020_4022" cx="0" cy="0" r="1" gradientUnits="userSpaceOnUse" gradientTransform="translate(2 16) rotate(-21.4477) scale(15.0416 25.4128)">
<stop stop-color="#D77A15"/>
<stop offset="0.688636" stop-color="#FFD83D" stop-opacity="0"/>
</radialGradient>
<radialGradient id="paint10_radial_20020_4022" cx="0" cy="0" r="1" gradientUnits="userSpaceOnUse" gradientTransform="translate(24.5 18.0817) rotate(-135) scale(8.48528 2.66683)">
<stop offset="0.0630782" stop-color="#FFE746"/>
<stop offset="0.882148" stop-color="#FFE746" stop-opacity="0"/>
</radialGradient>
<radialGradient id="paint11_radial_20020_4022" cx="0" cy="0" r="1" gradientUnits="userSpaceOnUse" gradientTransform="translate(22 21.5817) rotate(-135) scale(5.65685 1.7129)">
<stop offset="0.0630782" stop-color="#FFE746"/>
<stop offset="0.882148" stop-color="#FFE746" stop-opacity="0"/>
</radialGradient>
<radialGradient id="paint12_radial_20020_4022" cx="0" cy="0" r="1" gradientUnits="userSpaceOnUse" gradientTransform="translate(20 25.0817) rotate(-135) scale(4.94975 1.59321)">
<stop stop-color="#FFE746"/>
<stop offset="0.882148" stop-color="#FFE746" stop-opacity="0"/>
</radialGradient>
<radialGradient id="paint13_radial_20020_4022" cx="0" cy="0" r="1" gradientUnits="userSpaceOnUse" gradientTransform="translate(17 27.5817) rotate(-127.875) scale(5.70088 1.82754)">
<stop stop-color="#FFE746"/>
<stop offset="0.882148" stop-color="#FFE746" stop-opacity="0"/>
</radialGradient>
<radialGradient id="paint14_radial_20020_4022" cx="0" cy="0" r="1" gradientUnits="userSpaceOnUse" gradientTransform="translate(27.057 23.051) rotate(-138.778) scale(4.69479 1.28252)">
<stop stop-color="#F48E5A"/>
<stop offset="1" stop-color="#F48E5A" stop-opacity="0"/>
</radialGradient>
<radialGradient id="paint15_radial_20020_4022" cx="0" cy="0" r="1" gradientUnits="userSpaceOnUse" gradientTransform="translate(30 24.0817) rotate(66.0375) scale(4.92443)">
<stop stop-color="#F48E5A"/>
<stop offset="1" stop-color="#F48E5A" stop-opacity="0"/>
</radialGradient>
<radialGradient id="paint16_radial_20020_4022" cx="0" cy="0" r="1" gradientUnits="userSpaceOnUse" gradientTransform="translate(30 24.0817) rotate(66.0375) scale(4.92443)">
<stop stop-color="#F48E5A"/>
<stop offset="1" stop-color="#F48E5A" stop-opacity="0"/>
</radialGradient>
<radialGradient id="paint17_radial_20020_4022" cx="0" cy="0" r="1" gradientUnits="userSpaceOnUse" gradientTransform="translate(15.0435 26.7724) rotate(47.1764) scale(6.08583)">
<stop offset="0.107699" stop-color="#CA6D03"/>
<stop offset="0.448933" stop-color="#CA6D03" stop-opacity="0.28"/>
<stop offset="0.663014" stop-color="#FDBF3F" stop-opacity="0"/>
</radialGradient>
<radialGradient id="paint18_radial_20020_4022" cx="0" cy="0" r="1" gradientUnits="userSpaceOnUse" gradientTransform="translate(12.8212 24.1836) rotate(40.4712) scale(6.22806)">
<stop offset="0.138062" stop-color="#CA6D03"/>
<stop offset="0.448933" stop-color="#CA6D03" stop-opacity="0.28"/>
<stop offset="0.663014" stop-color="#FDBF3F" stop-opacity="0"/>
</radialGradient>
<radialGradient id="paint19_radial_20020_4022" cx="0" cy="0" r="1" gradientUnits="userSpaceOnUse" gradientTransform="translate(10.4794 20.9492) rotate(46.1017) scale(5.89453)">
<stop offset="0.139139" stop-color="#CA6D03"/>
<stop offset="0.448933" stop-color="#CA6D03" stop-opacity="0.28"/>
<stop offset="0.663014" stop-color="#FDBF3F" stop-opacity="0"/>
</radialGradient>
<radialGradient id="paint20_radial_20020_4022" cx="0" cy="0" r="1" gradientUnits="userSpaceOnUse" gradientTransform="translate(7.75467 18.7052) rotate(51.4761) scale(5.27543)">
<stop offset="0.18617" stop-color="#CA6D03"/>
<stop offset="0.379135" stop-color="#CA6D03" stop-opacity="0.28"/>
<stop offset="0.663014" stop-color="#FDBF3F" stop-opacity="0"/>
</radialGradient>
<linearGradient id="paint21_linear_20020_4022" x1="7.68195" y1="17.1569" x2="3.3382" y2="21.3444" gradientUnits="userSpaceOnUse">
<stop stop-color="#FFBC41"/>
<stop offset="1" stop-color="#E69429"/>
</linearGradient>
<linearGradient id="paint22_linear_20020_4022" x1="7.29132" y1="21.1726" x2="6.32257" y2="20.1413" gradientUnits="userSpaceOnUse">
<stop stop-color="#E08407"/>
<stop offset="1" stop-color="#E08407" stop-opacity="0"/>
</linearGradient>
<radialGradient id="paint23_radial_20020_4022" cx="0" cy="0" r="1" gradientUnits="userSpaceOnUse" gradientTransform="translate(5.2757 22.8132) rotate(-88.8767) scale(3.18811 2.88295)">
<stop stop-color="#DA725B"/>
<stop offset="1" stop-color="#DA725B" stop-opacity="0"/>
</radialGradient>
<radialGradient id="paint24_radial_20020_4022" cx="0" cy="0" r="1" gradientUnits="userSpaceOnUse" gradientTransform="translate(8.51007 16.4382) rotate(136.229) scale(2.5749 2.49023)">
<stop stop-color="#FFE43E"/>
<stop offset="1" stop-color="#FFE43E" stop-opacity="0"/>
</radialGradient>
<linearGradient id="paint25_linear_20020_4022" x1="9.10776" y1="22.9942" x2="4.59761" y2="17.6718" gradientUnits="userSpaceOnUse">
<stop offset="0.415573" stop-color="#CA6D03"/>
<stop offset="0.535716" stop-color="#CA6D03" stop-opacity="0.28"/>
<stop offset="0.663014" stop-color="#FDBF3F" stop-opacity="0"/>
</linearGradient>
<linearGradient id="paint26_linear_20020_4022" x1="10.7131" y1="19.6854" x2="5.86255" y2="24.3606" gradientUnits="userSpaceOnUse">
<stop stop-color="#FFBC41"/>
<stop offset="1" stop-color="#E69429"/>
</linearGradient>
<linearGradient id="paint27_linear_20020_4022" x1="10.277" y1="24.1696" x2="9.1952" y2="23.0182" gradientUnits="userSpaceOnUse">
<stop stop-color="#E08407"/>
<stop offset="1" stop-color="#E08407" stop-opacity="0"/>
</linearGradient>
<radialGradient id="paint28_radial_20020_4022" cx="0" cy="0" r="1" gradientUnits="userSpaceOnUse" gradientTransform="translate(7.55695 25.8444) rotate(-83.0945) scale(4.15863 4.91442)">
<stop stop-color="#E8766E"/>
<stop offset="1" stop-color="#E8766E" stop-opacity="0"/>
</radialGradient>
<radialGradient id="paint29_radial_20020_4022" cx="0" cy="0" r="1" gradientUnits="userSpaceOnUse" gradientTransform="translate(11.3069 19.1881) rotate(136.026) scale(2.425 2.34528)">
<stop stop-color="#FFE43E"/>
<stop offset="1" stop-color="#FFE43E" stop-opacity="0"/>
</radialGradient>
<linearGradient id="paint30_linear_20020_4022" x1="11.6023" y1="25.2104" x2="7.2686" y2="20.2612" gradientUnits="userSpaceOnUse">
<stop offset="0.39276" stop-color="#CA6D03"/>
<stop offset="0.535716" stop-color="#CA6D03" stop-opacity="0.28"/>
<stop offset="0.663014" stop-color="#FDBF3F" stop-opacity="0"/>
</linearGradient>
<linearGradient id="paint31_linear_20020_4022" x1="15.3828" y1="25.5596" x2="11.4319" y2="29.3735" gradientUnits="userSpaceOnUse">
<stop stop-color="#FFBC41"/>
<stop offset="1" stop-color="#E69429"/>
</linearGradient>
<linearGradient id="paint32_linear_20020_4022" x1="12.0569" y1="26.1256" x2="13.462" y2="27.0338" gradientUnits="userSpaceOnUse">
<stop offset="0.155618" stop-color="#E08407"/>
<stop offset="1" stop-color="#E08407" stop-opacity="0"/>
</linearGradient>
<radialGradient id="paint33_radial_20020_4022" cx="0" cy="0" r="1" gradientUnits="userSpaceOnUse" gradientTransform="translate(12.7757 30.8444) rotate(-84.1036) scale(3.65034 4.32025)">
<stop stop-color="#E8766E"/>
<stop offset="1" stop-color="#E8766E" stop-opacity="0"/>
</radialGradient>
<radialGradient id="paint34_radial_20020_4022" cx="0" cy="0" r="1" gradientUnits="userSpaceOnUse" gradientTransform="translate(15.8672 25.1546) rotate(136.071) scale(1.97669 1.91159)">
<stop stop-color="#FFE43E"/>
<stop offset="1" stop-color="#FFE43E" stop-opacity="0"/>
</radialGradient>
<linearGradient id="paint35_linear_20020_4022" x1="11.0264" y1="25.3824" x2="13.6607" y2="28.0238" gradientUnits="userSpaceOnUse">
<stop offset="0.362477" stop-color="#CA6D03"/>
<stop offset="0.535716" stop-color="#CA6D03" stop-opacity="0.28"/>
<stop offset="0.663014" stop-color="#FDBF3F" stop-opacity="0"/>
</linearGradient>
<linearGradient id="paint36_linear_20020_4022" x1="13.143" y1="22.5817" x2="8.73042" y2="26.8427" gradientUnits="userSpaceOnUse">
<stop stop-color="#FFBC41"/>
<stop offset="1" stop-color="#E69429"/>
</linearGradient>
<linearGradient id="paint37_linear_20020_4022" x1="13.0257" y1="26.9069" x2="12.1055" y2="25.921" gradientUnits="userSpaceOnUse">
<stop stop-color="#E08407"/>
<stop offset="1" stop-color="#E08407" stop-opacity="0"/>
</linearGradient>
<radialGradient id="paint38_radial_20020_4022" cx="0" cy="0" r="1" gradientUnits="userSpaceOnUse" gradientTransform="translate(10.2667 28.1842) rotate(-83.0818) scale(3.78297 4.47857)">
<stop stop-color="#E8766E"/>
<stop offset="1" stop-color="#E8766E" stop-opacity="0"/>
</radialGradient>
<radialGradient id="paint39_radial_20020_4022" cx="0" cy="0" r="1" gradientUnits="userSpaceOnUse" gradientTransform="translate(13.6842 22.1294) rotate(136.08) scale(2.20801 2.13528)">
<stop stop-color="#FFE43E"/>
<stop offset="1" stop-color="#FFE43E" stop-opacity="0"/>
</radialGradient>
<linearGradient id="paint40_linear_20020_4022" x1="14.2192" y1="28.8805" x2="10.0144" y2="23.0977" gradientUnits="userSpaceOnUse">
<stop offset="0.408711" stop-color="#CA6D03"/>
<stop offset="0.535716" stop-color="#CA6D03" stop-opacity="0.28"/>
<stop offset="0.663014" stop-color="#FDBF3F" stop-opacity="0"/>
</linearGradient>
<radialGradient id="paint41_radial_20020_4022" cx="0" cy="0" r="1" gradientUnits="userSpaceOnUse" gradientTransform="translate(19.1776 17.0944) rotate(-33.6901) scale(12.1285 19.0621)">
<stop offset="0.360862" stop-color="#FFE949" stop-opacity="0"/>
<stop offset="1" stop-color="#FFE949"/>
</radialGradient>
<radialGradient id="paint42_radial_20020_4022" cx="0" cy="0" r="1" gradientUnits="userSpaceOnUse" gradientTransform="translate(10.9499 10.7346) rotate(-21.4027) scale(4.32093 6.93849)">
<stop stop-color="#EE9226"/>
<stop offset="1" stop-color="#EE9226" stop-opacity="0"/>
</radialGradient>
<radialGradient id="paint43_radial_20020_4022" cx="0" cy="0" r="1" gradientUnits="userSpaceOnUse" gradientTransform="translate(18.7046 17.3046) rotate(-38.5505) scale(8.6025 8.20943)">
<stop stop-color="#F7A91E"/>
<stop offset="1" stop-color="#F7A91E" stop-opacity="0"/>
</radialGradient>
<radialGradient id="paint44_radial_20020_4022" cx="0" cy="0" r="1" gradientUnits="userSpaceOnUse" gradientTransform="translate(20.2288 15.5176) rotate(-35.9316) scale(11.5542 18.0776)">
<stop offset="0.660528" stop-color="#FFEA49" stop-opacity="0"/>
<stop offset="1" stop-color="#FFEA49"/>
</radialGradient>
<radialGradient id="paint45_radial_20020_4022" cx="0" cy="0" r="1" gradientUnits="userSpaceOnUse" gradientTransform="translate(14.0002 9.5) rotate(-15.9454) scale(14.5602 1.84773)">
<stop offset="0.0657336" stop-color="#FFE746"/>
<stop offset="0.882148" stop-color="#FFE746" stop-opacity="0"/>
</radialGradient>
<radialGradient id="paint46_radial_20020_4022" cx="0" cy="0" r="1" gradientUnits="userSpaceOnUse" gradientTransform="translate(22.0002 7.5) rotate(74.0546) scale(7.28011 19.6652)">
<stop stop-color="#FDC73F"/>
<stop offset="0.195165" stop-color="#FDC73F" stop-opacity="0"/>
</radialGradient>
<radialGradient id="paint47_radial_20020_4022" cx="0" cy="0" r="1" gradientUnits="userSpaceOnUse" gradientTransform="translate(21.5002 14.5) rotate(141.34) scale(6.40312 5.84073)">
<stop offset="0.267528" stop-color="#FAAB40"/>
<stop offset="0.882148" stop-color="#FAAB40" stop-opacity="0"/>
</radialGradient>
<radialGradient id="paint48_radial_20020_4022" cx="0" cy="0" r="1" gradientUnits="userSpaceOnUse" gradientTransform="translate(11.5002 11) rotate(149.036) scale(2.91548)">
<stop offset="0.0657336" stop-color="#F4A42F"/>
<stop offset="0.882148" stop-color="#F4A42F" stop-opacity="0"/>
</radialGradient>
<radialGradient id="paint49_radial_20020_4022" cx="0" cy="0" r="1" gradientUnits="userSpaceOnUse" gradientTransform="translate(21.5889 15.5774) rotate(43.9634) scale(15.681 5.07311)">
<stop offset="0.240163" stop-color="#CA6D03"/>
<stop offset="0.448933" stop-color="#CA6D03" stop-opacity="0.28"/>
<stop offset="0.663014" stop-color="#FDBF3F" stop-opacity="0"/>
</radialGradient>
<clipPath id="clip0_20020_4022">
<rect width="32" height="32" fill="white"/>
</clipPath>
</defs>
</svg>
