<svg width="76" height="76" viewBox="0 0 76 76" fill="none" xmlns="http://www.w3.org/2000/svg">
<path d="M11.543 22.0875C11.543 19.9715 13.1985 18.2871 15.1646 17.5052C17.5323 16.5635 20.1287 14.6385 21.73 10.6742C22.5754 8.58156 24.4334 6.93359 26.6903 6.93359H44.9814C47.2852 6.93359 49.1635 8.6584 50.0975 10.7644C51.6716 14.3134 54.3679 16.4715 56.7629 17.6376C58.6369 18.5499 60.2348 20.3046 60.2348 22.3888V29.9368C60.2348 46.2202 55.139 56.0497 41.7109 67.3323C39.0102 69.6016 35.1024 69.7213 32.2869 67.5961C19.9478 58.2819 11.543 47.2502 11.543 29.9368V22.0875Z" fill="#378AED"/>
<path d="M11.543 22.0875C11.543 19.9715 13.1985 18.2871 15.1646 17.5052C17.5323 16.5635 20.1287 14.6385 21.73 10.6742C22.5754 8.58156 24.4334 6.93359 26.6903 6.93359H44.9814C47.2852 6.93359 49.1635 8.6584 50.0975 10.7644C51.6716 14.3134 54.3679 16.4715 56.7629 17.6376C58.6369 18.5499 60.2348 20.3046 60.2348 22.3888V29.9368C60.2348 46.2202 55.139 56.0497 41.7109 67.3323C39.0102 69.6016 35.1024 69.7213 32.2869 67.5961C19.9478 58.2819 11.543 47.2502 11.543 29.9368V22.0875Z" fill="url(#paint0_radial_108_768)"/>
<path d="M11.543 22.0875C11.543 19.9715 13.1985 18.2871 15.1646 17.5052C17.5323 16.5635 20.1287 14.6385 21.73 10.6742C22.5754 8.58156 24.4334 6.93359 26.6903 6.93359H44.9814C47.2852 6.93359 49.1635 8.6584 50.0975 10.7644C51.6716 14.3134 54.3679 16.4715 56.7629 17.6376C58.6369 18.5499 60.2348 20.3046 60.2348 22.3888V29.9368C60.2348 46.2202 55.139 56.0497 41.7109 67.3323C39.0102 69.6016 35.1024 69.7213 32.2869 67.5961C19.9478 58.2819 11.543 47.2502 11.543 29.9368V22.0875Z" fill="url(#paint1_radial_108_768)"/>
<path d="M36.8574 69.1152V6.93359H44.9826C47.2863 6.93359 49.1647 8.6584 50.0987 10.7644C51.6727 14.3135 54.369 16.4715 56.764 17.6376C58.6381 18.5499 60.2358 20.3045 60.2358 22.3888V29.9368C60.2358 46.2202 55.1401 56.0497 41.712 67.3323C40.3115 68.509 38.5865 69.1078 36.8574 69.1152Z" fill="#3C88F0" fill-opacity="0.5"/>
<path d="M36.8574 69.0864V6.93359H45.9237C48.2924 6.93359 50.2235 8.6584 51.1839 10.7644C52.8022 14.3135 55.5744 16.4715 58.0369 17.6376C59.9636 18.5499 61.6064 20.3045 61.6064 22.3888V29.9368C61.6064 46.2202 56.3672 56.0497 42.5612 67.3323C40.9287 68.6664 38.8673 69.2576 36.8574 69.0864Z" fill="url(#paint2_radial_108_768)"/>
<path d="M36.8574 69.0864V6.93359H45.9237C48.2924 6.93359 50.2235 8.6584 51.1839 10.7644C52.8022 14.3135 55.5744 16.4715 58.0369 17.6376C59.9636 18.5499 61.6064 20.3045 61.6064 22.3888V29.9368C61.6064 46.2202 56.3672 56.0497 42.5612 67.3323C40.9287 68.6664 38.8673 69.2576 36.8574 69.0864Z" fill="url(#paint3_radial_108_768)"/>
<path d="M36.8574 69.0864V6.93359H45.9237C48.2924 6.93359 50.2235 8.6584 51.1839 10.7644C52.8022 14.3135 55.5744 16.4715 58.0369 17.6376C59.9636 18.5499 61.6064 20.3045 61.6064 22.3888V29.9368C61.6064 46.2202 56.3672 56.0497 42.5612 67.3323C40.9287 68.6664 38.8673 69.2576 36.8574 69.0864Z" fill="url(#paint4_radial_108_768)"/>
<path d="M36.8574 69.0864V6.93359H45.9237C48.2924 6.93359 50.2235 8.6584 51.1839 10.7644C52.8022 14.3135 55.5744 16.4715 58.0369 17.6376C59.9636 18.5499 61.6064 20.3045 61.6064 22.3888V29.9368C61.6064 46.2202 56.3672 56.0497 42.5612 67.3323C40.9287 68.6664 38.8673 69.2576 36.8574 69.0864Z" fill="url(#paint5_linear_108_768)"/>
<path d="M36.8574 69.0864V6.93359H45.9237C48.2924 6.93359 50.2235 8.6584 51.1839 10.7644C52.8022 14.3135 55.5744 16.4715 58.0369 17.6376C59.9636 18.5499 61.6064 20.3045 61.6064 22.3888V29.9368C61.6064 46.2202 56.3672 56.0497 42.5612 67.3323C40.9287 68.6664 38.8673 69.2576 36.8574 69.0864Z" fill="url(#paint6_linear_108_768)"/>
<path fill-rule="evenodd" clip-rule="evenodd" d="M26.6903 5.29297H47.0223C50.1357 5.29297 52.4866 7.54143 53.5038 10.0598C54.9199 13.5655 57.158 15.1867 59.1543 15.9807C61.4711 16.9021 63.8103 19.0467 63.8103 22.0875V29.9367C63.8103 47.9389 55.0017 59.4039 42.4142 68.9055C40.7639 70.1513 38.8076 70.763 36.8563 70.7559C34.9051 70.763 32.9487 70.1513 31.2985 68.9055C18.711 59.4039 9.90234 47.9389 9.90234 29.9367V22.0875C9.90234 19.0467 12.2416 16.9021 14.5583 15.9807C16.5547 15.1867 18.7928 13.5655 20.2088 10.0598C21.2261 7.54143 23.577 5.29297 26.6903 5.29297ZM36.8563 67.4745C38.1156 67.4812 39.3766 67.0873 40.4373 66.2866C52.5281 57.1599 60.5291 46.5614 60.5291 29.9367V22.0875C60.5291 20.8964 59.5573 19.6722 57.9417 19.0296C55.2028 17.9403 52.248 15.7116 50.4614 11.2887C49.788 9.62169 48.4229 8.57422 47.0223 8.57422H26.6903C25.2898 8.57422 23.9246 9.62169 23.2513 11.2887C21.4647 15.7116 18.5098 17.9403 15.771 19.0296C14.1554 19.6722 13.1836 20.8964 13.1836 22.0875V29.9367C13.1836 46.5614 21.1845 57.1599 33.2753 66.2866C34.336 67.0873 35.597 67.4812 36.8563 67.4745Z" fill="url(#paint7_linear_108_768)"/>
<path fill-rule="evenodd" clip-rule="evenodd" d="M26.6903 5.29297H47.0223C50.1357 5.29297 52.4866 7.54143 53.5038 10.0598C54.9199 13.5655 57.158 15.1867 59.1543 15.9807C61.4711 16.9021 63.8103 19.0467 63.8103 22.0875V29.9367C63.8103 47.9389 55.0017 59.4039 42.4142 68.9055C40.7639 70.1513 38.8076 70.763 36.8563 70.7559C34.9051 70.763 32.9487 70.1513 31.2985 68.9055C18.711 59.4039 9.90234 47.9389 9.90234 29.9367V22.0875C9.90234 19.0467 12.2416 16.9021 14.5583 15.9807C16.5547 15.1867 18.7928 13.5655 20.2088 10.0598C21.2261 7.54143 23.577 5.29297 26.6903 5.29297ZM36.8563 67.4745C38.1156 67.4812 39.3766 67.0873 40.4373 66.2866C52.5281 57.1599 60.5291 46.5614 60.5291 29.9367V22.0875C60.5291 20.8964 59.5573 19.6722 57.9417 19.0296C55.2028 17.9403 52.248 15.7116 50.4614 11.2887C49.788 9.62169 48.4229 8.57422 47.0223 8.57422H26.6903C25.2898 8.57422 23.9246 9.62169 23.2513 11.2887C21.4647 15.7116 18.5098 17.9403 15.771 19.0296C14.1554 19.6722 13.1836 20.8964 13.1836 22.0875V29.9367C13.1836 46.5614 21.1845 57.1599 33.2753 66.2866C34.336 67.0873 35.597 67.4812 36.8563 67.4745Z" fill="url(#paint8_radial_108_768)"/>
<path fill-rule="evenodd" clip-rule="evenodd" d="M26.6903 5.29297H47.0223C50.1357 5.29297 52.4866 7.54143 53.5038 10.0598C54.9199 13.5655 57.158 15.1867 59.1543 15.9807C61.4711 16.9021 63.8103 19.0467 63.8103 22.0875V29.9367C63.8103 47.9389 55.0017 59.4039 42.4142 68.9055C40.7639 70.1513 38.8076 70.763 36.8563 70.7559C34.9051 70.763 32.9487 70.1513 31.2985 68.9055C18.711 59.4039 9.90234 47.9389 9.90234 29.9367V22.0875C9.90234 19.0467 12.2416 16.9021 14.5583 15.9807C16.5547 15.1867 18.7928 13.5655 20.2088 10.0598C21.2261 7.54143 23.577 5.29297 26.6903 5.29297ZM36.8563 67.4745C38.1156 67.4812 39.3766 67.0873 40.4373 66.2866C52.5281 57.1599 60.5291 46.5614 60.5291 29.9367V22.0875C60.5291 20.8964 59.5573 19.6722 57.9417 19.0296C55.2028 17.9403 52.248 15.7116 50.4614 11.2887C49.788 9.62169 48.4229 8.57422 47.0223 8.57422H26.6903C25.2898 8.57422 23.9246 9.62169 23.2513 11.2887C21.4647 15.7116 18.5098 17.9403 15.771 19.0296C14.1554 19.6722 13.1836 20.8964 13.1836 22.0875V29.9367C13.1836 46.5614 21.1845 57.1599 33.2753 66.2866C34.336 67.0873 35.597 67.4812 36.8563 67.4745Z" fill="url(#paint9_radial_108_768)"/>
<path fill-rule="evenodd" clip-rule="evenodd" d="M26.6903 5.29297H47.0223C50.1357 5.29297 52.4866 7.54143 53.5038 10.0598C54.9199 13.5655 57.158 15.1867 59.1543 15.9807C61.4711 16.9021 63.8103 19.0467 63.8103 22.0875V29.9367C63.8103 47.9389 55.0017 59.4039 42.4142 68.9055C40.7639 70.1513 38.8076 70.763 36.8563 70.7559C34.9051 70.763 32.9487 70.1513 31.2985 68.9055C18.711 59.4039 9.90234 47.9389 9.90234 29.9367V22.0875C9.90234 19.0467 12.2416 16.9021 14.5583 15.9807C16.5547 15.1867 18.7928 13.5655 20.2088 10.0598C21.2261 7.54143 23.577 5.29297 26.6903 5.29297ZM36.8563 67.4745C38.1156 67.4812 39.3766 67.0873 40.4373 66.2866C52.5281 57.1599 60.5291 46.5614 60.5291 29.9367V22.0875C60.5291 20.8964 59.5573 19.6722 57.9417 19.0296C55.2028 17.9403 52.248 15.7116 50.4614 11.2887C49.788 9.62169 48.4229 8.57422 47.0223 8.57422H26.6903C25.2898 8.57422 23.9246 9.62169 23.2513 11.2887C21.4647 15.7116 18.5098 17.9403 15.771 19.0296C14.1554 19.6722 13.1836 20.8964 13.1836 22.0875V29.9367C13.1836 46.5614 21.1845 57.1599 33.2753 66.2866C34.336 67.0873 35.597 67.4812 36.8563 67.4745Z" fill="url(#paint10_radial_108_768)"/>
<path fill-rule="evenodd" clip-rule="evenodd" d="M26.6903 5.29297H47.0223C50.1357 5.29297 52.4866 7.54143 53.5038 10.0598C54.9199 13.5655 57.158 15.1867 59.1543 15.9807C61.4711 16.9021 63.8103 19.0467 63.8103 22.0875V29.9367C63.8103 47.9389 55.0017 59.4039 42.4142 68.9055C40.7639 70.1513 38.8076 70.763 36.8563 70.7559C34.9051 70.763 32.9487 70.1513 31.2985 68.9055C18.711 59.4039 9.90234 47.9389 9.90234 29.9367V22.0875C9.90234 19.0467 12.2416 16.9021 14.5583 15.9807C16.5547 15.1867 18.7928 13.5655 20.2088 10.0598C21.2261 7.54143 23.577 5.29297 26.6903 5.29297ZM36.8563 67.4745C38.1156 67.4812 39.3766 67.0873 40.4373 66.2866C52.5281 57.1599 60.5291 46.5614 60.5291 29.9367V22.0875C60.5291 20.8964 59.5573 19.6722 57.9417 19.0296C55.2028 17.9403 52.248 15.7116 50.4614 11.2887C49.788 9.62169 48.4229 8.57422 47.0223 8.57422H26.6903C25.2898 8.57422 23.9246 9.62169 23.2513 11.2887C21.4647 15.7116 18.5098 17.9403 15.771 19.0296C14.1554 19.6722 13.1836 20.8964 13.1836 22.0875V29.9367C13.1836 46.5614 21.1845 57.1599 33.2753 66.2866C34.336 67.0873 35.597 67.4812 36.8563 67.4745Z" fill="url(#paint11_radial_108_768)"/>
<path fill-rule="evenodd" clip-rule="evenodd" d="M26.6903 5.29297H47.0223C50.1357 5.29297 52.4866 7.54143 53.5038 10.0598C54.9199 13.5655 57.158 15.1867 59.1543 15.9807C61.4711 16.9021 63.8103 19.0467 63.8103 22.0875V29.9367C63.8103 47.9389 55.0017 59.4039 42.4142 68.9055C40.7639 70.1513 38.8076 70.763 36.8563 70.7559C34.9051 70.763 32.9487 70.1513 31.2985 68.9055C18.711 59.4039 9.90234 47.9389 9.90234 29.9367V22.0875C9.90234 19.0467 12.2416 16.9021 14.5583 15.9807C16.5547 15.1867 18.7928 13.5655 20.2088 10.0598C21.2261 7.54143 23.577 5.29297 26.6903 5.29297ZM36.8563 67.4745C38.1156 67.4812 39.3766 67.0873 40.4373 66.2866C52.5281 57.1599 60.5291 46.5614 60.5291 29.9367V22.0875C60.5291 20.8964 59.5573 19.6722 57.9417 19.0296C55.2028 17.9403 52.248 15.7116 50.4614 11.2887C49.788 9.62169 48.4229 8.57422 47.0223 8.57422H26.6903C25.2898 8.57422 23.9246 9.62169 23.2513 11.2887C21.4647 15.7116 18.5098 17.9403 15.771 19.0296C14.1554 19.6722 13.1836 20.8964 13.1836 22.0875V29.9367C13.1836 46.5614 21.1845 57.1599 33.2753 66.2866C34.336 67.0873 35.597 67.4812 36.8563 67.4745Z" fill="url(#paint12_radial_108_768)"/>
<path fill-rule="evenodd" clip-rule="evenodd" d="M26.6903 5.29297H47.0223C50.1357 5.29297 52.4866 7.54143 53.5038 10.0598C54.9199 13.5655 57.158 15.1867 59.1543 15.9807C61.4711 16.9021 63.8103 19.0467 63.8103 22.0875V29.9367C63.8103 47.9389 55.0017 59.4039 42.4142 68.9055C40.7639 70.1513 38.8076 70.763 36.8563 70.7559C34.9051 70.763 32.9487 70.1513 31.2985 68.9055C18.711 59.4039 9.90234 47.9389 9.90234 29.9367V22.0875C9.90234 19.0467 12.2416 16.9021 14.5583 15.9807C16.5547 15.1867 18.7928 13.5655 20.2088 10.0598C21.2261 7.54143 23.577 5.29297 26.6903 5.29297ZM36.8563 67.4745C38.1156 67.4812 39.3766 67.0873 40.4373 66.2866C52.5281 57.1599 60.5291 46.5614 60.5291 29.9367V22.0875C60.5291 20.8964 59.5573 19.6722 57.9417 19.0296C55.2028 17.9403 52.248 15.7116 50.4614 11.2887C49.788 9.62169 48.4229 8.57422 47.0223 8.57422H26.6903C25.2898 8.57422 23.9246 9.62169 23.2513 11.2887C21.4647 15.7116 18.5098 17.9403 15.771 19.0296C14.1554 19.6722 13.1836 20.8964 13.1836 22.0875V29.9367C13.1836 46.5614 21.1845 57.1599 33.2753 66.2866C34.336 67.0873 35.597 67.4812 36.8563 67.4745Z" fill="url(#paint13_radial_108_768)"/>
<path fill-rule="evenodd" clip-rule="evenodd" d="M26.6903 5.29297H47.0223C50.1357 5.29297 52.4866 7.54143 53.5038 10.0598C54.9199 13.5655 57.158 15.1867 59.1543 15.9807C61.4711 16.9021 63.8103 19.0467 63.8103 22.0875V29.9367C63.8103 47.9389 55.0017 59.4039 42.4142 68.9055C40.7639 70.1513 38.8076 70.763 36.8563 70.7559C34.9051 70.763 32.9487 70.1513 31.2985 68.9055C18.711 59.4039 9.90234 47.9389 9.90234 29.9367V22.0875C9.90234 19.0467 12.2416 16.9021 14.5583 15.9807C16.5547 15.1867 18.7928 13.5655 20.2088 10.0598C21.2261 7.54143 23.577 5.29297 26.6903 5.29297ZM36.8563 67.4745C38.1156 67.4812 39.3766 67.0873 40.4373 66.2866C52.5281 57.1599 60.5291 46.5614 60.5291 29.9367V22.0875C60.5291 20.8964 59.5573 19.6722 57.9417 19.0296C55.2028 17.9403 52.248 15.7116 50.4614 11.2887C49.788 9.62169 48.4229 8.57422 47.0223 8.57422H26.6903C25.2898 8.57422 23.9246 9.62169 23.2513 11.2887C21.4647 15.7116 18.5098 17.9403 15.771 19.0296C14.1554 19.6722 13.1836 20.8964 13.1836 22.0875V29.9367C13.1836 46.5614 21.1845 57.1599 33.2753 66.2866C34.336 67.0873 35.597 67.4812 36.8563 67.4745Z" fill="url(#paint14_radial_108_768)"/>
<path fill-rule="evenodd" clip-rule="evenodd" d="M26.6903 5.29297H47.0223C50.1357 5.29297 52.4866 7.54143 53.5038 10.0598C54.9199 13.5655 57.158 15.1867 59.1543 15.9807C61.4711 16.9021 63.8103 19.0467 63.8103 22.0875V29.9367C63.8103 47.9389 55.0017 59.4039 42.4142 68.9055C40.7639 70.1513 38.8076 70.763 36.8563 70.7559C34.9051 70.763 32.9487 70.1513 31.2985 68.9055C18.711 59.4039 9.90234 47.9389 9.90234 29.9367V22.0875C9.90234 19.0467 12.2416 16.9021 14.5583 15.9807C16.5547 15.1867 18.7928 13.5655 20.2088 10.0598C21.2261 7.54143 23.577 5.29297 26.6903 5.29297ZM36.8563 67.4745C38.1156 67.4812 39.3766 67.0873 40.4373 66.2866C52.5281 57.1599 60.5291 46.5614 60.5291 29.9367V22.0875C60.5291 20.8964 59.5573 19.6722 57.9417 19.0296C55.2028 17.9403 52.248 15.7116 50.4614 11.2887C49.788 9.62169 48.4229 8.57422 47.0223 8.57422H26.6903C25.2898 8.57422 23.9246 9.62169 23.2513 11.2887C21.4647 15.7116 18.5098 17.9403 15.771 19.0296C14.1554 19.6722 13.1836 20.8964 13.1836 22.0875V29.9367C13.1836 46.5614 21.1845 57.1599 33.2753 66.2866C34.336 67.0873 35.597 67.4812 36.8563 67.4745Z" fill="url(#paint15_radial_108_768)"/>
<path fill-rule="evenodd" clip-rule="evenodd" d="M26.6903 5.29297H47.0223C50.1357 5.29297 52.4866 7.54143 53.5038 10.0598C54.9199 13.5655 57.158 15.1867 59.1543 15.9807C61.4711 16.9021 63.8103 19.0467 63.8103 22.0875V29.9367C63.8103 47.9389 55.0017 59.4039 42.4142 68.9055C40.7639 70.1513 38.8076 70.763 36.8563 70.7559C34.9051 70.763 32.9487 70.1513 31.2985 68.9055C18.711 59.4039 9.90234 47.9389 9.90234 29.9367V22.0875C9.90234 19.0467 12.2416 16.9021 14.5583 15.9807C16.5547 15.1867 18.7928 13.5655 20.2088 10.0598C21.2261 7.54143 23.577 5.29297 26.6903 5.29297ZM36.8563 67.4745C38.1156 67.4812 39.3766 67.0873 40.4373 66.2866C52.5281 57.1599 60.5291 46.5614 60.5291 29.9367V22.0875C60.5291 20.8964 59.5573 19.6722 57.9417 19.0296C55.2028 17.9403 52.248 15.7116 50.4614 11.2887C49.788 9.62169 48.4229 8.57422 47.0223 8.57422H26.6903C25.2898 8.57422 23.9246 9.62169 23.2513 11.2887C21.4647 15.7116 18.5098 17.9403 15.771 19.0296C14.1554 19.6722 13.1836 20.8964 13.1836 22.0875V29.9367C13.1836 46.5614 21.1845 57.1599 33.2753 66.2866C34.336 67.0873 35.597 67.4812 36.8563 67.4745Z" fill="url(#paint16_radial_108_768)"/>
<path fill-rule="evenodd" clip-rule="evenodd" d="M26.6903 5.29297H47.0223C50.1357 5.29297 52.4866 7.54143 53.5038 10.0598C54.9199 13.5655 57.158 15.1867 59.1543 15.9807C61.4711 16.9021 63.8103 19.0467 63.8103 22.0875V29.9367C63.8103 47.9389 55.0017 59.4039 42.4142 68.9055C40.7639 70.1513 38.8076 70.763 36.8563 70.7559C34.9051 70.763 32.9487 70.1513 31.2985 68.9055C18.711 59.4039 9.90234 47.9389 9.90234 29.9367V22.0875C9.90234 19.0467 12.2416 16.9021 14.5583 15.9807C16.5547 15.1867 18.7928 13.5655 20.2088 10.0598C21.2261 7.54143 23.577 5.29297 26.6903 5.29297ZM36.8563 67.4745C38.1156 67.4812 39.3766 67.0873 40.4373 66.2866C52.5281 57.1599 60.5291 46.5614 60.5291 29.9367V22.0875C60.5291 20.8964 59.5573 19.6722 57.9417 19.0296C55.2028 17.9403 52.248 15.7116 50.4614 11.2887C49.788 9.62169 48.4229 8.57422 47.0223 8.57422H26.6903C25.2898 8.57422 23.9246 9.62169 23.2513 11.2887C21.4647 15.7116 18.5098 17.9403 15.771 19.0296C14.1554 19.6722 13.1836 20.8964 13.1836 22.0875V29.9367C13.1836 46.5614 21.1845 57.1599 33.2753 66.2866C34.336 67.0873 35.597 67.4812 36.8563 67.4745Z" fill="url(#paint17_radial_108_768)"/>
<path fill-rule="evenodd" clip-rule="evenodd" d="M26.6903 5.29297H47.0223C50.1357 5.29297 52.4866 7.54143 53.5038 10.0598C54.9199 13.5655 57.158 15.1867 59.1543 15.9807C61.4711 16.9021 63.8103 19.0467 63.8103 22.0875V29.9367C63.8103 47.9389 55.0017 59.4039 42.4142 68.9055C40.7639 70.1513 38.8076 70.763 36.8563 70.7559C34.9051 70.763 32.9487 70.1513 31.2985 68.9055C18.711 59.4039 9.90234 47.9389 9.90234 29.9367V22.0875C9.90234 19.0467 12.2416 16.9021 14.5583 15.9807C16.5547 15.1867 18.7928 13.5655 20.2088 10.0598C21.2261 7.54143 23.577 5.29297 26.6903 5.29297ZM36.8563 67.4745C38.1156 67.4812 39.3766 67.0873 40.4373 66.2866C52.5281 57.1599 60.5291 46.5614 60.5291 29.9367V22.0875C60.5291 20.8964 59.5573 19.6722 57.9417 19.0296C55.2028 17.9403 52.248 15.7116 50.4614 11.2887C49.788 9.62169 48.4229 8.57422 47.0223 8.57422H26.6903C25.2898 8.57422 23.9246 9.62169 23.2513 11.2887C21.4647 15.7116 18.5098 17.9403 15.771 19.0296C14.1554 19.6722 13.1836 20.8964 13.1836 22.0875V29.9367C13.1836 46.5614 21.1845 57.1599 33.2753 66.2866C34.336 67.0873 35.597 67.4812 36.8563 67.4745Z" fill="url(#paint18_radial_108_768)"/>
<path fill-rule="evenodd" clip-rule="evenodd" d="M26.6903 5.29297H47.0223C50.1357 5.29297 52.4866 7.54143 53.5038 10.0598C54.9199 13.5655 57.158 15.1867 59.1543 15.9807C61.4711 16.9021 63.8103 19.0467 63.8103 22.0875V29.9367C63.8103 47.9389 55.0017 59.4039 42.4142 68.9055C40.7639 70.1513 38.8076 70.763 36.8563 70.7559C34.9051 70.763 32.9487 70.1513 31.2985 68.9055C18.711 59.4039 9.90234 47.9389 9.90234 29.9367V22.0875C9.90234 19.0467 12.2416 16.9021 14.5583 15.9807C16.5547 15.1867 18.7928 13.5655 20.2088 10.0598C21.2261 7.54143 23.577 5.29297 26.6903 5.29297ZM36.8563 67.4745C38.1156 67.4812 39.3766 67.0873 40.4373 66.2866C52.5281 57.1599 60.5291 46.5614 60.5291 29.9367V22.0875C60.5291 20.8964 59.5573 19.6722 57.9417 19.0296C55.2028 17.9403 52.248 15.7116 50.4614 11.2887C49.788 9.62169 48.4229 8.57422 47.0223 8.57422H26.6903C25.2898 8.57422 23.9246 9.62169 23.2513 11.2887C21.4647 15.7116 18.5098 17.9403 15.771 19.0296C14.1554 19.6722 13.1836 20.8964 13.1836 22.0875V29.9367C13.1836 46.5614 21.1845 57.1599 33.2753 66.2866C34.336 67.0873 35.597 67.4812 36.8563 67.4745Z" fill="url(#paint19_radial_108_768)"/>
<path fill-rule="evenodd" clip-rule="evenodd" d="M26.6903 5.29297H47.0223C50.1357 5.29297 52.4866 7.54143 53.5038 10.0598C54.9199 13.5655 57.158 15.1867 59.1543 15.9807C61.4711 16.9021 63.8103 19.0467 63.8103 22.0875V29.9367C63.8103 47.9389 55.0017 59.4039 42.4142 68.9055C40.7639 70.1513 38.8076 70.763 36.8563 70.7559C34.9051 70.763 32.9487 70.1513 31.2985 68.9055C18.711 59.4039 9.90234 47.9389 9.90234 29.9367V22.0875C9.90234 19.0467 12.2416 16.9021 14.5583 15.9807C16.5547 15.1867 18.7928 13.5655 20.2088 10.0598C21.2261 7.54143 23.577 5.29297 26.6903 5.29297ZM36.8563 67.4745C38.1156 67.4812 39.3766 67.0873 40.4373 66.2866C52.5281 57.1599 60.5291 46.5614 60.5291 29.9367V22.0875C60.5291 20.8964 59.5573 19.6722 57.9417 19.0296C55.2028 17.9403 52.248 15.7116 50.4614 11.2887C49.788 9.62169 48.4229 8.57422 47.0223 8.57422H26.6903C25.2898 8.57422 23.9246 9.62169 23.2513 11.2887C21.4647 15.7116 18.5098 17.9403 15.771 19.0296C14.1554 19.6722 13.1836 20.8964 13.1836 22.0875V29.9367C13.1836 46.5614 21.1845 57.1599 33.2753 66.2866C34.336 67.0873 35.597 67.4812 36.8563 67.4745Z" fill="url(#paint20_radial_108_768)"/>
<path fill-rule="evenodd" clip-rule="evenodd" d="M26.6903 5.29297H47.0223C50.1357 5.29297 52.4866 7.54143 53.5038 10.0598C54.9199 13.5655 57.158 15.1867 59.1543 15.9807C61.4711 16.9021 63.8103 19.0467 63.8103 22.0875V29.9367C63.8103 47.9389 55.0017 59.4039 42.4142 68.9055C40.7639 70.1513 38.8076 70.763 36.8563 70.7559C34.9051 70.763 32.9487 70.1513 31.2985 68.9055C18.711 59.4039 9.90234 47.9389 9.90234 29.9367V22.0875C9.90234 19.0467 12.2416 16.9021 14.5583 15.9807C16.5547 15.1867 18.7928 13.5655 20.2088 10.0598C21.2261 7.54143 23.577 5.29297 26.6903 5.29297ZM36.8563 67.4745C38.1156 67.4812 39.3766 67.0873 40.4373 66.2866C52.5281 57.1599 60.5291 46.5614 60.5291 29.9367V22.0875C60.5291 20.8964 59.5573 19.6722 57.9417 19.0296C55.2028 17.9403 52.248 15.7116 50.4614 11.2887C49.788 9.62169 48.4229 8.57422 47.0223 8.57422H26.6903C25.2898 8.57422 23.9246 9.62169 23.2513 11.2887C21.4647 15.7116 18.5098 17.9403 15.771 19.0296C14.1554 19.6722 13.1836 20.8964 13.1836 22.0875V29.9367C13.1836 46.5614 21.1845 57.1599 33.2753 66.2866C34.336 67.0873 35.597 67.4812 36.8563 67.4745Z" fill="url(#paint21_radial_108_768)"/>
<path fill-rule="evenodd" clip-rule="evenodd" d="M26.6903 5.29297H47.0223C50.1357 5.29297 52.4866 7.54143 53.5038 10.0598C54.9199 13.5655 57.158 15.1867 59.1543 15.9807C61.4711 16.9021 63.8103 19.0467 63.8103 22.0875V29.9367C63.8103 47.9389 55.0017 59.4039 42.4142 68.9055C40.7639 70.1513 38.8076 70.763 36.8563 70.7559C34.9051 70.763 32.9487 70.1513 31.2985 68.9055C18.711 59.4039 9.90234 47.9389 9.90234 29.9367V22.0875C9.90234 19.0467 12.2416 16.9021 14.5583 15.9807C16.5547 15.1867 18.7928 13.5655 20.2088 10.0598C21.2261 7.54143 23.577 5.29297 26.6903 5.29297ZM36.8563 67.4745C38.1156 67.4812 39.3766 67.0873 40.4373 66.2866C52.5281 57.1599 60.5291 46.5614 60.5291 29.9367V22.0875C60.5291 20.8964 59.5573 19.6722 57.9417 19.0296C55.2028 17.9403 52.248 15.7116 50.4614 11.2887C49.788 9.62169 48.4229 8.57422 47.0223 8.57422H26.6903C25.2898 8.57422 23.9246 9.62169 23.2513 11.2887C21.4647 15.7116 18.5098 17.9403 15.771 19.0296C14.1554 19.6722 13.1836 20.8964 13.1836 22.0875V29.9367C13.1836 46.5614 21.1845 57.1599 33.2753 66.2866C34.336 67.0873 35.597 67.4812 36.8563 67.4745Z" fill="url(#paint22_radial_108_768)"/>
<path fill-rule="evenodd" clip-rule="evenodd" d="M26.6903 5.29297H47.0223C50.1357 5.29297 52.4866 7.54143 53.5038 10.0598C54.9199 13.5655 57.158 15.1867 59.1543 15.9807C61.4711 16.9021 63.8103 19.0467 63.8103 22.0875V29.9367C63.8103 47.9389 55.0017 59.4039 42.4142 68.9055C40.7639 70.1513 38.8076 70.763 36.8563 70.7559C34.9051 70.763 32.9487 70.1513 31.2985 68.9055C18.711 59.4039 9.90234 47.9389 9.90234 29.9367V22.0875C9.90234 19.0467 12.2416 16.9021 14.5583 15.9807C16.5547 15.1867 18.7928 13.5655 20.2088 10.0598C21.2261 7.54143 23.577 5.29297 26.6903 5.29297ZM36.8563 67.4745C38.1156 67.4812 39.3766 67.0873 40.4373 66.2866C52.5281 57.1599 60.5291 46.5614 60.5291 29.9367V22.0875C60.5291 20.8964 59.5573 19.6722 57.9417 19.0296C55.2028 17.9403 52.248 15.7116 50.4614 11.2887C49.788 9.62169 48.4229 8.57422 47.0223 8.57422H26.6903C25.2898 8.57422 23.9246 9.62169 23.2513 11.2887C21.4647 15.7116 18.5098 17.9403 15.771 19.0296C14.1554 19.6722 13.1836 20.8964 13.1836 22.0875V29.9367C13.1836 46.5614 21.1845 57.1599 33.2753 66.2866C34.336 67.0873 35.597 67.4812 36.8563 67.4745Z" fill="url(#paint23_radial_108_768)"/>
<defs>
<radialGradient id="paint0_radial_108_768" cx="0" cy="0" r="1" gradientUnits="userSpaceOnUse" gradientTransform="translate(44.7198 41.2315) rotate(141.62) scale(29.5299 41.3586)">
<stop offset="0.80737" stop-color="#3782E8" stop-opacity="0"/>
<stop offset="0.927404" stop-color="#1C58B0"/>
</radialGradient>
<radialGradient id="paint1_radial_108_768" cx="0" cy="0" r="1" gradientUnits="userSpaceOnUse" gradientTransform="translate(17.5477 12.8004) rotate(45.0964) scale(11.7062 18.3323)">
<stop offset="0.380841" stop-color="#1D5FBF"/>
<stop offset="0.716974" stop-color="#3782E8" stop-opacity="0"/>
</radialGradient>
<radialGradient id="paint2_radial_108_768" cx="0" cy="0" r="1" gradientUnits="userSpaceOnUse" gradientTransform="translate(36.8574 38.0244) scale(23.7169 52.5606)">
<stop stop-color="#52C9FF"/>
<stop offset="1" stop-color="#59CBFF"/>
</radialGradient>
<radialGradient id="paint3_radial_108_768" cx="0" cy="0" r="1" gradientUnits="userSpaceOnUse" gradientTransform="translate(39.3826 33.4082) rotate(14.0055) scale(21.7485 37.4094)">
<stop offset="0.809719" stop-color="#44AAFF" stop-opacity="0"/>
<stop offset="0.96638" stop-color="#1B7CE2"/>
</radialGradient>
<radialGradient id="paint4_radial_108_768" cx="0" cy="0" r="1" gradientUnits="userSpaceOnUse" gradientTransform="translate(58.6559 10.0111) rotate(135) scale(19.2581 25.6076)">
<stop offset="0.400408" stop-color="#1B7CE2"/>
<stop offset="0.536679" stop-color="#44AAFF" stop-opacity="0"/>
</radialGradient>
<linearGradient id="paint5_linear_108_768" x1="46.1772" y1="27.3324" x2="46.1772" y2="6.93359" gradientUnits="userSpaceOnUse">
<stop offset="0.809092" stop-color="#44AAFF" stop-opacity="0"/>
<stop offset="0.928331" stop-color="#1B7CE2"/>
</linearGradient>
<linearGradient id="paint6_linear_108_768" x1="46.1772" y1="27.3324" x2="68.3149" y2="27.3324" gradientUnits="userSpaceOnUse">
<stop offset="0.518763" stop-color="#44AAFF" stop-opacity="0"/>
<stop offset="0.671016" stop-color="#1B7CE2"/>
</linearGradient>
<linearGradient id="paint7_linear_108_768" x1="11.8373" y1="42.4044" x2="53.8674" y2="11.8214" gradientUnits="userSpaceOnUse">
<stop stop-color="#B8B3BE"/>
<stop offset="1" stop-color="#B9B4BE"/>
</linearGradient>
<radialGradient id="paint8_radial_108_768" cx="0" cy="0" r="1" gradientUnits="userSpaceOnUse" gradientTransform="translate(46.6349 28.5869) rotate(86.4064) scale(53.8253 44.3245)">
<stop offset="0.794691" stop-color="#784298" stop-opacity="0"/>
<stop offset="0.881657" stop-color="#8D50B3"/>
</radialGradient>
<radialGradient id="paint9_radial_108_768" cx="0" cy="0" r="1" gradientUnits="userSpaceOnUse" gradientTransform="translate(45.4952 14.718) rotate(-63.435) scale(11.9094 9.80726)">
<stop offset="0.708316" stop-color="#DCDADE" stop-opacity="0"/>
<stop offset="0.784493" stop-color="#DCDADE"/>
<stop offset="0.865772" stop-color="#DCDADE" stop-opacity="0"/>
</radialGradient>
<radialGradient id="paint10_radial_108_768" cx="0" cy="0" r="1" gradientUnits="userSpaceOnUse" gradientTransform="translate(41.1271 6.80265) rotate(59.6337) scale(15.3207 15.3207)">
<stop offset="0.213741" stop-color="#B8B3BE"/>
<stop offset="0.597743" stop-color="#B8B3BE" stop-opacity="0"/>
</radialGradient>
<radialGradient id="paint11_radial_108_768" cx="0" cy="0" r="1" gradientUnits="userSpaceOnUse" gradientTransform="translate(53.8365 13.8578) rotate(128.848) scale(7.91436)">
<stop offset="0.328211" stop-color="#B8B3BE"/>
<stop offset="0.597743" stop-color="#B8B3BE" stop-opacity="0"/>
</radialGradient>
<radialGradient id="paint12_radial_108_768" cx="0" cy="0" r="1" gradientUnits="userSpaceOnUse" gradientTransform="translate(55.0328 24.7861) rotate(-48.7906) scale(12.0824 9.94974)">
<stop offset="0.708316" stop-color="#DCDADE" stop-opacity="0"/>
<stop offset="0.784493" stop-color="#DCDADE"/>
<stop offset="0.865772" stop-color="#DCDADE" stop-opacity="0"/>
</radialGradient>
<radialGradient id="paint13_radial_108_768" cx="0" cy="0" r="1" gradientUnits="userSpaceOnUse" gradientTransform="translate(55.6133 16.5184) rotate(113.962) scale(5.94623)">
<stop offset="0.328211" stop-color="#B8B3BE"/>
<stop offset="0.597743" stop-color="#B8B3BE" stop-opacity="0"/>
</radialGradient>
<radialGradient id="paint14_radial_108_768" cx="0" cy="0" r="1" gradientUnits="userSpaceOnUse" gradientTransform="translate(61.9526 28.6796) rotate(-142.459) scale(11.0407)">
<stop offset="0.328211" stop-color="#B8B3BE"/>
<stop offset="0.597743" stop-color="#B8B3BE" stop-opacity="0"/>
</radialGradient>
<radialGradient id="paint15_radial_108_768" cx="0" cy="0" r="1" gradientUnits="userSpaceOnUse" gradientTransform="translate(58.8585 10.182) rotate(49.8991) scale(8.68388 6.70628)">
<stop offset="0.661693" stop-color="#DCDADE" stop-opacity="0"/>
<stop offset="0.761178" stop-color="#DCDADE"/>
<stop offset="0.858998" stop-color="#DCDADE" stop-opacity="0"/>
</radialGradient>
<radialGradient id="paint16_radial_108_768" cx="0" cy="0" r="1" gradientUnits="userSpaceOnUse" gradientTransform="translate(55.97 8.60299) rotate(58.0693) scale(5.76711)">
<stop offset="0.328211" stop-color="#B8B3BE"/>
<stop offset="0.597743" stop-color="#B8B3BE" stop-opacity="0"/>
</radialGradient>
<radialGradient id="paint17_radial_108_768" cx="0" cy="0" r="1" gradientUnits="userSpaceOnUse" gradientTransform="translate(59.162 14.7034) rotate(-59.8586) scale(2.54278 5.88897)">
<stop offset="0.328211" stop-color="#B8B3BE"/>
<stop offset="0.597743" stop-color="#B8B3BE" stop-opacity="0"/>
</radialGradient>
<radialGradient id="paint18_radial_108_768" cx="0" cy="0" r="1" gradientUnits="userSpaceOnUse" gradientTransform="translate(63.2079 25.9929) rotate(90) scale(8.83345 0.684595)">
<stop stop-color="#DDDBDF" stop-opacity="0.6"/>
<stop offset="1" stop-color="#DDDBDF" stop-opacity="0"/>
</radialGradient>
<radialGradient id="paint19_radial_108_768" cx="0" cy="0" r="1" gradientUnits="userSpaceOnUse" gradientTransform="translate(14.3949 28.7552) rotate(0.82699) scale(2.71269 12.3686)">
<stop offset="0.528675" stop-color="#E8E7EA" stop-opacity="0.6"/>
<stop offset="0.664328" stop-color="#E8E7EA" stop-opacity="0"/>
</radialGradient>
<radialGradient id="paint20_radial_108_768" cx="0" cy="0" r="1" gradientUnits="userSpaceOnUse" gradientTransform="translate(18.6296 42.5668) rotate(-19.1621) scale(6.31805 19.3748)">
<stop offset="0.528675" stop-color="#E8E7EA" stop-opacity="0.6"/>
<stop offset="0.664328" stop-color="#E8E7EA" stop-opacity="0"/>
</radialGradient>
<radialGradient id="paint21_radial_108_768" cx="0" cy="0" r="1" gradientUnits="userSpaceOnUse" gradientTransform="translate(26.6951 53.9599) rotate(-41.6335) scale(8.36053 25.6382)">
<stop offset="0.528675" stop-color="#E8E7EA" stop-opacity="0.6"/>
<stop offset="0.664328" stop-color="#E8E7EA" stop-opacity="0"/>
</radialGradient>
<radialGradient id="paint22_radial_108_768" cx="0" cy="0" r="1" gradientUnits="userSpaceOnUse" gradientTransform="translate(36.5819 59.8976) rotate(-107.567) scale(12.0542)">
<stop offset="0.528675" stop-color="#E8E7EA" stop-opacity="0.6"/>
<stop offset="0.664328" stop-color="#E8E7EA" stop-opacity="0"/>
</radialGradient>
<radialGradient id="paint23_radial_108_768" cx="0" cy="0" r="1" gradientUnits="userSpaceOnUse" gradientTransform="translate(14.731 33.0719) scale(2.64627 11.6022)">
<stop offset="0.528675" stop-color="#E8E7EA" stop-opacity="0.6"/>
<stop offset="0.664328" stop-color="#E8E7EA" stop-opacity="0"/>
</radialGradient>
</defs>
</svg>
