<svg width="470" height="307" viewBox="0 0 470 307" fill="none" xmlns="http://www.w3.org/2000/svg">
<g clip-path="url(#clip0_251_124)">
<path d="M195.516 41.3926C197.16 38.0752 199.794 35.3214 201.402 31.9863C203.011 28.6513 203.325 24.1874 200.644 21.6345C198.367 19.4672 194.801 19.4367 192.079 17.8664C185.143 13.8667 185.15 1.16192 177.224 0.0641512C173.368 -0.469452 169.879 2.42423 167.548 5.54534C165.218 8.66645 163.361 12.3071 160.128 14.4779C156.469 16.9355 151.739 17.0425 147.676 18.7497C139.886 22.0224 135.802 30.4384 132.387 38.1733C130.187 43.1556 127.937 48.5298 128.957 53.8805C126.738 55.2621 127.727 58.9786 129.942 60.3666C132.157 61.7547 134.937 61.7241 137.48 62.3253C142.824 63.5888 147.201 67.8494 149.276 72.9369C150.894 76.9036 151.224 81.2588 151.536 85.5312L153.161 107.773C153.401 111.072 153.717 114.577 155.724 117.205C157.73 119.833 162.074 120.935 164.328 118.518C166.483 116.208 165.513 112.55 165.469 109.389C165.426 106.229 168.28 102.294 170.972 103.947L171.921 101.791C178.069 99.5884 183.452 95.6589 187.426 90.4732C191.4 85.2876 193.797 79.0656 194.33 72.5519C195.015 62.0585 190.843 50.8088 195.516 41.3926Z" fill="#D88F4A"/>
<path d="M201.797 107.922C202.391 107.362 202.813 106.643 203.012 105.851C203.211 105.059 203.18 104.227 202.922 103.452C202.664 102.677 202.19 101.992 201.556 101.478C200.922 100.964 200.154 100.642 199.343 100.551L199.353 100.907C198.196 101.583 196.876 101.93 195.536 101.911C194.201 101.89 192.873 102.1 191.609 102.533C190.981 102.762 190.437 103.175 190.049 103.719C189.66 104.263 189.445 104.912 189.432 105.581C189.505 106.093 189.701 106.581 190.003 107.001C190.304 107.422 190.703 107.763 191.165 107.997C192.092 108.454 193.087 108.756 194.112 108.892C196.754 109.39 199.844 109.766 201.797 107.922Z" fill="#D88F4A"/>
<path d="M253.281 41.5682C254.388 40.8158 255.327 39.8429 256.041 38.7104C256.386 38.1375 256.551 37.4735 256.512 36.8054C256.474 36.1373 256.235 35.4965 255.826 34.967C254.993 34.2441 253.922 33.8568 252.82 33.8804C249.828 33.6568 246.821 34.0118 243.963 34.9258L252.767 42.7324L253.281 41.5682Z" fill="#D88F4A"/>
<path d="M238.605 48.3364C239.792 49.6469 239.413 51.6796 239.075 53.4156C238.737 55.1516 238.696 57.3207 240.191 58.268C241.483 59.0907 243.299 58.419 244.242 57.2137C245.087 55.929 245.602 54.4554 245.742 52.9237C246.207 50.6962 246.417 48.4229 246.368 46.1479C246.311 43.8561 245.503 41.6466 244.068 39.8598C243.05 38.6975 241.693 37.8833 240.189 37.5317C238.685 37.18 237.108 37.3083 235.681 37.8988L237.044 37.8312C236.053 39.105 235.301 40.5484 234.826 42.0912C234.598 42.8663 234.582 43.6883 234.779 44.4717C234.977 45.2552 235.38 45.9715 235.947 46.5463C236.758 47.2462 237.885 47.5407 238.605 48.3364Z" fill="#D88F4A"/>
<path d="M305.505 26.3593L305.747 25.6118C304.733 26.1985 303.951 27.1163 303.533 28.2113C303.114 29.3064 303.084 30.5122 303.448 31.6266C304.228 31.011 304.83 30.1985 305.191 29.2726C305.553 28.3467 305.661 27.3411 305.505 26.3593Z" fill="#D88F4A"/>
<path d="M292.327 37.0538C293.618 36.322 294.72 35.2976 295.544 34.0628C296.368 32.8279 296.892 31.4169 297.073 29.943C297.213 29.0267 297.107 28.0897 296.766 27.2279C296.591 26.8 296.313 26.422 295.956 26.1275C295.6 25.8331 295.177 25.6313 294.724 25.5402L294.172 26.4099C293.38 25.7276 292.05 26.4293 291.717 27.4207C291.502 28.4498 291.591 29.5192 291.974 30.4983C292.356 31.4834 292.339 32.5788 291.926 33.5513C291.481 34.1232 290.98 34.6496 290.431 35.1227C290.163 35.3669 289.988 35.6967 289.936 36.0558C289.884 36.4149 289.958 36.781 290.146 37.0914C290.663 37.6861 291.637 37.4369 292.327 37.0538Z" fill="#D88F4A"/>
<path d="M286.707 32.1932C287.181 31.3422 287.405 30.3745 287.353 29.4018L286.145 29.0227C285.373 29.3357 284.688 29.8314 284.149 30.4672C283.985 30.6314 283.86 30.8298 283.781 31.0482C283.703 31.2666 283.674 31.4996 283.697 31.7305C283.719 31.9614 283.792 32.1844 283.911 32.3837C284.03 32.583 284.191 32.7536 284.383 32.8832C284.575 33.0128 284.794 33.0983 285.023 33.1335C285.252 33.1687 285.486 33.1528 285.708 33.0868C285.93 33.0209 286.135 32.9065 286.308 32.7521C286.481 32.5976 286.618 32.4067 286.708 32.1932H286.707Z" fill="#D88F4A"/>
<path d="M345.729 26.0785C345.838 26.1702 345.946 26.2642 346.056 26.3565C346.152 26.3365 346.243 26.2977 346.342 26.2877L345.729 26.0785Z" fill="#E6E6E6"/>
<path d="M343.793 36.6853L347.118 33.9926C347.707 33.5755 348.209 33.0473 348.596 32.4377C348.861 31.8606 348.975 31.226 348.928 30.5929C348.881 29.9598 348.675 29.3489 348.329 28.817C347.715 27.8744 346.946 27.0427 346.055 26.3571C345.076 26.5888 344.216 27.1719 343.637 27.9961C343.059 28.8202 342.803 29.8281 342.917 30.8286C343.117 32.1015 343.915 33.462 343.264 34.5733C343.011 35.0058 342.574 35.3002 342.281 35.7075C341.989 36.1147 341.894 36.7653 342.296 37.0632C342.742 37.3958 343.36 37.0356 343.793 36.6853Z" fill="#D88F4A"/>
<path d="M346.218 42.18C346.63 42.2023 347.043 42.1356 347.427 41.9843C347.811 41.833 348.158 41.6007 348.445 41.3032C349.927 40.088 351.223 38.6626 352.293 37.072L344.812 39.4433L345.59 40.3536C344.896 40.8049 345.408 42.0243 346.218 42.18Z" fill="#E6E6E6"/>
<path d="M353.21 47.3191C353.362 47.7085 353.637 48.0372 353.994 48.2551C354.35 48.4729 354.768 48.568 355.184 48.5256C355.598 48.4705 355.994 48.3251 356.346 48.0998C356.698 47.8745 356.996 47.5747 357.219 47.2216C357.599 46.662 357.822 46.0111 357.865 45.3363C357.909 44.6614 357.772 43.9872 357.468 43.3833C357.164 42.7794 356.704 42.2677 356.136 41.9013C355.568 41.5349 354.913 41.327 354.238 41.2991L354.926 42.3522C355.102 44.1498 352.661 45.5985 353.21 47.3191Z" fill="#D88F4A"/>
<path d="M401.656 67.0073C402.331 67.5111 403.151 67.7824 403.992 67.7804C404.834 67.7783 405.652 67.5032 406.324 66.9961C406.76 66.6235 407.115 66.1648 407.365 65.6488C407.616 65.1328 407.757 64.5705 407.78 63.9973C407.804 63.424 407.709 62.8521 407.501 62.3174C407.293 61.7826 406.977 61.2966 406.573 60.8896L405.299 61.6013C404.593 61.1469 403.737 60.9844 402.914 61.1482C402.09 61.3119 401.361 61.7891 400.882 62.4793C400.452 63.2029 400.294 64.0562 400.435 64.8861C400.577 65.716 401.01 66.4681 401.656 67.0073Z" fill="#D88F4A"/>
<path d="M416.47 68.6856C417.09 68.5054 417.654 68.1687 418.108 67.7078C418.561 67.2469 418.888 66.6773 419.059 66.0535L416.581 65.7279C415.892 65.2071 415.09 64.8566 414.24 64.7048C413.814 64.6408 413.379 64.7254 413.008 64.9444C412.637 65.1634 412.352 65.5035 412.201 65.9077C412.149 66.2515 412.185 66.603 412.306 66.9288C412.428 67.2546 412.631 67.5438 412.896 67.7689C413.363 68.2152 413.937 68.5339 414.563 68.6945C415.189 68.8552 415.846 68.8523 416.47 68.6862V68.6856Z" fill="#D88F4A"/>
<path d="M406.242 73.6438C406.286 74.0471 406.443 74.4297 406.696 74.7468C406.949 75.0639 407.287 75.3024 407.67 75.4345C408.088 75.6333 408.557 75.7016 409.015 75.6307C409.473 75.5598 409.899 75.3528 410.238 75.0366C410.387 74.8676 410.495 74.6654 410.55 74.4467C410.606 74.2281 410.609 73.9992 410.559 73.7792C410.508 73.5592 410.406 73.3543 410.261 73.1817C410.116 73.009 409.932 72.8735 409.724 72.7864L407.866 72.4485C407.148 72.0736 406.231 72.8328 406.242 73.6438Z" fill="#D88F4A"/>
<path d="M298.469 86.713L297.031 85.3989C297.414 85.9324 297.903 86.38 298.469 86.713Z" fill="#E6E6E6"/>
<path d="M287.487 78.9769C288.372 83.0906 292.799 86.4403 296.817 85.2062L297.029 85.4001C295.75 83.6471 295.533 81.0513 295.832 78.7988C296.387 74.9345 297.905 71.2723 300.247 68.15C302.588 65.0277 305.678 62.546 309.23 60.9337C310.204 60.6296 311.074 60.0621 311.745 59.2941C312.317 58.4561 312.103 57.018 311.117 56.7812C310.581 56.7191 310.04 56.8437 309.585 57.1338L302.116 60.8126C298.344 62.6708 294.497 64.5825 291.534 67.5679C288.571 70.5532 286.602 74.8632 287.487 78.9769Z" fill="#D88F4A"/>
<path d="M166.928 220.432C159.97 215.446 152.348 211.459 144.285 208.588C139.329 206.825 134.004 205.48 128.842 206.481C126.011 207.067 123.357 208.314 121.098 210.119C118.838 211.925 117.035 214.239 115.837 216.872C114.682 219.525 114.139 222.404 114.248 225.295C114.357 228.187 115.115 231.017 116.466 233.575C118.847 238.041 122.971 241.598 124.35 246.468C125.279 249.751 124.839 253.247 124.391 256.63L121.649 277.372C120.817 283.667 120.005 290.217 121.997 296.246C123.99 302.274 129.67 307.588 135.982 306.948L137.233 306.854C133.058 304.013 131.89 298.13 133.131 293.232C134.371 288.335 137.529 284.182 140.609 280.178L168.035 244.534C171.734 239.727 175.646 233.785 173.672 228.049C172.55 224.787 169.73 222.44 166.928 220.432Z" fill="#D88F4A"/>
<path d="M104.626 190.397C103.7 190.083 102.723 190.781 102.179 191.594C101.739 192.466 101.221 193.298 100.634 194.079C99.2098 195.548 96.6146 195.254 95.0785 193.903C93.5425 192.551 92.8773 190.461 92.579 188.437C92.2214 186.007 92.3758 183.296 93.9782 181.436C95.6275 179.521 98.3391 179.008 100.834 178.61C103.411 178.198 106.298 177.856 108.408 179.391C109.738 180.358 110.513 181.918 111.745 183.007C112.977 184.096 115.168 184.509 116.095 183.151C116.338 182.669 116.461 182.136 116.453 181.597C116.445 181.058 116.307 180.528 116.051 180.054C115.53 179.109 115.216 178.064 115.131 176.988C115.194 175.495 116.391 174.309 117.617 173.455C118.843 172.601 120.227 171.864 121.032 170.606C122.021 169.057 121.916 167.061 122.53 165.329C124.015 161.135 129.315 159.27 130.859 155.098C131.231 154.22 131.273 153.237 130.976 152.331C130.331 150.669 128.583 150.995 128.476 148.964C128.374 147.021 129.993 145.115 131.639 144.304C133.908 143.188 136.552 143.277 139.08 143.208C141.609 143.14 144.332 142.804 146.185 141.084C146.786 140.465 147.249 139.725 147.544 138.914C147.839 138.103 147.96 137.239 147.899 136.378C147.837 135.517 147.595 134.679 147.187 133.918C146.78 133.157 146.216 132.491 145.534 131.963C144.151 131.008 142.404 130.675 141.059 129.668C139.383 128.413 138.593 126.323 137.285 124.686C136.199 123.439 134.957 122.338 133.589 121.411L130.23 118.916C128.206 117.413 126.1 115.871 123.636 115.335C121.173 114.799 118.24 115.558 117.006 117.758C116.52 118.738 116.254 119.814 116.228 120.908C116.115 123.485 116.223 126.067 116.549 128.625L117.159 134.804C117.341 136.651 117.145 139.085 115.354 139.564C111.382 140.627 112.722 134.745 111.841 132.947C110.491 130.19 104.296 128.866 101.647 127.717C99.9925 126.999 98.2469 126.207 97.2481 124.705C96.0045 122.835 96.2599 120.291 97.2352 118.268C98.2105 116.245 99.7987 114.598 101.242 112.878C102.713 111.125 104.053 109.266 105.391 107.409L110.046 100.947C112.037 98.1854 114.129 94.814 112.999 91.6035C112.754 91.1738 112.388 90.8259 111.946 90.6036C111.504 90.3812 111.007 90.2942 110.516 90.3534C110.025 90.4126 109.563 90.6155 109.187 90.9365C108.811 91.2576 108.538 91.6826 108.402 92.1583C107.906 93.8925 109.228 96.1063 107.964 97.3915C107.53 97.7405 106.988 97.9258 106.432 97.9151C105.876 97.9043 105.341 97.6982 104.922 97.3327C104.102 96.576 103.478 95.632 103.102 94.5812C101.57 91.1728 100.077 87.7449 98.5041 84.3558C98.0067 83.2845 97.4883 81.4504 95.9793 81.6308C94.6717 81.7877 93.9653 83.6953 94.0105 84.8042C94.0768 86.4156 94.9664 87.8554 95.6463 89.3175C96.3263 90.7796 96.8019 92.535 96.0574 93.9642C95.112 95.7736 92.717 96.1803 90.6778 96.1204C86.8339 96.0038 83.0676 95.0092 79.6667 93.2126C79.5779 95.1033 79.489 96.9942 79.4001 98.8853L71.2797 95.4833L69.7026 94.8228C67.4191 93.8661 65.1333 92.9087 62.7823 92.1318C61.4477 91.6911 60.0948 91.3091 58.7426 90.9277L56.2765 90.2319C54.6542 89.6565 52.9335 89.4107 51.2152 89.5091C49.4097 89.7359 47.7997 90.7068 46.1298 91.4319C42.4048 93.0504 37.5865 91.4219 33.5944 91.3931C32.0109 89.0795 29.8731 87.2001 27.3765 85.9268C24.8798 84.6536 22.1041 84.0272 19.3031 84.1049C16.5021 84.1826 13.7653 84.9619 11.343 86.3715C8.92067 87.7812 6.89012 89.7762 5.43707 92.1742C4.73526 93.389 4.11027 94.6468 3.56578 95.9399L1.94051 99.5835C1.14608 101.366 0.33403 103.243 0.490215 105.189C0.6464 107.134 2.13427 109.121 4.08599 109.104C-0.512075 111.187 -1.46856 118.478 2.43549 121.68C3.51645 122.566 4.84285 123.146 5.81519 124.148C6.54964 124.907 7.04081 125.869 7.22574 126.909C7.41066 127.949 7.28091 129.021 6.85312 129.987C6.42533 130.953 5.71901 131.769 4.82469 132.331C3.93038 132.893 2.88885 133.174 1.83365 133.139C4.55762 134.193 7.55808 134.291 10.3449 133.417C13.1317 132.544 15.5401 130.75 17.1768 128.329C18.8461 125.714 19.5712 122.446 21.8424 120.332C24.8498 117.533 29.8172 117.75 33.2856 119.951C36.754 122.152 38.9482 125.9 40.4578 129.723C42.4353 134.733 43.7013 140.457 47.9147 143.808C49.9522 145.428 52.5322 146.34 54.3336 148.22C56.8983 150.897 57.3416 154.938 57.2841 158.647C57.2266 162.356 56.8273 166.204 58.1772 169.658C59.5271 173.113 63.3964 175.954 66.8672 174.653C65.873 177.606 65.9038 180.808 66.9545 183.741C68.0052 186.673 70.0144 189.165 72.6566 190.813L70.7601 179.039C73.9108 179.927 75.9535 182.985 77.1325 186.041C78.3115 189.097 78.9351 192.403 80.6449 195.197C83.3371 199.596 88.2123 201.492 93.1715 201.475C98.5287 201.457 100.563 198.901 104.093 195.136C104.802 194.493 105.34 193.684 105.659 192.781C105.803 192.326 105.778 191.834 105.588 191.396C105.398 190.958 105.057 190.603 104.626 190.397Z" fill="#D88F4A"/>
<path d="M119.796 190.201L110.812 188.791L115.522 191.625C116.831 192.496 118.253 193.183 119.75 193.664C120.5 193.9 121.292 193.98 122.074 193.897C122.857 193.815 123.614 193.572 124.3 193.184L123.916 192.451C123.314 190.92 121.418 190.456 119.796 190.201Z" fill="#D88F4A"/>
<path d="M117.762 206.861L117.782 206.808C117.601 206.508 117.335 206.268 117.016 206.121C116.698 205.973 116.343 205.924 115.997 205.98C115.307 206.103 114.602 206.115 113.908 206.014C113.468 205.841 113.075 205.566 112.763 205.211C112.45 204.855 112.227 204.43 112.113 203.971C111.815 203.075 111.727 202.116 111.388 201.234C111.143 200.537 110.711 199.921 110.139 199.454C109.567 198.987 108.877 198.687 108.145 198.587C107.411 198.528 106.683 198.76 106.119 199.234C105.555 199.708 105.2 200.385 105.131 201.119C105.188 201.875 105.428 202.605 105.83 203.248L106.798 205.113C107.071 205.67 107.385 206.207 107.738 206.717C108.31 207.506 109.057 208.15 109.921 208.599C110.785 209.047 111.742 209.288 112.715 209.302C113.689 209.316 114.652 209.102 115.528 208.678C116.405 208.255 117.17 207.632 117.764 206.86L117.762 206.861Z" fill="#D88F4A"/>
<path d="M100.273 47.3702C102.553 48.7154 105.408 49.6428 106.492 52.0598L107.117 52.262L105.072 54.8054C104.229 55.8532 103.343 57.0209 103.363 58.3655C103.39 60.2179 105.171 61.6148 106.969 62.0514C108.888 62.4466 110.886 62.114 112.574 61.1182C114.262 60.1224 115.52 58.5344 116.104 56.6625C116.318 55.8814 116.407 55.0716 116.594 54.2848C117.141 52.4171 117.966 50.6427 119.042 49.0216L137.206 18.4364C137.96 17.1664 138.738 15.6479 138.17 14.2839C137.868 13.7071 137.399 13.2342 136.826 12.9262C136.252 12.6182 135.6 12.4891 134.952 12.5556C133.66 12.713 132.413 13.1329 131.289 13.7897C130.789 12.9114 130.084 12.1676 129.234 11.6221C128.384 11.0766 127.415 10.7458 126.409 10.658C124.397 10.5026 122.374 10.6789 120.42 11.1798C116.005 11.8467 111.747 13.3106 107.855 15.5004C105.725 16.5776 103.382 17.9098 102.764 20.2152C102.004 23.0525 104.453 25.9444 107.273 26.7601C110.092 27.5758 113.102 26.8906 115.956 26.2042C116.279 27.5889 116.144 29.0409 115.573 30.3427C115.002 31.6445 114.024 32.7259 112.787 33.4248C111.55 34.1237 110.12 34.4025 108.711 34.2195C107.302 34.0364 105.991 33.4013 104.973 32.4094C102.927 30.416 101.925 26.9546 99.1164 26.4404C96.3168 25.9274 94.0914 28.9163 93.4731 31.6971C92.8687 34.6922 93.1966 37.8008 94.4125 40.6036C95.6284 43.4064 97.6739 45.7685 100.273 47.3714V47.3702Z" fill="#D88F4A"/>
<path d="M135.391 96.4278C134.042 92.6241 132.269 88.9847 130.106 85.5782C128.468 82.8839 126.446 80.4433 124.104 78.3334C121.963 76.4829 119.501 75.04 116.841 74.0758C114.258 73.1414 111.385 72.6795 108.775 73.5316C106.165 74.3837 103.944 76.8125 103.997 79.5599C104.056 82.5976 106.711 84.9735 109.479 86.2217C112.247 87.4699 115.325 88.0129 117.934 89.5626C119.709 90.6403 121.193 92.138 122.255 93.924C123.317 95.7101 123.924 97.7298 124.023 99.8057L124.68 100.894C123.191 101.387 121.801 102.144 120.578 103.127C119.972 103.628 119.509 104.279 119.235 105.016C118.962 105.753 118.887 106.549 119.02 107.324C119.476 109.163 121.352 110.219 123.049 111.06L132.456 115.723C130.86 110.958 136.087 106.524 136.376 101.508C136.387 99.764 136.052 98.0356 135.389 96.4231L135.391 96.4278Z" fill="#D88F4A"/>
<path d="M56.5479 83.563C58.4503 85.0416 61.3743 84.3499 63.117 82.6862C64.8597 81.0225 65.7082 78.6548 66.4997 76.3782C66.2107 78.6315 66.2382 80.9142 66.5813 83.1599C66.76 84.2828 67.1697 85.3563 67.7844 86.3126C68.3991 87.2688 69.2055 88.0869 70.1524 88.7151C71.0124 89.1863 71.9393 89.5232 72.9009 89.7141C77.372 90.7327 82.0447 90.3987 86.3258 88.7545L86.364 87.2894C84.2132 87.5351 82.5862 85.1738 82.4441 83.0124C82.302 80.8509 83.0858 78.7306 83.1551 76.565C83.2244 74.3995 82.1816 71.8696 80.0514 71.4846C80.4241 72.234 80.56 73.0792 80.4409 73.9078C80.3219 74.7364 79.9536 75.509 79.385 76.123C78.8165 76.7369 78.0746 77.1629 77.2581 77.3445C76.4416 77.526 75.5893 77.4544 74.8145 77.1392C72.3484 76.1361 71.4536 73.1295 69.5482 71.2696C68.3709 70.2215 66.9103 69.5452 65.35 69.3256C63.7897 69.106 62.1994 69.353 60.7789 70.0355C59.3765 70.7516 58.1462 71.7641 57.173 73.0027C56.1998 74.2414 55.5069 75.6768 55.1422 77.2097C54.5627 79.4364 54.7341 82.1532 56.5479 83.563Z" fill="#D88F4A"/>
<path d="M115.251 68.1344L115.339 67.991C114.81 66.456 113.162 65.5563 111.555 65.3282C109.936 65.2212 108.309 65.275 106.701 65.4887C105.077 65.6989 103.431 65.336 102.045 64.4626C100.94 63.6352 100.31 62.3335 99.4256 61.2716C98.5413 60.2096 97.1104 59.337 95.8263 59.8447C94.4359 60.3942 94.0648 62.3446 94.7394 63.6798C95.5338 64.9609 96.7321 65.9405 98.145 66.4636C103.498 68.9229 109.521 69.5113 115.248 68.1344H115.251Z" fill="#D88F4A"/>
<path d="M96.9781 72.7347C96.5344 73.0611 96.2339 73.5465 96.1392 74.0895C96.0446 74.6324 96.1631 75.191 96.4702 75.6485C96.7772 76.1061 97.249 76.4272 97.7869 76.5449C98.3249 76.6626 98.8875 76.5677 99.3573 76.2801L99.827 76.7438C100.451 75.6272 100.708 74.1275 99.9104 73.1267C99.5557 72.7116 99.0603 72.442 98.5193 72.3698C97.9784 72.2976 97.4298 72.4277 96.9787 72.7353L96.9781 72.7347Z" fill="#D88F4A"/>
<path d="M91.4902 76.7455C91.4971 76.346 91.383 75.9537 91.1629 75.6204C90.9428 75.287 90.6271 75.0281 90.2572 74.8778C90.0054 74.8346 89.7475 74.8429 89.499 74.9021C89.2504 74.9613 89.0165 75.0702 88.8111 75.2223C88.6058 75.3744 88.4333 75.5665 88.3041 75.787C88.175 76.0076 88.0917 76.2521 88.0594 76.5057C88.0207 77.0224 88.0885 77.5416 88.2587 78.031C88.4289 78.5204 88.6978 78.9696 89.0488 79.3506C89.2529 79.6575 89.5198 79.9176 89.8317 80.1137C90.1436 80.3098 90.4936 80.4375 90.8584 80.4883C91.5935 80.5124 92.3433 79.7432 92.0451 79.0703L90.9224 79.0485C91.2684 78.3282 91.4619 77.5441 91.4908 76.7455H91.4902Z" fill="#D88F4A"/>
<path d="M69.5383 65.2401L70.7748 66.2433C71.4888 66.8612 72.2602 67.4094 73.0783 67.8805C74.5092 68.674 76.1921 68.8803 77.7721 68.4559C78.5522 68.2333 79.2637 67.8178 79.8411 67.2476C80.4185 66.6774 80.8432 65.9708 81.076 65.1931C81.5687 63.3343 80.7648 61.4038 79.978 59.6496C79.7985 59.1475 79.5022 58.6953 79.1137 58.3303C78.9148 58.1536 78.661 58.0512 78.3953 58.0405C78.1295 58.0298 77.8682 58.1114 77.6558 58.2716C77.5018 58.4634 77.3994 58.6915 77.3583 58.9342C77.3172 59.1768 77.3387 59.4259 77.4209 59.6579C77.5902 60.1201 77.6675 60.611 77.6488 61.103C77.5701 61.5884 77.0616 62.0467 76.6136 61.8458L76.542 63.4971C74.4018 62.4129 73.2697 59.528 70.8876 59.2436C70.353 59.1798 69.8111 59.2641 69.3211 59.4875C68.8311 59.7108 68.4118 60.0645 68.1089 60.51C67.8061 60.9555 67.6312 61.4757 67.6035 62.0139C67.5758 62.552 67.6963 63.0874 67.9518 63.5618C68.3649 64.2197 68.9037 64.7896 69.5371 65.239L69.5383 65.2401Z" fill="#D88F4A"/>
<path d="M64.4403 58.1099C64.9354 57.7701 65.3272 57.3001 65.5725 56.7517C65.8177 56.2032 65.9069 55.5976 65.8301 55.0017C65.7709 54.7131 65.6488 54.4411 65.4726 54.2051C65.2965 53.969 65.0705 53.7747 64.8108 53.636C64.5511 53.4972 64.264 53.4174 63.97 53.4023C63.6761 53.3872 63.3823 53.4371 63.1098 53.5484C62.4983 54.0062 62.0688 54.666 61.8973 55.4107L60.2051 60.1885L61.1534 59.498C62.3265 59.2452 63.4419 58.7744 64.4415 58.1099H64.4403Z" fill="#D88F4A"/>
<path d="M75.4266 48.3364C75.596 48.1226 75.7165 47.8743 75.7796 47.6089C75.8428 47.3435 75.8471 47.0675 75.7922 46.8003C75.7372 46.533 75.6245 46.2811 75.4618 46.0622C75.2992 45.8433 75.0905 45.6627 74.8506 45.5332L73.6652 45.4221C73.3956 45.4904 73.1457 45.6209 72.9356 45.8033C72.7256 45.9856 72.5611 46.2148 72.4555 46.4722C72.3499 46.7297 72.3061 47.0084 72.3276 47.2859C72.349 47.5634 72.4352 47.832 72.5791 48.0701C72.7231 48.3082 72.9208 48.5093 73.1564 48.6571C73.392 48.8049 73.659 48.8954 73.9359 48.9213C74.2127 48.9472 74.4918 48.9078 74.7507 48.8062C75.0096 48.7046 75.2411 48.5437 75.4266 48.3364Z" fill="#D88F4A"/>
<path d="M86.3342 50.1675C87.4404 50.6964 88.8408 51.2018 89.8032 50.4414C90.0882 50.1832 90.3002 49.8543 90.4178 49.4879C90.5354 49.1216 90.5545 48.7307 90.4731 48.3546C90.3004 47.6043 89.9666 46.9007 89.4949 46.2925C88.023 44.1776 86.153 42.3704 83.9897 40.9723L83.4548 41.6681C82.7079 43.6074 81.9869 45.8764 83.0285 47.677C83.7313 48.89 85.07 49.564 86.3342 50.1675Z" fill="#D88F4A"/>
<path d="M94.5742 51.8959L96.6428 52.8326C96.4403 52.4786 96.1313 52.1974 95.76 52.0293C95.3886 51.8611 94.9736 51.8144 94.5742 51.8959Z" fill="#E6E6E6"/>
<path d="M89.0013 58.4103L88.0237 58.7329C87.1923 60.0998 87.554 61.8476 87.9397 63.4008C88.184 64.3828 88.7113 65.5904 89.7212 65.5458C90.7041 65.5023 91.1386 64.3117 91.3271 63.3438C91.6214 62.2942 91.6532 61.1882 91.4198 60.1233C91.2867 59.5963 90.9699 59.1341 90.5265 58.82C90.0831 58.506 89.5422 58.3607 89.0013 58.4103Z" fill="#D88F4A"/>
<path d="M73.4116 53.8093L74.135 54.1032C74.3046 54.0793 74.4616 54.0001 74.5817 53.8779C74.7018 53.7557 74.7783 53.5972 74.7993 53.4271C74.8203 53.2569 74.7847 53.0846 74.6979 52.9368C74.6112 52.789 74.4781 52.6739 74.3194 52.6094C74.1607 52.545 73.9852 52.5347 73.82 52.5802C73.6549 52.6257 73.5093 52.7244 73.4059 52.8611C73.3025 52.9977 73.247 53.1647 73.2481 53.3362C73.2491 53.5076 73.3066 53.6739 73.4116 53.8093Z" fill="#D88F4A"/>
<path d="M109.876 109.163C109.525 109.171 109.182 109.263 108.874 109.43C108.566 109.598 108.303 109.837 108.106 110.127C107.909 110.417 107.785 110.75 107.743 111.098C107.7 111.446 107.742 111.8 107.864 112.128C108.574 113.656 111.021 113.666 112.107 112.375C112.386 112.009 112.585 111.588 112.693 111.141C112.802 110.693 112.816 110.228 112.735 109.775C112.654 109.321 112.481 108.889 112.225 108.507C111.969 108.124 111.637 107.798 111.249 107.551L109.876 109.163Z" fill="#D88F4A"/>
<path d="M145.109 145.426C144.824 145.502 144.558 145.634 144.326 145.814C144.093 145.995 143.899 146.22 143.756 146.477C143.612 146.734 143.521 147.017 143.488 147.31C143.456 147.603 143.482 147.899 143.566 148.181L145.597 148.322L147.66 147.286C147.618 146.994 147.519 146.714 147.367 146.462C147.216 146.209 147.015 145.99 146.777 145.816C146.539 145.643 146.269 145.519 145.983 145.452C145.696 145.384 145.399 145.375 145.109 145.425L145.109 145.426Z" fill="#D88F4A"/>
<path d="M136.855 147.94C136.273 148.353 135.807 148.907 135.498 149.55C135.19 150.193 135.051 150.905 135.093 151.617C135.16 152.327 135.45 152.998 135.922 153.532C136.394 154.066 137.024 154.436 137.72 154.588C138.423 154.698 139.141 154.537 139.73 154.137C140.319 153.738 140.734 153.129 140.891 152.435C141.235 150.333 138.977 148.791 138.165 146.823L136.855 147.94Z" fill="#D88F4A"/>
<path d="M215.729 134.054C215.944 135.633 214.523 137.015 214.47 138.607C214.407 140.496 216.461 141.966 218.34 141.78C219.273 141.619 220.156 141.243 220.918 140.682C221.681 140.121 222.304 139.391 222.737 138.548L222.778 138.372L220.032 135.266C218.908 133.994 217.716 132.546 217.76 130.849C217.782 130.012 218.113 129.204 218.093 128.365C218.049 127.763 217.914 127.171 217.695 126.609C217.447 125.869 217.107 125.035 216.37 124.787C215.446 124.475 214.512 125.295 214.071 126.167C213.673 126.971 213.48 127.86 213.509 128.757C213.537 129.653 213.785 130.529 214.232 131.306C214.766 132.211 215.587 133.01 215.729 134.054Z" fill="#D88F4A"/>
<path d="M207.101 139.608C207.301 139.716 207.522 139.78 207.749 139.794C207.976 139.809 208.204 139.774 208.416 139.692C209.232 139.553 210.016 139.268 210.73 138.851C211.084 138.637 211.375 138.332 211.573 137.969C211.771 137.606 211.869 137.196 211.857 136.782C211.734 136.261 211.459 135.789 211.067 135.424C210.675 135.06 210.183 134.821 209.655 134.736C209.289 134.607 208.896 134.57 208.512 134.629C208.127 134.687 207.764 134.84 207.452 135.073C206.771 135.713 206.852 136.8 206.982 137.726L206.839 137.968C206.715 138.539 206.631 139.25 207.101 139.608Z" fill="#D88F4A"/>
<path d="M351.162 207.057L350.568 205.579C350.297 206.248 350.398 206.932 351.162 207.057Z" fill="#E6E6E6"/>
<path d="M470 103.419C467.459 100.661 465.904 99.0705 464.3 95.6508C463.427 93.7649 462.101 92.1248 460.44 90.8767C458.78 89.6286 456.836 88.8115 454.783 88.4983C449.513 87.6291 444.127 89.0054 438.793 88.7298C430.249 88.2879 422.544 83.7011 414.362 81.1994C409.78 79.9156 405.115 78.9534 400.4 78.3199L392.248 77.027C383.341 75.6166 374.378 74.2062 365.363 74.3907C362.764 74.4448 359.139 73.6626 359.35 71.0686C359.609 67.847 365.398 68.2696 366.514 65.236C367.203 63.3596 365.554 61.3891 363.745 60.5405C361.936 59.6919 359.848 59.4369 358.206 58.2974C356.564 57.1579 355.665 54.5169 357.174 53.2064L344.627 59.6438C341.15 61.4279 337.266 63.7486 336.651 67.6108C334.556 68.1648 332.723 69.4396 331.473 71.2114C329.12 71.2238 327.271 73.4839 326.883 75.8064C326.495 78.1289 327.2 80.479 327.898 82.7274C327.045 81.0913 326.136 79.3935 324.634 78.3257C323.133 77.2579 320.841 77.0552 319.559 78.381C318.243 79.7414 318.551 82.0245 319.482 83.6735C320.412 85.3225 321.843 86.653 322.72 88.3302C325.464 93.5687 320.493 100.944 314.613 100.36C315.007 94.9511 315.401 89.5418 315.796 84.1325C316.045 82.4685 315.904 80.7693 315.385 79.1691C314.743 77.6205 313.101 76.3482 311.466 76.7144C308.527 77.372 308.778 81.6808 309.998 84.4352C311.218 87.1896 312.44 91.02 309.944 92.7072C308.332 93.7967 306.147 93.1238 304.407 92.2541C302.668 91.3843 300.806 90.3148 298.904 90.7191C297.003 91.1234 295.807 94.0353 297.487 95.015L289.127 93.5611C288.989 94.3821 288.68 95.165 288.221 95.8592C287.762 96.5534 287.162 97.1434 286.461 97.5912C285.76 98.039 284.972 98.3346 284.15 98.4588C283.327 98.583 282.488 98.5331 281.686 98.3124L280.864 94.908L279.641 94.5672C280.921 94.9239 278.918 100.326 277.122 104.454C274.709 104.171 271.182 104.116 270.781 103.424C268.854 100.109 269.082 92.2129 265.732 90.3477C264.052 89.4125 262.33 88.5604 260.565 87.7913C259.637 87.3497 258.658 87.0278 257.65 86.8334C255.595 86.509 253.52 87.1472 251.536 87.7784C249.191 88.5236 246.791 89.2969 244.85 90.809C243.193 92.2482 241.771 93.9397 240.639 95.8212L229.14 112.855C227.998 114.372 227.099 116.057 226.476 117.851C226.183 118.742 226.085 119.687 226.19 120.62C226.295 121.553 226.6 122.453 227.083 123.257C227.593 124.046 228.353 124.64 229.242 124.944C230.13 125.247 231.094 125.243 231.98 124.931C233.091 124.45 234.203 123.359 235.304 123.863C236.138 124.244 236.346 125.342 236.259 126.255C236.047 127.149 236.03 128.079 236.21 128.98C236.712 130.403 238.64 130.897 240.015 130.282C241.353 129.551 242.355 128.329 242.81 126.873C244.135 123.472 244 119.708 244.33 116.071C244.66 112.435 245.653 108.546 248.517 106.285C249.374 105.608 250.634 105.12 251.517 105.763C251.848 106.064 252.076 106.46 252.171 106.897C252.266 107.334 252.222 107.789 252.045 108.2C251.676 109.012 251.195 109.769 250.616 110.447C249.638 111.825 248.953 113.39 248.604 115.044C248.256 116.699 248.251 118.407 248.591 120.063L249.178 120.426C251.409 119.846 254.4 120.884 257.366 121.88C255.213 122.52 253.318 123.825 251.951 125.607C248.524 130.42 246.043 134.975 239.263 134.918C237.655 134.904 236.06 134.586 234.451 134.582C232.827 134.482 231.228 135.015 229.989 136.069C228.769 137.265 228.392 139.084 227.346 140.436C225.975 142.214 223.682 142.936 221.588 143.743C220.058 144.331 218.445 145.129 217.742 146.612C217.3 147.828 217.198 149.141 217.448 150.411C217.683 152.656 218.101 155.21 220.005 156.422C220.716 156.794 221.495 157.02 222.295 157.088C223.095 157.156 223.9 157.063 224.664 156.817C226.644 156.335 228.58 155.427 230.613 155.562C233.806 155.775 236.434 158.842 236.467 162.044C236.483 163.665 236.011 165.523 237.084 166.738C238.093 167.878 240.093 167.675 241.135 166.568C241.621 165.979 241.955 165.28 242.109 164.532C242.262 163.785 242.23 163.01 242.016 162.278C241.572 160.818 240.89 159.442 239.996 158.205C241.058 157.93 242.183 158.031 243.179 158.491C244.176 158.952 244.982 159.744 245.46 160.732C246.17 162.309 245.941 164.128 246.165 165.845C246.389 167.562 247.434 169.464 249.159 169.563C249.723 169.579 250.275 169.397 250.719 169.048C251.163 168.699 251.47 168.206 251.589 167.654C251.607 166.784 251.559 165.914 251.447 165.052C251.506 164.202 251.887 163.408 252.513 162.831C253.138 162.254 253.961 161.938 254.811 161.949C254.286 162.919 254.115 164.043 254.328 165.126C254.54 166.209 255.123 167.184 255.975 167.884C257.288 168.901 259.023 169.128 260.658 169.412C262.293 169.696 264.037 170.145 265.092 171.427C266.85 173.562 264.699 174.524 264.364 176.332C263.953 178.553 265.806 181.831 266.517 183.955L276.328 197.691C277.058 198.805 277.919 199.826 278.893 200.734C282.122 203.509 287.443 203.235 290.539 200.313C292.04 198.793 293.015 196.832 293.32 194.716C293.626 192.601 293.245 190.443 292.235 188.56C290.322 185.075 286.531 182.918 284.66 179.408C287.776 181.989 291.602 183.564 295.63 183.923C302.759 185.373 309.531 188.215 315.56 192.288C315.844 198.593 318.26 204.614 322.414 209.362C323.161 203.981 325.667 199 329.541 195.195C332.06 192.736 335.503 190.753 338.96 191.415C342.416 192.077 345.038 196.488 342.948 199.321L348.203 199.713L350.56 205.578C350.7 205.167 350.968 204.812 351.324 204.564C351.68 204.317 352.106 204.19 352.539 204.203C354.179 204.451 355.33 205.977 356.89 206.542C359.83 207.605 362.974 204.661 363.354 201.554C363.735 198.447 362.258 195.449 360.824 192.669C363.993 193.257 367.264 192.907 370.236 191.662C373.209 190.418 375.755 188.333 377.562 185.662C379.369 182.992 380.359 179.852 380.41 176.628C380.462 173.403 379.573 170.233 377.852 167.506C381.261 163.922 385.273 160.966 389.705 158.772C393.806 156.744 398.292 155.353 401.877 152.508C405.461 149.663 407.975 144.724 406.251 140.483C405.033 137.486 401.978 135.454 401.064 132.351C399.74 127.86 403.76 123.215 408.302 122.094C412.844 120.972 417.586 122.351 422.061 123.719C421.373 119.112 426.709 114.792 431.067 116.428L436.543 114.209C434.429 118.878 429.842 121.849 426.471 125.708C423.1 129.568 421.092 135.853 424.614 139.577L439.757 125.841L455.596 111.471L454.84 109.248C459.843 107.348 465.222 105.778 470 103.419Z" fill="#D88F4A"/>
<path d="M207.822 165.045C207.618 165.339 207.51 165.688 207.512 166.046C207.514 166.403 207.625 166.751 207.832 167.043C208.103 167.274 208.446 167.402 208.802 167.407C209.157 167.412 209.504 167.293 209.781 167.07C210.322 166.606 210.745 166.02 211.014 165.359C211.276 165.867 211.688 166.282 212.194 166.547C212.7 166.812 213.275 166.915 213.841 166.842C214.972 166.671 216.043 166.224 216.961 165.54C217.688 165.113 218.33 164.555 218.855 163.894C219.114 163.562 219.292 163.173 219.375 162.759C219.458 162.345 219.443 161.918 219.331 161.511C219.058 160.887 218.634 160.34 218.098 159.921L214.091 156.218L213.638 156.083C213.403 155.832 213.119 155.631 212.804 155.493C212.489 155.354 212.149 155.281 211.805 155.277C211.461 155.274 211.12 155.34 210.802 155.471C210.485 155.603 210.197 155.797 209.956 156.043C209.126 156.972 209.123 158.361 209.251 159.6C209.38 160.84 209.575 162.16 209.024 163.277C208.71 163.917 208.174 164.424 207.822 165.045Z" fill="#D88F4A"/>
<path d="M285.314 207.226C280.124 206.069 275.373 203.45 271.622 199.677C267.872 195.904 265.279 191.135 264.15 185.934C263.658 183.48 263.435 180.799 261.802 178.901C260.222 177.064 257.642 176.401 255.221 176.401C252.799 176.401 250.412 176.959 247.999 177.11C243.771 177.374 239.296 176.257 236.275 173.29C234.844 171.885 233.762 170.1 232.091 168.991C229.845 167.502 226.865 167.503 224.308 168.345C221.458 169.285 219.177 171.858 216.06 171.504C212.819 171.135 209.062 169.989 207.791 174.26C207.426 175.49 207.55 176.839 207.087 178.035C206.373 179.88 204.477 180.919 202.977 182.208C199.956 184.802 198.351 188.745 197.81 192.691C197.268 196.638 197.688 200.647 198.103 204.608C198.329 206.745 198.626 209.044 200.093 210.614C202.138 212.802 205.568 212.717 208.548 212.471L218.941 211.611C220.809 211.457 222.937 211.392 224.267 212.713C225.064 213.505 225.401 214.653 226.102 215.53C226.731 216.277 227.595 216.789 228.552 216.982C229.509 217.176 230.504 217.039 231.373 216.594C230.67 217.85 230.287 219.26 230.258 220.7C230.229 222.14 230.556 223.564 231.209 224.848C231.861 226.131 232.82 227.233 234.001 228.057C235.181 228.881 236.546 229.4 237.975 229.57L238.242 229.739C236.023 233.541 233.721 237.81 234.642 242.116C235.43 245.808 238.485 248.768 238.987 252.51C239.445 255.943 237.655 259.454 238.447 262.826C239.249 266.24 242.695 268.621 246.19 268.876C249.685 269.13 253.119 267.578 255.827 265.35C258.536 263.121 260.628 260.254 262.691 257.416C263.965 255.665 265.271 253.843 265.709 251.722C266.174 249.464 265.635 246.961 266.731 244.936C267.996 242.599 270.998 241.723 272.513 239.54C274.475 236.714 273.319 232.865 273.753 229.451C274.834 221.005 285.558 215.739 285.314 207.226Z" fill="#D88F4A"/>
<path d="M283.766 236.071C283.473 237.391 282.24 238.259 281.066 238.923C279.891 239.587 278.596 240.257 277.996 241.468C277.383 242.709 277.663 244.188 277.984 245.534C278.652 248.335 279.438 251.104 280.344 253.841C282.099 250.522 283.631 247.09 284.931 243.566C285.481 242.255 285.821 240.865 285.937 239.447C285.991 238.737 285.896 238.024 285.657 237.354C285.419 236.683 285.043 236.07 284.553 235.554L283.766 236.071Z" fill="#E6E6E6"/>
<path d="M355.948 221.376L351.526 216.267C350.518 215.103 349.369 213.858 347.842 213.665L347.213 214.067L351.047 223.203C351.499 224.594 352.295 225.847 353.362 226.847C354.505 227.746 356.36 227.919 357.314 226.82C357.622 226.408 357.816 225.922 357.877 225.411C357.938 224.9 357.863 224.382 357.661 223.91C357.245 222.97 356.665 222.111 355.948 221.375L355.948 221.376Z" fill="#E6E6E6"/>
<path d="M370.228 224.637C370.785 224.444 371.296 224.136 371.727 223.733C372.159 223.331 372.502 222.843 372.734 222.3C373.19 221.213 373.492 220.067 373.63 218.896L374.385 214.322L374.056 214.237C373.736 214.083 373.371 214.051 373.029 214.146C372.687 214.241 372.391 214.457 372.195 214.754C371.824 215.359 371.543 216.016 371.362 216.703C371.268 217.046 371.098 217.364 370.865 217.632C370.632 217.9 370.341 218.113 370.015 218.253C368.831 218.61 367.711 217.355 366.476 217.404C365.977 217.468 365.515 217.698 365.164 218.059C364.813 218.42 364.594 218.888 364.544 219.389C364.472 220.4 364.759 221.404 365.353 222.225C366.405 223.861 368.359 225.175 370.228 224.637Z" fill="#E6E6E6"/>
<path d="M378.377 227.528L381.774 218.575C380.398 219.574 379.344 220.953 378.74 222.544C378.137 224.135 378.011 225.867 378.377 227.528Z" fill="#E6E6E6"/>
<path d="M395.713 220.313L395.026 220.342C394.719 220.95 394.556 221.62 394.549 222.301C394.543 222.982 394.693 223.656 394.988 224.269C395.591 225.492 396.468 226.559 397.55 227.387C399.228 228.773 401.144 229.844 403.203 230.546C406.224 231.428 409.346 231.909 412.492 231.978L417.886 232.331C418.743 232.39 419.851 232.278 420.089 231.453C420.285 230.771 419.705 230.131 419.163 229.673C414.406 225.666 408.638 223.046 402.493 222.1C400.16 221.743 397.689 221.597 395.713 220.313Z" fill="#E6E6E6"/>
<path d="M414.905 244.072L411.026 240.307C409.768 239.087 407.884 237.793 406.442 238.79C405.614 239.363 405.358 240.48 404.656 241.202C404.229 241.586 403.712 241.857 403.153 241.99C402.595 242.124 402.012 242.115 401.457 241.966C400.353 241.656 399.309 241.16 398.369 240.501L395.16 238.508L391.839 236.445L389.34 238.876C389.449 237.68 387.855 236.902 386.752 237.375C386.227 237.67 385.776 238.079 385.431 238.572C385.087 239.065 384.858 239.629 384.761 240.223C384.577 241.41 384.257 242.572 383.806 243.686C382.537 246.117 379.457 246.837 376.747 247.244C374.036 247.651 370.966 248.225 369.516 250.552C368.307 252.491 368.669 254.979 369.073 257.227L370.599 265.734C370.672 266.765 371.085 267.742 371.774 268.511C373.115 269.697 375.194 268.976 376.832 268.253C380.255 266.605 383.929 265.54 387.702 265.1C391.508 264.674 395.339 265.657 398.472 267.862C400.414 269.343 401.895 271.391 403.953 272.706C405.37 273.56 406.964 274.078 408.613 274.222C410.261 274.366 411.921 274.132 413.465 273.536C416.559 272.303 419.12 270.018 420.697 267.081C422.098 264.492 422.8 261.583 422.736 258.64C422.672 255.696 421.844 252.82 420.332 250.295C418.788 248.003 416.965 245.913 414.905 244.072Z" fill="#E6E6E6"/>
<path d="M411.092 278.73C410.781 279.107 410.6 279.573 410.574 280.061C410.547 280.549 410.678 281.032 410.947 281.441C411.51 282.249 412.369 282.802 413.337 282.981C414.296 283.153 415.274 283.198 416.244 283.114L416.274 282.389C416.015 281.115 415.428 279.931 414.571 278.954C413.635 278.063 411.979 277.789 411.092 278.73Z" fill="#E6E6E6"/>
<path d="M444.393 279.508L443.93 279.339L440.619 284.334C440.026 285.229 439.406 286.305 439.768 287.317C440.196 288.514 441.781 288.865 443.012 288.551C443.952 288.295 444.798 287.777 445.453 287.056C446.109 286.336 446.545 285.444 446.712 284.484C446.848 283.519 446.702 282.535 446.29 281.652C445.879 280.768 445.219 280.024 444.393 279.508Z" fill="#E6E6E6"/>
<path d="M452.808 274.223L449.762 271.799C449.723 272.924 449.682 274.048 449.64 275.173H449.525C450.228 275.789 450.891 276.449 451.511 277.149C452.225 277.756 453.421 278.03 454.03 277.325C454.213 277.071 454.316 276.768 454.328 276.455C454.339 276.142 454.259 275.833 454.096 275.565C453.761 275.036 453.323 274.58 452.808 274.223Z" fill="#E6E6E6"/>
<path d="M397.771 168.771C396.493 168.731 395.077 168.653 394.087 169.463C393.761 169.754 393.475 170.088 393.237 170.455L392.887 170.944C392.365 171.629 391.909 172.362 391.526 173.134C391.326 173.496 391.207 173.897 391.175 174.309C391.143 174.721 391.2 175.136 391.341 175.524C391.423 175.71 391.545 175.875 391.697 176.008C391.85 176.142 392.03 176.24 392.225 176.296C392.42 176.352 392.625 176.365 392.825 176.333C393.025 176.301 393.216 176.225 393.384 176.112C393.93 175.605 393.803 174.686 394.216 174.066C394.398 173.832 394.632 173.644 394.899 173.516C395.166 173.388 395.459 173.325 395.754 173.33C396.345 173.344 396.932 173.411 397.511 173.528C399.113 173.748 400.745 173.504 402.213 172.825C403.682 172.147 404.925 171.061 405.798 169.698C406.67 168.335 407.134 166.75 407.135 165.131C407.136 163.512 406.674 161.927 405.804 160.562L405.701 160.248C404.816 160.214 403.947 160.492 403.246 161.033C402.544 161.574 402.055 162.345 401.862 163.21C401.576 164.701 402.182 166.432 401.28 167.651C400.518 168.678 399.049 168.811 397.771 168.771Z" fill="#E6E6E6"/>
<path d="M409.211 152.967L409.016 152.95C407.873 153.159 406.776 153.569 405.775 154.159C405.446 154.312 405.184 154.578 405.036 154.909C404.992 155.085 404.993 155.268 405.038 155.443C405.083 155.619 405.171 155.78 405.294 155.913C405.542 156.175 405.833 156.394 406.153 156.559C406.631 156.878 407.159 157.115 407.715 157.259C407.994 157.328 408.286 157.326 408.565 157.254C408.843 157.183 409.099 157.043 409.31 156.847C409.508 156.575 409.644 156.263 409.708 155.933C409.773 155.603 409.765 155.263 409.684 154.936C409.593 154.266 409.434 153.606 409.211 152.967H409.211Z" fill="#E6E6E6"/>
<path d="M389.51 169.151C389.815 168.661 390.033 168.121 390.151 167.556L390.509 166.239L389.235 165.465C388.626 165.782 388.065 166.182 387.567 166.655C387.319 166.893 387.123 167.18 386.992 167.497C386.861 167.815 386.796 168.156 386.803 168.499C386.821 168.843 386.954 169.17 387.181 169.428C387.408 169.686 387.716 169.86 388.054 169.92C388.342 169.929 388.628 169.863 388.884 169.728C389.139 169.593 389.355 169.394 389.511 169.151L389.51 169.151Z" fill="#E6E6E6"/>
<path d="M250.702 50.5601C250.198 50.8745 250.34 51.6344 250.544 52.1921L251.249 54.1137L251.577 52.8702C251.865 52.3878 251.992 51.8261 251.94 51.2665C251.827 50.7194 251.176 50.2663 250.702 50.5601Z" fill="#D88F4A"/>
<path d="M407.745 259.199C423.959 259.199 437.103 246.044 437.103 229.816C437.103 213.588 423.959 200.432 407.745 200.432C391.531 200.432 378.387 213.588 378.387 229.816C378.387 246.044 391.531 259.199 407.745 259.199Z" fill="#9A5A4B"/>
<mask id="mask0_251_124" style="mask-type:luminance" maskUnits="userSpaceOnUse" x="378" y="200" width="60" height="60">
<path d="M407.745 259.199C423.959 259.199 437.103 246.044 437.103 229.816C437.103 213.588 423.959 200.432 407.745 200.432C391.531 200.432 378.387 213.588 378.387 229.816C378.387 246.044 391.531 259.199 407.745 259.199Z" fill="white"/>
</mask>
<g mask="url(#mask0_251_124)">
<path d="M415.447 228.563C415.839 227.281 415.869 225.916 415.533 224.619C415.197 223.321 414.509 222.142 413.544 221.213C412.579 220.283 411.376 219.64 410.068 219.353C408.759 219.067 407.397 219.149 406.133 219.591C404.869 220.032 403.751 220.816 402.905 221.855C402.059 222.893 401.517 224.147 401.339 225.475C401.161 226.804 401.355 228.155 401.899 229.38C402.442 230.605 403.314 231.655 404.418 232.414L399.996 243.508L421.721 241.665C421.721 241.665 410.712 235.752 410.573 233.39C411.721 233.051 412.767 232.433 413.617 231.591C414.468 230.748 415.096 229.708 415.447 228.563Z" fill="#ED9DA0"/>
<path d="M421.75 240.966L423.603 240.109C424.27 240.237 424.885 240.556 425.373 241.029C425.862 241.502 426.201 242.106 426.351 242.769C426.982 245.16 429.864 257.964 429.864 257.964C430.354 258.486 430.682 259.138 430.81 259.842C430.938 260.546 430.86 261.272 430.585 261.932C430.585 261.932 430.923 264.48 429.864 264.863C428.806 265.246 421.719 270.723 421.719 270.723L421.75 240.966Z" fill="#090814"/>
<path d="M416.17 237.63L411.381 234.711C410.276 240.211 404.578 240.513 403.474 235.013L399.951 237.63L392.518 240.11L393.599 268.955L408.689 268.912V268.955H422.522L423.603 240.11L416.17 237.63Z" fill="#090814"/>
<path d="M394.372 240.966L392.519 240.109C391.852 240.237 391.237 240.556 390.749 241.029C390.261 241.502 389.921 242.106 389.772 242.769C389.14 245.16 390.312 258.979 390.312 258.979C389.823 259.501 389.494 260.153 389.367 260.857C389.239 261.561 389.317 262.287 389.591 262.947C389.591 262.947 389.254 265.495 390.312 265.878C391.37 266.261 394.373 266.431 394.373 266.431L394.372 240.966Z" fill="#090814"/>
<path d="M401.686 223.359L401.136 228.975C401.136 228.975 395.365 217.767 402.54 215.694C402.54 215.694 401.841 214.747 402.855 214.432C403.869 214.117 413.486 212.605 414.253 217.317C414.253 217.317 419.276 220.432 417.756 223.767L415.965 227.687L414.343 227.777C414.343 227.777 414.297 220.314 411.818 220.563C409.339 220.812 401.686 223.359 401.686 223.359Z" fill="#090814"/>
</g>
<path d="M249.505 184.565C265.881 184.565 279.157 171.41 279.157 155.182C279.157 138.954 265.881 125.798 249.505 125.798C233.129 125.798 219.854 138.954 219.854 155.182C219.854 171.41 233.129 184.565 249.505 184.565Z" fill="#9A5A4B"/>
<mask id="mask1_251_124" style="mask-type:luminance" maskUnits="userSpaceOnUse" x="219" y="125" width="61" height="60">
<path d="M249.505 184.565C265.881 184.565 279.157 171.41 279.157 155.182C279.157 138.954 265.881 125.798 249.505 125.798C233.129 125.798 219.854 138.954 219.854 155.182C219.854 171.41 233.129 184.565 249.505 184.565Z" fill="white"/>
</mask>
<g mask="url(#mask1_251_124)">
<path d="M245.712 158.402L245.418 163.192L254.356 163.646L251.588 157.334L245.712 158.402Z" fill="#ED9DA0"/>
<path d="M245.188 162.476C247.584 163.736 251.416 163.391 255.757 162.476L256.436 197.953C256.436 197.953 242.285 202.542 237.613 196.602L240.64 166.247L245.188 162.479L245.188 162.476Z" fill="#D6D6E3"/>
<path d="M253.031 160.631L259.474 164.451C260.661 165.154 261.58 166.232 262.086 167.516C262.592 168.8 262.656 170.216 262.269 171.54L257.289 188.563C257.289 188.563 265.398 202.507 262.764 203.737C256.842 206.499 248.006 205.829 248.006 205.829L249.98 172.443L253.034 160.631H253.031Z" fill="#3F3D58"/>
<path d="M245.467 162.349L238.181 165.183L236.46 186.221L231.641 203.168C239.802 206.15 239.039 204.761 239.039 204.761L240.389 175.519L245.463 162.355L245.467 162.349Z" fill="#3F3D58"/>
<path d="M234.826 202.808L234.851 202.69L242.298 168.213C242.385 167.834 242.397 167.441 242.332 167.057C242.268 166.673 242.128 166.306 241.922 165.976C241.715 165.646 241.446 165.36 241.129 165.134C240.812 164.909 240.454 164.748 240.075 164.66C239.696 164.573 239.303 164.562 238.92 164.626C238.536 164.691 238.169 164.831 237.84 165.037C237.51 165.244 237.224 165.513 236.999 165.831C236.773 166.148 236.612 166.506 236.525 166.886L228.344 200.546L234.824 202.81L234.826 202.808Z" fill="#3F3D58"/>
<path d="M249.589 159.674C253.594 159.674 256.841 156.424 256.841 152.416C256.841 148.408 253.594 145.158 249.589 145.158C245.584 145.158 242.338 148.408 242.338 152.416C242.338 156.424 245.584 159.674 249.589 159.674Z" fill="#ED9DA0"/>
<path d="M246.14 143.013C244.543 143.575 243.628 143.894 242.793 144.704C241.379 146.067 241.145 147.889 240.929 149.581C240.604 151.251 240.738 152.977 241.316 154.576C241.58 155.244 242.863 158.22 245.319 158.595C245.801 158.669 246.934 158.688 246.607 158.447C243.587 156.214 242.298 154.868 242.404 151.428C242.469 149.291 245.732 146.984 247.669 146.569C248.135 146.474 248.615 146.48 249.078 146.588C249.541 146.696 249.975 146.903 250.35 147.194C251.978 148.532 251.909 154.064 253.626 155.221C254.331 155.697 253.861 152.349 254.359 152.892C255.341 153.963 254.712 155.602 254.536 156.228C253.699 159.192 252.822 157 252.005 159.531C251.125 162.263 258.862 164.103 259.125 164.713C259.583 165.774 253.039 170.81 254.836 171.683C257.116 172.792 258.913 171.348 259.973 172.586C260.565 173.278 260.245 174.011 261.315 176.164C261.664 176.869 261.84 177.218 261.994 177.206C262.725 177.147 263.911 171.283 261.994 165.823C261.189 163.531 260.401 161.287 258.29 159.531C257.175 158.602 256.235 158.269 255.971 157.185C255.59 155.636 257.171 154.975 257.488 152.532C257.704 150.862 257.857 148.472 257.266 146.94C256.71 145.493 256.227 144.237 254.962 143.1C254.658 142.827 252.206 140.968 249.606 140.915C248.409 140.891 247.529 142.524 246.141 143.012L246.14 143.013Z" fill="#090814"/>
<path d="M257.363 164.667C258.471 164.51 259.597 164.781 260.514 165.424C261.43 166.067 262.068 167.034 262.298 168.13C263.966 176.064 266.959 192.971 262.259 193.253C258.212 193.425 254.161 193.053 250.213 192.147L251.688 183.658L256.481 183.166L253.663 169.966C253.536 169.373 253.533 168.76 253.653 168.166C253.773 167.572 254.014 167.008 254.361 166.511C254.708 166.014 255.154 165.594 255.67 165.276C256.186 164.959 256.762 164.751 257.362 164.667H257.363Z" fill="#3F3D58"/>
</g>
<path d="M86.8856 117.768C92.7013 117.768 98.3865 119.494 103.222 122.728C108.058 125.962 111.827 130.559 114.052 135.936C116.278 141.314 116.86 147.231 115.726 152.94C114.591 158.649 111.79 163.893 107.678 168.009C103.566 172.125 98.3262 174.928 92.6222 176.064C86.9182 177.199 81.0058 176.616 75.6327 174.389C70.2596 172.161 65.6672 168.389 62.4361 163.549C59.205 158.71 57.4805 153.02 57.4805 147.199C57.4805 139.393 60.5785 131.908 66.093 126.388C71.6075 120.869 79.0868 117.768 86.8856 117.768Z" fill="#9A5A4B"/>
<mask id="mask2_251_124" style="mask-type:luminance" maskUnits="userSpaceOnUse" x="57" y="117" width="60" height="60">
<path d="M86.8274 176.513C103.035 176.513 116.174 163.362 116.174 147.141C116.174 130.919 103.035 117.768 86.8274 117.768C70.6196 117.768 57.4805 130.919 57.4805 147.141C57.4805 163.362 70.6196 176.513 86.8274 176.513Z" fill="white"/>
</mask>
<g mask="url(#mask2_251_124)">
<path d="M88.6184 141.533C91.4247 141.533 93.6997 139.256 93.6997 136.447C93.6997 133.639 91.4247 131.362 88.6184 131.362C85.8121 131.362 83.5371 133.639 83.5371 136.447C83.5371 139.256 85.8121 141.533 88.6184 141.533Z" fill="#FFB9B9"/>
<path d="M84.2295 137.603C84.2295 137.603 83.9982 144.77 82.8438 145.694C81.6895 146.619 87.0015 150.549 87.0015 150.549L90.4658 145.001V139.915L84.2295 137.603Z" fill="#FFB9B9"/>
<path d="M86.5413 147.313L83.737 143.075L82.1517 145.232L79.8418 151.706L81.6896 176.904L92.5456 177.135L93.9313 148.238L90.4671 144.076L86.5413 147.313Z" fill="#F2F2F2"/>
<path d="M98.3209 148.931L100.169 148.7C100.169 148.7 100.63 148.931 100.861 150.55C101.093 152.168 103.863 166.501 103.863 166.501L100.167 184.073L96.0098 178.525L98.5516 168.816L96.0104 159.103L98.3209 148.931Z" fill="#090814"/>
<path d="M74.7601 148.7H73.3744L69.9102 167.426L73.1436 181.991L76.3777 176.673L75.4535 170.894L75.9145 165.808L77.5315 162.803L74.7601 148.7Z" fill="#090814"/>
<path d="M85.6163 136.449L86.5405 136.218C86.5405 136.218 87.2333 132.287 88.8503 132.75C90.4674 133.214 94.6251 133.675 94.6251 131.825C94.6251 129.975 90.6976 128.358 88.3889 128.588C86.0801 128.819 82.152 129.515 82.3828 132.982C82.6059 135.337 83.1865 137.643 84.1043 139.823L84.2259 137.766L85.6163 136.449Z" fill="#090814"/>
<path d="M99.9381 148.7L92.5469 145.695L90.8147 144.423L85.6178 167.426L82.1535 157.024L83.1928 143.732L73.6074 148.702L76.8426 164.423L77.3047 170.434L75.919 175.289C75.919 175.289 71.0685 178.756 72.6855 182.455C74.3026 186.155 76.1498 186.386 76.1498 186.386C76.1498 186.386 84.0031 178.989 84.4657 177.139C84.9284 175.29 85.6207 172.054 85.6207 172.054C85.6207 172.054 89.5482 186.849 94.1669 186.618C98.7855 186.386 98.7866 181.532 98.7866 181.532L97.6317 176.446L95.7816 171.123L96.7057 162.338L99.9381 148.7Z" fill="#090814"/>
</g>
</g>
<defs>
<clipPath id="clip0_251_124">
<rect width="470" height="307" fill="white"/>
</clipPath>
</defs>
</svg>
