<svg width="59" height="59" viewBox="0 0 59 59" fill="none" xmlns="http://www.w3.org/2000/svg">
<path d="M29.3581 58.7669C45.5722 58.7669 58.7162 45.6115 58.7162 29.3834C58.7162 13.1554 45.5722 0 29.3581 0C13.1441 0 0 13.1554 0 29.3834C0 45.6115 13.1441 58.7669 29.3581 58.7669Z" fill="#9A5A4B"/>
<mask id="mask0_253_354" style="mask-type:luminance" maskUnits="userSpaceOnUse" x="0" y="0" width="59" height="59">
<path d="M29.3581 58.7669C45.5722 58.7669 58.7162 45.6115 58.7162 29.3834C58.7162 13.1554 45.5722 0 29.3581 0C13.1441 0 0 13.1554 0 29.3834C0 45.6115 13.1441 58.7669 29.3581 58.7669Z" fill="white"/>
</mask>
<g mask="url(#mask0_253_354)">
<path d="M37.06 28.1306C37.4525 26.8491 37.4825 25.4839 37.1466 24.1864C36.8108 22.8889 36.1222 21.71 35.1573 20.7806C34.1925 19.8511 32.9891 19.2075 31.6809 18.9212C30.3726 18.6349 29.0107 18.717 27.7463 19.1586C26.4819 19.6002 25.3646 20.3838 24.5183 21.4226C23.672 22.4613 23.1299 23.7145 22.9523 25.043C22.7746 26.3714 22.9683 27.7232 23.5118 28.9481C24.0553 30.1731 24.9274 31.2233 26.0313 31.9821L21.6094 43.0756L43.3344 41.2332C43.3344 41.2332 32.3251 35.3201 32.1865 32.9577C33.3342 32.619 34.3802 32.0008 35.2307 31.1584C36.0812 30.316 36.7097 29.2757 37.06 28.1306Z" fill="#ED9DA0"/>
<path d="M43.3637 40.5338L45.2162 39.677C45.8833 39.8046 46.4986 40.1243 46.9867 40.5968C47.4749 41.0694 47.8146 41.6743 47.9641 42.3374C48.5953 44.7274 51.4777 57.5321 51.4777 57.5321C51.9672 58.0536 52.2956 58.7056 52.4236 59.4096C52.5515 60.1135 52.4734 60.8395 52.1988 61.5001C52.1988 61.5001 52.5358 64.0476 51.4777 64.4308C50.4197 64.8139 43.332 70.2904 43.332 70.2904L43.3637 40.5338Z" fill="#090814"/>
<path d="M37.7829 37.1976L32.994 34.2787C31.8896 39.7793 26.1918 40.0813 25.0873 34.5813L21.5643 37.1982L14.1309 39.6782L15.2118 68.5233L30.3019 68.4798V68.5233H44.1349L45.2158 39.6782L37.7829 37.1976Z" fill="#090814"/>
<path d="M15.9853 40.5338L14.1328 39.677C13.4657 39.8046 12.8504 40.1243 12.3622 40.5968C11.8741 41.0694 11.5344 41.6743 11.3848 42.3374C10.7536 44.7274 11.9256 58.547 11.9256 58.547C11.4362 59.0685 11.1077 59.7205 10.9798 60.4245C10.8519 61.1284 10.9299 61.8544 11.2046 62.515C11.2046 62.515 10.8676 65.0625 11.9256 65.4457C12.9837 65.8289 15.9858 65.9993 15.9858 65.9993L15.9853 40.5338Z" fill="#090814"/>
<path d="M23.2995 22.9267L22.7493 28.5425C22.7493 28.5425 16.9781 17.3345 24.1532 15.2618C24.1532 15.2618 23.4545 14.3144 24.4686 13.9994C25.4826 13.6844 35.0997 12.173 35.8659 16.8849C35.8659 16.8849 40.8897 19.9995 39.3696 23.3351L37.5781 27.2549L35.9564 27.3448C35.9564 27.3448 35.9106 19.8814 33.4316 20.1306C30.9526 20.3798 23.2995 22.9267 23.2995 22.9267Z" fill="#090814"/>
</g>
</svg>
