<svg width="59" height="59" viewBox="0 0 59 59" fill="none" xmlns="http://www.w3.org/2000/svg">
<path d="M29.4051 0C35.2209 0 40.906 1.72607 45.7417 4.95993C50.5773 8.19379 54.3463 12.7902 56.5719 18.1679C58.7975 23.5456 59.3798 29.4631 58.2452 35.1721C57.1106 40.881 54.31 46.125 50.1976 50.2409C46.0853 54.3569 40.8458 57.1598 35.1417 58.2954C29.4377 59.431 23.5253 58.8482 18.1523 56.6206C12.7792 54.3931 8.18672 50.621 4.95565 45.7811C1.72458 40.9413 0 35.2513 0 29.4305C0 21.625 3.09803 14.1393 8.61255 8.61998C14.1271 3.1007 21.6064 0 29.4051 0Z" fill="#9A5A4B"/>
<mask id="mask0_253_324" style="mask-type:luminance" maskUnits="userSpaceOnUse" x="0" y="0" width="59" height="59">
<path d="M29.347 58.7446C45.5548 58.7446 58.6939 45.5941 58.6939 29.3723C58.6939 13.1504 45.5548 0 29.347 0C13.1391 0 0 13.1504 0 29.3723C0 45.5941 13.1391 58.7446 29.347 58.7446Z" fill="white"/>
</mask>
<g mask="url(#mask0_253_324)">
<path d="M31.1379 23.7648C33.9443 23.7648 36.2192 21.4878 36.2192 18.6791C36.2192 15.8703 33.9443 13.5934 31.1379 13.5934C28.3316 13.5934 26.0566 15.8703 26.0566 18.6791C26.0566 21.4878 28.3316 23.7648 31.1379 23.7648Z" fill="#FFB9B9"/>
<path d="M26.7491 19.835C26.7491 19.835 26.5177 27.0016 25.3634 27.926C24.209 28.8504 29.5211 32.7807 29.5211 32.7807L32.9853 27.2325V22.1468L26.7491 19.835Z" fill="#FFB9B9"/>
<path d="M29.0608 29.545L26.2565 25.3068L24.6712 27.4641L22.3613 33.9373L24.2091 59.1353L35.0652 59.3669L36.4509 30.4694L32.9866 26.3081L29.0608 29.545Z" fill="#F2F2F2"/>
<path d="M40.8404 31.163L42.6882 30.932C42.6882 30.932 43.1497 31.163 43.381 32.7814C43.6124 34.3998 46.3826 48.7331 46.3826 48.7331L42.687 66.3044L38.5293 60.7562L41.0711 51.0473L38.5299 41.3343L40.8404 31.163Z" fill="#090814"/>
<path d="M17.2797 30.932H15.8939L12.4297 49.6575L15.6632 64.2223L18.8973 58.905L17.9731 53.1253L18.434 48.0396L20.051 45.0343L17.2797 30.932Z" fill="#090814"/>
<path d="M28.1358 18.6808L29.06 18.4493C29.06 18.4493 29.7528 14.5184 31.3699 14.982C32.9869 15.4457 37.1446 15.907 37.1446 14.057C37.1446 12.2071 33.2171 10.5898 30.9084 10.8202C28.5997 11.0505 24.6716 11.7463 24.9023 15.2136C25.1255 17.5683 25.706 19.8751 26.6239 22.0546L26.7454 19.9978L28.1358 18.6808Z" fill="#090814"/>
<path d="M42.4576 30.932L35.0664 27.9266L33.3343 26.6549L28.1373 49.6575L24.673 39.2557L25.7123 25.9633L16.1269 30.9337L19.3622 46.6551L19.8242 52.6658L18.4386 57.5205C18.4386 57.5205 13.588 60.9877 15.205 64.6871C16.8221 68.3865 18.6693 68.618 18.6693 68.618C18.6693 68.618 26.5226 61.2205 26.9853 59.3711C27.448 57.5217 28.1402 54.2854 28.1402 54.2854C28.1402 54.2854 32.0678 69.0811 36.6864 68.8496C41.305 68.618 41.3062 63.7639 41.3062 63.7639L40.1512 58.6782L38.3011 53.3545L39.2253 44.57L42.4576 30.932Z" fill="#090814"/>
</g>
</svg>
