<svg width="60" height="59" viewBox="0 0 60 59" fill="none" xmlns="http://www.w3.org/2000/svg">
<path d="M29.6517 58.7669C46.0279 58.7669 59.3034 45.6115 59.3034 29.3834C59.3034 13.1554 46.0279 0 29.6517 0C13.2755 0 0 13.1554 0 29.3834C0 45.6115 13.2755 58.7669 29.6517 58.7669Z" fill="#9A5A4B"/>
<mask id="mask0_253_338" style="mask-type:luminance" maskUnits="userSpaceOnUse" x="0" y="0" width="60" height="59">
<path d="M29.6517 58.7669C46.0279 58.7669 59.3034 45.6115 59.3034 29.3834C59.3034 13.1554 46.0279 0 29.6517 0C13.2755 0 0 13.1554 0 29.3834C0 45.6115 13.2755 58.7669 29.6517 58.7669Z" fill="white"/>
</mask>
<g mask="url(#mask0_253_338)">
<path d="M25.858 32.6033L25.5645 37.394L34.5028 37.8477L31.7349 31.5355L25.858 32.6033Z" fill="#ED9DA0"/>
<path d="M25.3347 36.6776C27.7304 37.9376 31.5628 37.5932 35.9037 36.6776L36.5824 72.1552C36.5824 72.1552 22.4318 76.7437 17.7598 70.8035L20.7866 40.4487L25.3342 36.6806L25.3347 36.6776Z" fill="#D6D6E3"/>
<path d="M33.1773 34.8329L39.6208 38.6527C40.8074 39.3556 41.7262 40.4341 42.2322 41.7178C42.7382 43.0015 42.8026 44.4174 42.4151 45.7418L37.4354 62.7648C37.4354 62.7648 45.5447 76.709 42.9101 77.939C36.9886 80.701 28.1523 80.0305 28.1523 80.0305L30.127 46.645L33.1802 34.8329H33.1773Z" fill="#3F3D58"/>
<path d="M25.6136 36.5513L18.3275 39.3844L16.6065 60.423L11.7871 77.3702C19.9487 80.352 19.1854 78.9627 19.1854 78.9627L20.5358 49.7209L25.6095 36.5571L25.6136 36.5513Z" fill="#3F3D58"/>
<path d="M14.9725 77.0093L14.9972 76.8918L22.4447 42.415C22.5318 42.0356 22.5434 41.6428 22.4788 41.2589C22.4142 40.8751 22.2747 40.5077 22.0683 40.1778C21.8618 39.8479 21.5924 39.5619 21.2756 39.3362C20.9587 39.1105 20.6005 38.9494 20.2214 38.8623C19.8424 38.7751 19.4499 38.7635 19.0663 38.8282C18.6828 38.8928 18.3157 39.0324 17.9861 39.2391C17.6565 39.4457 17.3708 39.7153 17.1453 40.0324C16.9197 40.3496 16.7588 40.7081 16.6717 41.0875L8.49023 74.748L14.9707 77.0117L14.9725 77.0093Z" fill="#3F3D58"/>
<path d="M29.7358 33.8755C33.7407 33.8755 36.9873 30.6261 36.9873 26.6178C36.9873 22.6095 33.7407 19.3601 29.7358 19.3601C25.731 19.3601 22.4844 22.6095 22.4844 26.6178C22.4844 30.6261 25.731 33.8755 29.7358 33.8755Z" fill="#ED9DA0"/>
<path d="M26.2862 17.2146C24.6891 17.7764 23.7749 18.0961 22.9394 18.9053C21.5255 20.2687 21.2918 22.0911 21.0751 23.783C20.7509 25.4524 20.8846 27.1786 21.4621 28.7781C21.7263 29.4457 23.0098 32.4217 25.4654 32.7966C25.9474 32.8707 27.08 32.8901 26.7536 32.6485C23.7332 30.4154 22.4444 29.0696 22.5501 25.63C22.6159 23.4926 25.8787 21.1855 27.8158 20.7706C28.2813 20.6754 28.7618 20.6821 29.2245 20.79C29.6872 20.8979 30.1212 21.1046 30.4967 21.3958C32.1249 22.734 32.0557 28.2663 33.7725 29.4228C34.4771 29.8988 34.0074 26.5503 34.5059 27.0933C35.4876 28.1646 34.8582 29.8042 34.682 30.4301C33.8453 33.3937 32.9687 31.2023 32.152 33.7328C31.2712 36.4648 39.0088 38.3048 39.2719 38.9148C39.7299 39.9762 33.1854 45.0119 34.9821 45.8852C37.262 46.9941 39.0593 45.5502 40.1192 46.7878C40.7116 47.4795 40.391 48.2129 41.4614 50.3656C41.8108 51.0708 41.9863 51.4198 42.1402 51.4075C42.8718 51.3487 44.0573 45.485 42.1402 40.0249C41.3358 37.733 40.5478 35.4887 38.4369 33.7328C37.3213 32.8043 36.3819 32.4705 36.1171 31.3868C35.736 29.8377 37.3178 29.1772 37.6343 26.7342C37.851 25.0635 38.003 22.6734 37.4129 21.142C36.8563 19.6951 36.3731 18.4387 35.1083 17.3015C34.8042 17.0283 32.3522 15.1695 29.7522 15.1166C28.5556 15.0925 27.6754 16.7256 26.288 17.214L26.2862 17.2146Z" fill="#090814"/>
<path d="M37.5093 38.8684C38.6174 38.7117 39.7437 38.9823 40.66 39.6254C41.5764 40.2685 42.2144 41.236 42.4449 42.3321C44.1125 50.2656 47.1052 67.1729 42.405 67.4549C38.3584 67.6271 34.307 67.2549 30.3594 66.3484L31.8343 57.8601L36.6279 57.3682L33.8095 44.168C33.6828 43.575 33.6793 42.9622 33.7994 42.3678C33.9195 41.7734 34.1605 41.2101 34.5075 40.713C34.8545 40.2159 35.3001 39.7956 35.8164 39.4782C36.3327 39.1609 36.9087 38.9533 37.5087 38.8684H37.5093Z" fill="#3F3D58"/>
</g>
</svg>
