<svg width="470" height="307" viewBox="0 0 470 307" fill="none" xmlns="http://www.w3.org/2000/svg">
<path d="M195.518 41.3923C197.162 38.0749 199.796 35.3211 201.404 31.9861C203.013 28.6511 203.327 24.1871 200.646 21.6343C198.369 19.467 194.803 19.4364 192.081 17.8662C185.145 13.8665 185.152 1.16167 177.226 0.063907C173.37 -0.469696 169.881 2.42398 167.55 5.54509C165.22 8.6662 163.363 12.3068 160.13 14.4777C156.471 16.9353 151.741 17.0423 147.678 18.7494C139.888 22.0222 135.804 30.4382 132.389 38.1731C130.189 43.1553 127.939 48.5295 128.959 53.8803C126.74 55.2619 127.729 58.9783 129.944 60.3664C132.159 61.7545 134.939 61.7239 137.482 62.3251C142.825 63.5886 147.203 67.8492 149.278 72.9366C150.895 76.9034 151.226 81.2586 151.538 85.5309L153.162 107.773C153.403 111.072 153.719 114.577 155.725 117.205C157.732 119.833 162.076 120.934 164.33 118.517C166.485 116.207 165.515 112.55 165.471 109.389C165.428 106.229 168.282 102.294 170.973 103.947L171.923 101.791C178.071 99.5881 183.454 95.6586 187.428 90.473C191.402 85.2874 193.799 79.0654 194.332 72.5517C195.017 62.0583 190.845 50.8085 195.518 41.3923Z" fill="#D88F4A"/>
<path d="M201.799 107.922C202.393 107.362 202.815 106.643 203.014 105.851C203.213 105.059 203.182 104.226 202.924 103.452C202.666 102.677 202.192 101.992 201.558 101.478C200.924 100.964 200.156 100.642 199.345 100.551L199.355 100.907C198.198 101.583 196.878 101.93 195.538 101.91C194.203 101.889 192.875 102.1 191.611 102.533C190.983 102.761 190.439 103.175 190.051 103.719C189.662 104.263 189.447 104.912 189.434 105.58C189.507 106.093 189.703 106.58 190.005 107.001C190.306 107.421 190.705 107.763 191.167 107.996C192.094 108.453 193.089 108.756 194.114 108.892C196.756 109.39 199.846 109.766 201.799 107.922Z" fill="#D88F4A"/>
<path d="M253.283 41.568C254.39 40.8156 255.329 39.8427 256.043 38.7102C256.388 38.1373 256.553 37.4732 256.514 36.8051C256.476 36.1371 256.237 35.4962 255.828 34.9667C254.995 34.2438 253.924 33.8566 252.822 33.8801C249.83 33.6566 246.823 34.0115 243.965 34.9256L252.769 42.7322L253.283 41.568Z" fill="#D88F4A"/>
<path d="M238.607 48.3361C239.793 49.6466 239.415 51.6794 239.077 53.4153C238.739 55.1513 238.698 57.3204 240.193 58.2677C241.485 59.0905 243.301 58.4188 244.244 57.2134C245.089 55.9288 245.604 54.4552 245.744 52.9235C246.209 50.6959 246.419 48.4227 246.37 46.1476C246.313 43.8559 245.505 41.6463 244.07 39.8596C243.052 38.6972 241.695 37.8831 240.191 37.5314C238.687 37.1797 237.11 37.3081 235.683 37.8985L237.046 37.831C236.055 39.1047 235.303 40.5482 234.828 42.091C234.6 42.8661 234.584 43.6881 234.781 44.4715C234.979 45.2549 235.382 45.9713 235.949 46.5461C236.76 47.246 237.887 47.5404 238.607 48.3361Z" fill="#D88F4A"/>
<path d="M305.507 26.3591L305.749 25.6116C304.735 26.1983 303.953 27.1161 303.535 28.2111C303.116 29.3061 303.086 30.5119 303.45 31.6264C304.23 31.0108 304.832 30.1982 305.193 29.2724C305.555 28.3465 305.663 27.3409 305.507 26.3591Z" fill="#D88F4A"/>
<path d="M292.329 37.0535C293.62 36.3218 294.722 35.2974 295.546 34.0625C296.37 32.8277 296.894 31.4167 297.075 29.9427C297.215 29.0265 297.109 28.0895 296.768 27.2277C296.593 26.7997 296.315 26.4217 295.958 26.1273C295.602 25.8328 295.179 25.631 294.726 25.5399L294.174 26.4097C293.381 25.7274 292.052 26.4291 291.719 27.4205C291.504 28.4496 291.593 29.519 291.976 30.4981C292.358 31.4831 292.341 32.5785 291.928 33.551C291.483 34.1229 290.982 34.6493 290.433 35.1224C290.165 35.3667 289.99 35.6965 289.938 36.0556C289.886 36.4147 289.96 36.7807 290.148 37.0911C290.665 37.6859 291.639 37.4367 292.329 37.0535Z" fill="#D88F4A"/>
<path d="M286.709 32.1929C287.183 31.3419 287.407 30.3743 287.355 29.4015L286.147 29.0225C285.375 29.3355 284.69 29.8311 284.151 30.467C283.987 30.6311 283.862 30.8295 283.783 31.0479C283.705 31.2663 283.676 31.4993 283.699 31.7302C283.721 31.9611 283.794 32.1842 283.913 32.3835C284.032 32.5828 284.193 32.7533 284.385 32.8829C284.577 33.0126 284.796 33.098 285.025 33.1332C285.254 33.1684 285.488 33.1525 285.71 33.0866C285.932 33.0206 286.137 32.9063 286.31 32.7518C286.483 32.5973 286.62 32.4065 286.71 32.1929H286.709Z" fill="#D88F4A"/>
<path d="M345.73 26.0782C345.84 26.1699 345.948 26.264 346.058 26.3562C346.154 26.3362 346.245 26.2974 346.343 26.2875L345.73 26.0782Z" fill="#E6E6E6"/>
<path d="M343.795 36.6851L347.12 33.9924C347.709 33.5752 348.211 33.047 348.598 32.4374C348.863 31.8603 348.977 31.2257 348.93 30.5926C348.883 29.9596 348.677 29.3486 348.33 28.8168C347.717 27.8742 346.948 27.0424 346.057 26.3568C345.078 26.5885 344.217 27.1717 343.639 27.9958C343.061 28.82 342.805 29.8278 342.919 30.8284C343.119 32.1013 343.917 33.4617 343.266 34.573C343.013 35.0055 342.576 35.3 342.283 35.7072C341.991 36.1145 341.896 36.765 342.298 37.063C342.744 37.3956 343.362 37.0353 343.795 36.6851Z" fill="#D88F4A"/>
<path d="M346.22 42.1798C346.632 42.2021 347.045 42.1353 347.429 41.984C347.813 41.8327 348.16 41.6005 348.447 41.303C349.929 40.0878 351.225 38.6623 352.295 37.0718L344.814 39.443L345.592 40.3533C344.898 40.8046 345.41 42.0241 346.22 42.1798Z" fill="#D88F4A"/>
<path d="M353.211 47.3189C353.364 47.7082 353.639 48.037 353.996 48.2548C354.352 48.4727 354.77 48.5677 355.186 48.5254C355.599 48.4702 355.996 48.3249 356.348 48.0996C356.7 47.8743 356.998 47.5745 357.221 47.2214C357.601 46.6617 357.824 46.0108 357.867 45.336C357.911 44.6612 357.774 43.9869 357.47 43.383C357.166 42.7791 356.706 42.2675 356.138 41.9011C355.57 41.5346 354.915 41.3267 354.24 41.2988L354.928 42.3519C355.104 44.1496 352.662 45.5982 353.211 47.3189Z" fill="#D88F4A"/>
<path d="M401.658 67.007C402.333 67.5109 403.152 67.7821 403.994 67.7801C404.836 67.7781 405.654 67.5029 406.326 66.9959C406.762 66.6233 407.116 66.1646 407.367 65.6486C407.618 65.1325 407.759 64.5703 407.782 63.997C407.806 63.4238 407.711 62.8519 407.503 62.3171C407.295 61.7824 406.979 61.2963 406.575 60.8894L405.301 61.6011C404.594 61.1466 403.739 60.9842 402.915 61.1479C402.092 61.3117 401.363 61.7888 400.884 62.479C400.454 63.2027 400.295 64.056 400.437 64.8859C400.579 65.7158 401.012 66.4678 401.658 67.007Z" fill="#D88F4A"/>
<path d="M416.472 68.6854C417.092 68.5051 417.656 68.1684 418.11 67.7076C418.563 67.2467 418.89 66.677 419.061 66.0532L416.583 65.7276C415.894 65.2069 415.092 64.8563 414.242 64.7045C413.816 64.6405 413.381 64.7252 413.01 64.9442C412.638 65.1632 412.354 65.5033 412.203 65.9075C412.151 66.2512 412.187 66.6028 412.308 66.9286C412.43 67.2544 412.633 67.5436 412.898 67.7686C413.365 68.2149 413.939 68.5337 414.565 68.6943C415.191 68.8549 415.847 68.852 416.472 68.686V68.6854Z" fill="#D88F4A"/>
<path d="M406.244 73.6436C406.288 74.0469 406.445 74.4294 406.698 74.7465C406.951 75.0636 407.288 75.3021 407.672 75.4342C408.09 75.633 408.559 75.7014 409.017 75.6305C409.475 75.5595 409.901 75.3525 410.24 75.0364C410.389 74.8674 410.497 74.6652 410.552 74.4465C410.608 74.2278 410.611 73.999 410.561 73.779C410.51 73.5589 410.408 73.3541 410.263 73.1814C410.118 73.0088 409.934 72.8733 409.726 72.7862L407.868 72.4483C407.15 72.0733 406.233 72.8326 406.244 73.6436Z" fill="#D88F4A"/>
<path d="M298.471 86.7127L297.033 85.3987C297.416 85.9322 297.905 86.3798 298.471 86.7127Z" fill="#E6E6E6"/>
<path d="M287.489 78.9766C288.374 83.0903 292.801 86.44 296.819 85.2059L297.031 85.3998C295.752 83.6468 295.535 81.0511 295.834 78.7986C296.389 74.9342 297.907 71.272 300.249 68.1497C302.59 65.0275 305.68 62.5457 309.232 60.9334C310.206 60.6293 311.076 60.0619 311.747 59.2938C312.319 58.4558 312.105 57.0178 311.119 56.781C310.583 56.7189 310.042 56.8434 309.587 57.1336L302.118 60.8124C298.346 62.6706 294.499 64.5823 291.536 67.5676C288.573 70.553 286.604 74.8629 287.489 78.9766Z" fill="#D88F4A"/>
<path d="M166.93 220.432C159.971 215.446 152.35 211.459 144.287 208.588C139.331 206.825 134.006 205.479 128.844 206.481C126.013 207.067 123.359 208.314 121.1 210.119C118.84 211.925 117.037 214.238 115.839 216.872C114.684 219.525 114.141 222.404 114.25 225.295C114.359 228.187 115.117 231.017 116.468 233.575C118.849 238.041 122.973 241.598 124.351 246.468C125.281 249.751 124.841 253.247 124.393 256.63L121.651 277.372C120.819 283.666 120.007 290.217 121.999 296.246C123.992 302.274 129.672 307.588 135.984 306.948L137.235 306.854C133.06 304.013 131.892 298.13 133.132 293.232C134.373 288.334 137.531 284.182 140.611 280.177L168.037 244.534C171.736 239.726 175.648 233.785 173.674 228.048C172.552 224.787 169.732 222.44 166.93 220.432Z" fill="#D88F4A"/>
<path d="M104.628 190.397C103.702 190.083 102.725 190.781 102.18 191.593C101.74 192.466 101.223 193.298 100.636 194.079C99.2118 195.548 96.6165 195.254 95.0805 193.902C93.5445 192.551 92.8792 190.46 92.581 188.437C92.2234 186.007 92.3778 183.296 93.9802 181.436C95.6295 179.521 98.341 179.007 100.836 178.609C103.413 178.198 106.3 177.856 108.41 179.391C109.74 180.358 110.515 181.918 111.747 183.007C112.979 184.096 115.17 184.508 116.097 183.15C116.34 182.669 116.463 182.136 116.455 181.597C116.447 181.057 116.309 180.528 116.053 180.054C115.532 179.109 115.218 178.064 115.133 176.988C115.196 175.495 116.393 174.308 117.619 173.454C118.845 172.601 120.229 171.864 121.034 170.605C122.023 169.056 121.918 167.061 122.532 165.329C124.016 161.135 129.317 159.27 130.861 155.097C131.233 154.22 131.275 153.237 130.978 152.331C130.333 150.669 128.585 150.995 128.478 148.964C128.376 147.021 129.995 145.115 131.641 144.304C133.91 143.188 136.554 143.276 139.082 143.208C141.611 143.14 144.334 142.804 146.187 141.084C146.788 140.464 147.251 139.725 147.546 138.914C147.841 138.103 147.962 137.239 147.901 136.378C147.839 135.517 147.597 134.678 147.189 133.918C146.782 133.157 146.218 132.491 145.536 131.963C144.153 131.008 142.406 130.675 141.061 129.668C139.385 128.413 138.595 126.323 137.287 124.686C136.201 123.439 134.959 122.338 133.591 121.41L130.232 118.916C128.208 117.413 126.101 115.871 123.638 115.335C121.175 114.799 118.242 115.557 117.008 117.757C116.521 118.738 116.256 119.813 116.23 120.908C116.117 123.485 116.225 126.067 116.551 128.625L117.161 134.804C117.343 136.65 117.147 139.085 115.356 139.564C111.384 140.627 112.724 134.745 111.843 132.947C110.493 130.19 104.298 128.866 101.649 127.717C99.9945 126.999 98.2488 126.207 97.2501 124.705C96.0065 122.835 96.2619 120.29 97.2371 118.268C98.2124 116.245 99.8007 114.598 101.244 112.878C102.715 111.125 104.055 109.266 105.393 107.409L110.048 100.947C112.039 98.1852 114.131 94.8137 113.001 91.6033C112.756 91.1735 112.39 90.8257 111.948 90.6033C111.506 90.3809 111.009 90.2939 110.518 90.3531C110.027 90.4124 109.565 90.6152 109.189 90.9363C108.813 91.2573 108.54 91.6823 108.404 92.158C107.908 93.8923 109.23 96.106 107.966 97.3912C107.532 97.7402 106.99 97.9256 106.434 97.9148C105.878 97.9041 105.343 97.6979 104.924 97.3325C104.104 96.5757 103.48 95.6317 103.103 94.581C101.572 91.1725 100.079 87.7446 98.506 84.3556C98.0087 83.2842 97.4902 81.4501 95.9812 81.6305C94.6736 81.7875 93.9672 83.695 94.0124 84.804C94.0788 86.4153 94.9684 87.8551 95.6483 89.3172C96.3282 90.7794 96.8038 92.5347 96.0593 93.964C95.114 95.7734 92.7189 96.1801 90.6797 96.1201C86.8359 96.0036 83.0696 95.009 79.6687 93.2123C79.5798 95.1031 79.4909 96.994 79.4021 98.8851L71.2816 95.4831L69.7045 94.8225C67.4211 93.8658 65.1352 92.9085 62.7842 92.1316C61.4496 91.6908 60.0968 91.3089 58.7446 90.9275L56.2785 90.2317C54.6562 89.6562 52.9355 89.4105 51.2171 89.5088C49.4116 89.7357 47.8016 90.7065 46.1317 91.4317C42.4068 93.0501 37.5885 91.4217 33.5964 91.3929C32.0129 89.0792 29.875 87.1998 27.3784 85.9266C24.8818 84.6534 22.106 84.0269 19.3051 84.1046C16.5041 84.1823 13.7673 84.9616 11.345 86.3713C8.92262 87.781 6.89208 89.776 5.43902 92.1739C4.73722 93.3888 4.11222 94.6465 3.56773 95.9397L1.94246 99.5832C1.14803 101.366 0.335983 103.243 0.492168 105.188C0.648354 107.134 2.13622 109.121 4.08795 109.103C-0.510122 111.187 -1.4666 118.477 2.43744 121.68C3.51841 122.566 4.8448 123.146 5.81714 124.148C6.55159 124.907 7.04277 125.868 7.22769 126.909C7.41262 127.949 7.28286 129.021 6.85507 129.987C6.42728 130.953 5.72096 131.769 4.82665 132.331C3.93234 132.892 2.89081 133.174 1.8356 133.139C4.55957 134.193 7.56004 134.291 10.3468 133.417C13.1337 132.543 15.5421 130.75 17.1787 128.329C18.848 125.713 19.5732 122.445 21.8443 120.331C24.8518 117.532 29.8192 117.749 33.2875 119.951C36.7559 122.152 38.9501 125.9 40.4597 129.722C42.4373 134.732 43.7032 140.457 47.9167 143.808C49.9541 145.428 52.5341 146.339 54.3356 148.219C56.9003 150.897 57.3436 154.938 57.286 158.647C57.2285 162.356 56.8292 166.204 58.1791 169.658C59.529 173.112 63.3984 175.954 66.8691 174.653C65.8749 177.606 65.9057 180.808 66.9564 183.74C68.0072 186.673 70.0164 189.165 72.6585 190.812L70.762 179.038C73.9127 179.926 75.9554 182.985 77.1345 186.041C78.3135 189.097 78.9371 192.403 80.6469 195.196C83.339 199.596 88.2142 201.492 93.1734 201.475C98.5307 201.457 100.565 198.9 104.095 195.135C104.804 194.493 105.342 193.684 105.661 192.781C105.805 192.326 105.78 191.834 105.59 191.396C105.4 190.958 105.059 190.603 104.628 190.397Z" fill="#D88F4A"/>
<path d="M119.798 190.201L110.814 188.791L115.524 191.625C116.833 192.496 118.255 193.182 119.752 193.664C120.502 193.9 121.294 193.979 122.076 193.897C122.859 193.814 123.616 193.572 124.302 193.184L123.918 192.451C123.316 190.92 121.42 190.456 119.798 190.201Z" fill="#D88F4A"/>
<path d="M117.764 206.86L117.784 206.808C117.603 206.508 117.337 206.268 117.018 206.12C116.7 205.973 116.345 205.924 115.999 205.98C115.309 206.103 114.604 206.114 113.91 206.014C113.47 205.841 113.077 205.566 112.765 205.211C112.452 204.855 112.229 204.43 112.115 203.971C111.817 203.075 111.729 202.116 111.39 201.234C111.145 200.537 110.713 199.921 110.141 199.454C109.569 198.987 108.879 198.687 108.147 198.587C107.413 198.528 106.685 198.76 106.121 199.234C105.557 199.708 105.202 200.385 105.133 201.119C105.19 201.875 105.43 202.605 105.832 203.247L106.8 205.113C107.073 205.67 107.387 206.206 107.74 206.717C108.312 207.506 109.059 208.15 109.923 208.598C110.787 209.047 111.744 209.288 112.717 209.302C113.691 209.316 114.654 209.102 115.53 208.678C116.407 208.254 117.172 207.632 117.766 206.86L117.764 206.86Z" fill="#D88F4A"/>
<path d="M100.275 47.37C102.555 48.7152 105.41 49.6425 106.494 52.0596L107.119 52.2617L105.074 54.8052C104.231 55.853 103.345 57.0207 103.365 58.3653C103.392 60.2176 105.173 61.6145 106.971 62.0511C108.89 62.4463 110.888 62.1137 112.576 61.1179C114.264 60.1221 115.522 58.5342 116.106 56.6622C116.32 55.8812 116.408 55.0714 116.596 54.2845C117.143 52.4169 117.968 50.6425 119.044 49.0213L137.208 18.4361C137.962 17.1662 138.739 15.6476 138.172 14.2837C137.87 13.7069 137.401 13.234 136.828 12.926C136.254 12.6179 135.602 12.4888 134.954 12.5553C133.662 12.7127 132.415 13.1327 131.291 13.7894C130.791 12.9111 130.086 12.1673 129.236 11.6218C128.386 11.0764 127.417 10.7455 126.411 10.6577C124.399 10.5023 122.376 10.6786 120.422 11.1796C116.006 11.8464 111.749 13.3104 107.856 15.5001C105.727 16.5773 103.383 17.9096 102.766 20.215C102.006 23.0523 104.455 25.9442 107.275 26.7599C110.094 27.5755 113.104 26.8903 115.958 26.2039C116.281 27.5886 116.146 29.0407 115.575 30.3425C115.004 31.6442 114.026 32.7256 112.789 33.4245C111.552 34.1235 110.122 34.4023 108.713 34.2192C107.304 34.0362 105.992 33.4011 104.975 32.4091C102.929 30.4158 101.927 26.9544 99.1183 26.4402C96.3187 25.9271 94.0934 28.916 93.4751 31.6969C92.8707 34.692 93.1986 37.8006 94.4145 40.6033C95.6304 43.4061 97.6759 45.7683 100.275 47.3712V47.37Z" fill="#D88F4A"/>
<path d="M135.393 96.4275C134.044 92.6239 132.271 88.9844 130.108 85.578C128.47 82.8837 126.448 80.443 124.106 78.3332C121.965 76.4827 119.503 75.0397 116.843 74.0755C114.26 73.1411 111.387 72.6792 108.777 73.5313C106.167 74.3835 103.946 76.8123 103.999 79.5597C104.058 82.5973 106.713 84.9733 109.481 86.2215C112.249 87.4697 115.327 88.0127 117.936 89.5624C119.711 90.64 121.195 92.1377 122.257 93.9238C123.319 95.7098 123.926 97.7295 124.025 99.8054L124.682 100.894C123.193 101.387 121.803 102.143 120.58 103.127C119.974 103.627 119.511 104.279 119.237 105.016C118.964 105.753 118.889 106.549 119.022 107.323C119.478 109.163 121.354 110.218 123.051 111.06L132.458 115.723C130.862 110.958 136.089 106.524 136.378 101.507C136.389 99.7637 136.054 98.0353 135.391 96.4228L135.393 96.4275Z" fill="#D88F4A"/>
<path d="M56.5498 83.5628C58.4522 85.0413 61.3763 84.3497 63.119 82.686C64.8617 81.0223 65.7101 78.6545 66.5016 76.3779C66.2127 78.6312 66.2402 80.9139 66.5832 83.1596C66.762 84.2825 67.1716 85.3561 67.7863 86.3123C68.401 87.2686 69.2074 88.0867 70.1544 88.7149C71.0144 89.186 71.9412 89.5229 72.9029 89.7139C77.374 90.7325 82.0467 90.3984 86.3277 88.7542L86.3659 87.2892C84.2151 87.5348 82.5881 85.1736 82.446 83.0121C82.3039 80.8507 83.0878 78.7304 83.1571 76.5648C83.2264 74.3992 82.1836 71.8693 80.0533 71.4844C80.426 72.2338 80.5619 73.079 80.4429 73.9076C80.3239 74.7361 79.9556 75.5088 79.387 76.1227C78.8184 76.7366 78.0765 77.1627 77.2601 77.3442C76.4436 77.5258 75.5912 77.4542 74.8164 77.139C72.3504 76.1358 71.4555 73.1293 69.5502 71.2693C68.3728 70.2213 66.9122 69.5449 65.352 69.3254C63.7917 69.1058 62.2013 69.3527 60.7809 70.0352C59.3785 70.7514 58.1482 71.7638 57.175 73.0025C56.2017 74.2412 55.5088 75.6766 55.1441 77.2095C54.5646 79.4362 54.7361 82.1529 56.5498 83.5628Z" fill="#D88F4A"/>
<path d="M115.253 68.1341L115.341 67.9907C114.812 66.4557 113.164 65.556 111.557 65.328C109.938 65.221 108.311 65.2747 106.702 65.4884C105.079 65.6987 103.433 65.3358 102.047 64.4624C100.942 63.6349 100.312 62.3332 99.4275 61.2713C98.5433 60.2094 97.1123 59.3367 95.8282 59.8445C94.4378 60.3939 94.0667 62.3444 94.7414 63.6796C95.5357 64.9607 96.7341 65.9403 98.1469 66.4634C103.5 68.9227 109.523 69.511 115.25 68.1341H115.253Z" fill="#D88F4A"/>
<path d="M96.9801 72.7345C96.5364 73.0609 96.2358 73.5463 96.1412 74.0892C96.0465 74.6322 96.1651 75.1908 96.4721 75.6483C96.7791 76.1058 97.2509 76.427 97.7889 76.5447C98.3269 76.6624 98.8895 76.5675 99.3593 76.2799L99.829 76.7436C100.453 75.627 100.71 74.1273 99.9123 73.1265C99.5576 72.7113 99.0623 72.4418 98.5213 72.3696C97.9803 72.2974 97.4317 72.4275 96.9807 72.7351L96.9801 72.7345Z" fill="#D88F4A"/>
<path d="M91.4922 76.7452C91.4991 76.3457 91.385 75.9535 91.1649 75.6201C90.9448 75.2867 90.629 75.0279 90.2591 74.8776C90.0073 74.8344 89.7494 74.8426 89.5009 74.9018C89.2524 74.961 89.0184 75.0699 88.8131 75.222C88.6078 75.3741 88.4353 75.5662 88.3061 75.7868C88.1769 76.0074 88.0937 76.2518 88.0614 76.5054C88.0226 77.0222 88.0905 77.5414 88.2607 78.0308C88.4309 78.5202 88.6998 78.9694 89.0507 79.3504C89.2549 79.6572 89.5217 79.9173 89.8337 80.1134C90.1456 80.3095 90.4955 80.4372 90.8604 80.4881C91.5955 80.5122 92.3453 79.7429 92.047 79.07L90.9244 79.0483C91.2703 78.328 91.4638 77.5439 91.4927 76.7452H91.4922Z" fill="#D88F4A"/>
<path d="M69.5402 65.2399L70.7768 66.2431C71.4908 66.8609 72.2621 67.4091 73.0802 67.8803C74.5112 68.6737 76.1941 68.88 77.774 68.4556C78.5541 68.2331 79.2657 67.8175 79.8431 67.2473C80.4205 66.6771 80.8452 65.9706 81.078 65.1929C81.5706 63.3341 80.7668 61.4036 79.98 59.6494C79.8005 59.1473 79.5042 58.6951 79.1157 58.3301C78.9168 58.1534 78.6629 58.051 78.3972 58.0402C78.1315 58.0295 77.8702 58.1112 77.6577 58.2713C77.5038 58.4632 77.4014 58.6913 77.3602 58.9339C77.3191 59.1766 77.3407 59.4257 77.4229 59.6576C77.5921 60.1199 77.6695 60.6108 77.6507 61.1027C77.572 61.5881 77.0635 62.0465 76.6155 61.8455L76.5439 63.4969C74.4037 62.4126 73.2717 59.5278 70.8895 59.2433C70.3549 59.1795 69.8131 59.2639 69.3231 59.4872C68.8331 59.7105 68.4138 60.0642 68.1109 60.5097C67.808 60.9553 67.6332 61.4755 67.6055 62.0136C67.5777 62.5518 67.6982 63.0872 67.9537 63.5615C68.3669 64.2194 68.9056 64.7894 69.5391 65.2387L69.5402 65.2399Z" fill="#D88F4A"/>
<path d="M64.4422 58.1096C64.9374 57.7699 65.3292 57.2999 65.5744 56.7514C65.8197 56.203 65.9088 55.5974 65.8321 55.0015C65.7728 54.7129 65.6508 54.4409 65.4746 54.2048C65.2984 53.9688 65.0724 53.7745 64.8127 53.6357C64.553 53.497 64.266 53.4172 63.972 53.4021C63.678 53.3869 63.3843 53.4368 63.1117 53.5482C62.5003 54.0059 62.0707 54.6658 61.8992 55.4105L60.207 60.1882L61.1553 59.4977C62.3285 59.245 63.4438 58.7742 64.4434 58.1096H64.4422Z" fill="#D88F4A"/>
<path d="M75.4286 48.3361C75.598 48.1224 75.7184 47.874 75.7816 47.6086C75.8447 47.3433 75.849 47.0672 75.7941 46.8C75.7392 46.5328 75.6264 46.2809 75.4638 46.062C75.3011 45.843 75.0925 45.6625 74.8526 45.533L73.6671 45.4219C73.3975 45.4901 73.1477 45.6207 72.9376 45.803C72.7275 45.9854 72.5631 46.2145 72.4575 46.472C72.3519 46.7295 72.3081 47.0081 72.3295 47.2856C72.351 47.5631 72.4371 47.8317 72.5811 48.0698C72.725 48.308 72.9227 48.509 73.1584 48.6569C73.394 48.8047 73.6609 48.8952 73.9378 48.9211C74.2147 48.947 74.4938 48.9075 74.7527 48.806C75.0116 48.7044 75.2431 48.5435 75.4286 48.3361Z" fill="#D88F4A"/>
<path d="M86.3362 50.1673C87.4424 50.6962 88.8428 51.2016 89.8051 50.4412C90.0901 50.1829 90.3021 49.854 90.4198 49.4877C90.5374 49.1213 90.5565 48.7304 90.4751 48.3543C90.3023 47.6041 89.9685 46.9004 89.4969 46.2922C88.025 44.1773 86.155 42.3702 83.9916 40.972L83.4567 41.6678C82.7099 43.6072 81.9888 45.8761 83.0304 47.6768C83.7333 48.8897 85.072 49.5638 86.3362 50.1673Z" fill="#D88F4A"/>
<path d="M94.5762 51.8956L96.6448 52.8324C96.4422 52.4783 96.1333 52.1972 95.7619 52.029C95.3905 51.8608 94.9756 51.8142 94.5762 51.8956Z" fill="#E6E6E6"/>
<path d="M89.0033 58.41L88.0257 58.7327C87.1942 60.0996 87.5559 61.8473 87.9417 63.4005C88.1859 64.3825 88.7132 65.5902 89.7231 65.5455C90.706 65.502 91.1405 64.3114 91.329 63.3435C91.6233 62.2939 91.6552 61.1879 91.4218 60.1231C91.2887 59.596 90.9719 59.1338 90.5285 58.8198C90.0851 58.5057 89.5442 58.3604 89.0033 58.41Z" fill="#D88F4A"/>
<path d="M73.4136 53.8091L74.1369 54.1029C74.3066 54.0791 74.4636 53.9999 74.5837 53.8777C74.7038 53.7554 74.7803 53.597 74.8013 53.4268C74.8223 53.2567 74.7867 53.0844 74.6999 52.9365C74.6131 52.7887 74.4801 52.6737 74.3214 52.6092C74.1627 52.5447 73.9871 52.5344 73.822 52.5799C73.6568 52.6254 73.5113 52.7242 73.4079 52.8608C73.3045 52.9975 73.249 53.1645 73.25 53.3359C73.251 53.5074 73.3085 53.6737 73.4136 53.8091Z" fill="#D88F4A"/>
<path d="M109.878 109.163C109.527 109.171 109.184 109.262 108.876 109.43C108.568 109.598 108.305 109.836 108.108 110.127C107.911 110.417 107.787 110.75 107.744 111.098C107.702 111.446 107.744 111.799 107.866 112.128C108.576 113.656 111.023 113.666 112.109 112.375C112.388 112.009 112.587 111.588 112.695 111.141C112.803 110.693 112.818 110.228 112.737 109.774C112.656 109.321 112.483 108.889 112.227 108.506C111.971 108.124 111.639 107.798 111.251 107.55L109.878 109.163Z" fill="#D88F4A"/>
<path d="M145.111 145.425C144.826 145.501 144.56 145.634 144.328 145.814C144.095 145.995 143.901 146.22 143.758 146.477C143.614 146.734 143.523 147.017 143.49 147.31C143.458 147.602 143.484 147.899 143.568 148.181L145.599 148.322L147.662 147.285C147.62 146.994 147.521 146.714 147.369 146.461C147.218 146.209 147.017 145.989 146.779 145.816C146.541 145.643 146.271 145.519 145.985 145.451C145.698 145.384 145.401 145.375 145.111 145.425L145.111 145.425Z" fill="#D88F4A"/>
<path d="M136.857 147.94C136.275 148.352 135.809 148.906 135.5 149.55C135.192 150.193 135.053 150.904 135.095 151.617C135.161 152.327 135.452 152.998 135.924 153.532C136.396 154.066 137.026 154.436 137.722 154.588C138.425 154.698 139.143 154.537 139.732 154.137C140.321 153.737 140.736 153.129 140.893 152.435C141.237 150.333 138.979 148.791 138.167 146.823L136.857 147.94Z" fill="#D88F4A"/>
<path d="M215.731 134.054C215.946 135.633 214.525 137.015 214.472 138.607C214.409 140.496 216.463 141.965 218.342 141.78C219.275 141.619 220.158 141.242 220.92 140.682C221.683 140.121 222.306 139.39 222.739 138.548L222.78 138.372L220.034 135.265C218.91 133.994 217.718 132.546 217.762 130.849C217.784 130.012 218.115 129.204 218.095 128.365C218.051 127.763 217.916 127.171 217.696 126.609C217.449 125.869 217.109 125.035 216.372 124.787C215.448 124.475 214.514 125.295 214.072 126.166C213.675 126.97 213.482 127.86 213.511 128.756C213.539 129.653 213.787 130.528 214.234 131.306C214.768 132.211 215.589 133.01 215.731 134.054Z" fill="#D88F4A"/>
<path d="M207.103 139.608C207.303 139.716 207.524 139.779 207.751 139.794C207.978 139.809 208.206 139.774 208.418 139.692C209.234 139.553 210.018 139.268 210.732 138.851C211.086 138.636 211.377 138.332 211.575 137.969C211.773 137.605 211.871 137.196 211.859 136.782C211.736 136.261 211.461 135.788 211.069 135.424C210.677 135.06 210.185 134.82 209.657 134.736C209.291 134.607 208.898 134.57 208.514 134.628C208.129 134.687 207.766 134.84 207.454 135.073C206.772 135.713 206.853 136.8 206.984 137.726L206.841 137.967C206.717 138.539 206.633 139.25 207.103 139.608Z" fill="#D88F4A"/>
<path d="M351.164 207.057L350.57 205.579C350.299 206.248 350.4 206.932 351.164 207.057Z" fill="#E6E6E6"/>
<path d="M470.002 103.419C467.461 100.66 465.906 99.0702 464.302 95.6506C463.429 93.7647 462.103 92.1245 460.442 90.8765C458.782 89.6284 456.838 88.8113 454.785 88.4981C449.515 87.6289 444.129 89.0052 438.795 88.7296C430.251 88.2877 422.546 83.7009 414.364 81.1992C409.782 79.9153 405.117 78.9531 400.402 78.3196L392.25 77.0267C383.343 75.6163 374.38 74.2059 365.365 74.3905C362.766 74.4445 359.141 73.6623 359.352 71.0684C359.611 67.8468 365.4 68.2693 366.516 65.2358C367.205 63.3593 365.556 61.3889 363.747 60.5403C361.938 59.6917 359.85 59.4366 358.208 58.2972C356.566 57.1577 355.667 54.5167 357.176 53.2062L344.629 59.6435C341.152 61.4277 337.267 63.7484 336.653 67.6105C334.558 68.1646 332.725 69.4393 331.475 71.2112C329.122 71.2235 327.273 73.4837 326.885 75.8062C326.497 78.1286 327.202 80.4787 327.9 82.7271C327.047 81.0911 326.138 79.3933 324.636 78.3255C323.134 77.2577 320.843 77.055 319.561 78.3807C318.245 79.7412 318.553 82.0243 319.484 83.6733C320.414 85.3223 321.844 86.6528 322.722 88.33C325.466 93.5685 320.495 100.944 314.615 100.36C315.009 94.9509 315.403 89.5415 315.798 84.1323C316.047 82.4682 315.906 80.7691 315.387 79.1688C314.745 77.6203 313.103 76.348 311.468 76.7141C308.529 77.3717 308.78 81.6805 310 84.4349C311.22 87.1893 312.442 91.0197 309.946 92.7069C308.334 93.7965 306.149 93.1236 304.409 92.2538C302.67 91.3841 300.808 90.3145 298.906 90.7188C297.005 91.1232 295.809 94.0351 297.489 95.0147L289.129 93.5608C288.991 94.3818 288.682 95.1647 288.223 95.8589C287.764 96.5531 287.164 97.1432 286.463 97.591C285.762 98.0388 284.974 98.3343 284.152 98.4585C283.329 98.5827 282.49 98.5329 281.688 98.3121L280.866 94.9077L279.643 94.5669C280.923 94.9236 278.92 100.326 277.124 104.454C274.711 104.171 271.184 104.116 270.783 103.424C268.856 100.109 269.084 92.2127 265.733 90.3474C264.054 89.4123 262.332 88.5602 260.566 87.7911C259.639 87.3495 258.66 87.0276 257.652 86.8332C255.597 86.5088 253.522 87.147 251.538 87.7782C249.193 88.5233 246.793 89.2967 244.852 90.8088C243.194 92.248 241.773 93.9395 240.641 95.821L229.142 112.855C228 114.371 227.101 116.057 226.478 117.85C226.185 118.742 226.087 119.687 226.192 120.62C226.297 121.553 226.601 122.452 227.085 123.257C227.595 124.046 228.355 124.64 229.244 124.943C230.132 125.247 231.096 125.243 231.982 124.931C233.093 124.45 234.205 123.359 235.306 123.863C236.14 124.244 236.348 125.341 236.261 126.255C236.049 127.149 236.032 128.079 236.212 128.98C236.714 130.402 238.642 130.897 240.017 130.281C241.355 129.55 242.357 128.329 242.812 126.873C244.137 123.471 244.002 119.707 244.332 116.071C244.662 112.434 245.655 108.546 248.519 106.284C249.376 105.607 250.636 105.12 251.519 105.763C251.849 106.064 252.078 106.46 252.173 106.897C252.268 107.334 252.224 107.789 252.047 108.2C251.678 109.012 251.197 109.768 250.618 110.447C249.639 111.825 248.955 113.39 248.606 115.044C248.258 116.698 248.253 118.407 248.593 120.063L249.18 120.426C251.411 119.845 254.402 120.884 257.368 121.879C255.215 122.52 253.32 123.825 251.953 125.607C248.526 130.42 246.045 134.974 239.265 134.917C237.657 134.904 236.062 134.585 234.453 134.582C232.829 134.481 231.23 135.015 229.991 136.069C228.771 137.265 228.394 139.084 227.348 140.436C225.977 142.213 223.684 142.936 221.59 143.743C220.06 144.331 218.447 145.129 217.744 146.611C217.302 147.828 217.2 149.141 217.45 150.411C217.685 152.656 218.103 155.21 220.006 156.422C220.718 156.794 221.497 157.02 222.297 157.088C223.097 157.155 223.902 157.063 224.666 156.816C226.646 156.334 228.582 155.426 230.615 155.562C233.808 155.775 236.436 158.842 236.469 162.044C236.485 163.664 236.013 165.523 237.086 166.737C238.095 167.878 240.095 167.675 241.137 166.568C241.623 165.979 241.957 165.28 242.111 164.532C242.264 163.784 242.232 163.01 242.018 162.278C241.574 160.818 240.892 159.441 239.998 158.205C241.06 157.929 242.185 158.031 243.181 158.491C244.178 158.952 244.984 159.744 245.462 160.732C246.172 162.309 245.943 164.128 246.167 165.845C246.391 167.562 247.436 169.464 249.161 169.563C249.725 169.579 250.277 169.396 250.721 169.048C251.165 168.699 251.472 168.206 251.591 167.654C251.609 166.784 251.561 165.914 251.449 165.051C251.508 164.202 251.889 163.407 252.515 162.83C253.14 162.253 253.963 161.938 254.813 161.948C254.288 162.919 254.117 164.042 254.33 165.125C254.542 166.209 255.125 167.184 255.977 167.884C257.29 168.901 259.025 169.127 260.66 169.412C262.295 169.696 264.039 170.145 265.094 171.427C266.852 173.562 264.701 174.524 264.366 176.332C263.955 178.552 265.807 181.83 266.519 183.954L276.33 197.691C277.06 198.805 277.921 199.826 278.895 200.734C282.124 203.509 287.445 203.235 290.541 200.313C292.042 198.793 293.017 196.831 293.322 194.716C293.628 192.601 293.247 190.443 292.237 188.56C290.324 185.074 286.533 182.918 284.662 179.407C287.778 181.989 291.603 183.563 295.632 183.923C302.761 185.372 309.533 188.215 315.562 192.288C315.846 198.593 318.262 204.613 322.416 209.362C323.162 203.981 325.669 199 329.543 195.195C332.062 192.736 335.505 190.753 338.961 191.415C342.418 192.076 345.04 196.488 342.949 199.321L348.205 199.713L350.562 205.578C350.702 205.167 350.969 204.812 351.326 204.564C351.682 204.317 352.108 204.19 352.541 204.202C354.181 204.45 355.332 205.977 356.892 206.541C359.832 207.604 362.976 204.661 363.356 201.554C363.737 198.447 362.26 195.449 360.826 192.669C363.995 193.256 367.266 192.906 370.238 191.662C373.211 190.418 375.757 188.333 377.564 185.662C379.371 182.992 380.361 179.852 380.412 176.627C380.464 173.403 379.575 170.233 377.854 167.506C381.263 163.922 385.275 160.966 389.707 158.772C393.808 156.744 398.294 155.352 401.879 152.508C405.463 149.663 407.977 144.723 406.253 140.483C405.035 137.486 401.98 135.453 401.066 132.351C399.742 127.86 403.762 123.215 408.304 122.093C412.846 120.971 417.588 122.351 422.063 123.719C421.375 119.111 426.711 114.792 431.069 116.428L436.545 114.209C434.431 118.878 429.844 121.849 426.473 125.708C423.102 129.567 421.094 135.853 424.616 139.577L439.759 125.84L455.598 111.471L454.842 109.247C459.845 107.348 465.224 105.777 470.002 103.419Z" fill="#D88F4A"/>
<path d="M207.824 165.045C207.62 165.339 207.512 165.688 207.514 166.045C207.515 166.403 207.627 166.751 207.834 167.043C208.105 167.273 208.448 167.402 208.804 167.407C209.159 167.412 209.505 167.292 209.783 167.069C210.324 166.606 210.747 166.02 211.016 165.359C211.278 165.867 211.69 166.281 212.196 166.547C212.702 166.812 213.277 166.915 213.843 166.841C214.974 166.671 216.045 166.224 216.963 165.54C217.69 165.113 218.332 164.555 218.857 163.894C219.116 163.562 219.294 163.173 219.377 162.759C219.46 162.345 219.445 161.918 219.333 161.511C219.06 160.886 218.636 160.34 218.1 159.92L214.093 156.218L213.64 156.082C213.405 155.831 213.121 155.631 212.806 155.492C212.491 155.354 212.151 155.281 211.807 155.277C211.463 155.273 211.122 155.339 210.804 155.471C210.487 155.603 210.199 155.797 209.958 156.043C209.128 156.972 209.124 158.361 209.253 159.6C209.382 160.839 209.577 162.16 209.026 163.277C208.712 163.917 208.176 164.424 207.824 165.045Z" fill="#D88F4A"/>
<path d="M285.316 207.225C280.126 206.069 275.375 203.449 271.624 199.676C267.874 195.903 265.281 191.135 264.152 185.934C263.66 183.48 263.437 180.798 261.804 178.901C260.224 177.064 257.644 176.401 255.223 176.401C252.801 176.401 250.414 176.959 248.001 177.11C243.773 177.374 239.298 176.256 236.277 173.29C234.846 171.885 233.764 170.1 232.093 168.991C229.847 167.501 226.867 167.502 224.31 168.345C221.46 169.285 219.178 171.858 216.062 171.503C212.821 171.135 209.064 169.988 207.793 174.26C207.428 175.49 207.552 176.839 207.089 178.035C206.375 179.879 204.479 180.919 202.979 182.208C199.958 184.802 198.353 188.744 197.812 192.691C197.27 196.638 197.69 200.646 198.105 204.608C198.331 206.745 198.628 209.044 200.095 210.614C202.14 212.802 205.57 212.717 208.55 212.47L218.943 211.611C220.811 211.457 222.939 211.391 224.269 212.713C225.066 213.505 225.403 214.652 226.104 215.53C226.733 216.277 227.597 216.789 228.554 216.982C229.511 217.175 230.506 217.038 231.375 216.593C230.672 217.85 230.289 219.26 230.26 220.7C230.231 222.14 230.558 223.564 231.211 224.847C231.863 226.131 232.822 227.233 234.003 228.057C235.183 228.88 236.548 229.4 237.976 229.57L238.244 229.738C236.025 233.541 233.722 237.81 234.644 242.116C235.432 245.808 238.487 248.768 238.989 252.509C239.447 255.942 237.657 259.454 238.449 262.826C239.251 266.24 242.697 268.621 246.192 268.875C249.687 269.13 253.121 267.578 255.829 265.349C258.538 263.121 260.63 260.254 262.693 257.416C263.967 255.665 265.273 253.843 265.711 251.721C266.176 249.464 265.637 246.961 266.733 244.936C267.998 242.599 271 241.723 272.515 239.54C274.477 236.713 273.321 232.865 273.755 229.45C274.836 221.005 285.56 215.739 285.316 207.225Z" fill="#D88F4A"/>
<path d="M283.768 236.071C283.475 237.39 282.242 238.259 281.067 238.923C279.893 239.587 278.598 240.257 277.998 241.468C277.385 242.709 277.665 244.187 277.986 245.534C278.654 248.335 279.44 251.104 280.346 253.841C282.101 250.522 283.633 247.089 284.933 243.566C285.483 242.255 285.823 240.864 285.939 239.447C285.993 238.737 285.898 238.024 285.659 237.354C285.421 236.683 285.045 236.07 284.555 235.554L283.768 236.071Z" fill="#D88F4A"/>
<path d="M355.95 221.376L351.528 216.267C350.52 215.102 349.371 213.858 347.844 213.664L347.215 214.066L351.048 223.203C351.501 224.593 352.297 225.847 353.364 226.846C354.507 227.746 356.362 227.919 357.316 226.819C357.624 226.407 357.818 225.922 357.879 225.411C357.94 224.9 357.865 224.382 357.663 223.909C357.247 222.969 356.667 222.111 355.949 221.375L355.95 221.376Z" fill="#D88F4A"/>
<path d="M370.23 224.637C370.787 224.443 371.298 224.135 371.729 223.733C372.161 223.331 372.504 222.842 372.736 222.3C373.192 221.213 373.494 220.067 373.632 218.896L374.387 214.322L374.058 214.237C373.738 214.083 373.373 214.051 373.031 214.146C372.689 214.241 372.393 214.457 372.197 214.753C371.826 215.359 371.545 216.016 371.364 216.703C371.27 217.046 371.1 217.364 370.867 217.632C370.634 217.9 370.343 218.112 370.017 218.252C368.833 218.61 367.713 217.355 366.478 217.404C365.979 217.467 365.517 217.698 365.166 218.059C364.815 218.419 364.596 218.888 364.546 219.389C364.474 220.4 364.761 221.404 365.354 222.225C366.407 223.861 368.361 225.175 370.23 224.637Z" fill="#D88F4A"/>
<path d="M378.379 227.528L381.776 218.574C380.4 219.573 379.345 220.953 378.742 222.544C378.139 224.134 378.013 225.867 378.379 227.528Z" fill="#D88F4A"/>
<path d="M395.715 220.313L395.028 220.342C394.721 220.95 394.558 221.62 394.551 222.301C394.544 222.982 394.695 223.655 394.99 224.269C395.593 225.492 396.47 226.559 397.552 227.387C399.23 228.773 401.146 229.843 403.205 230.546C406.225 231.428 409.348 231.909 412.494 231.978L417.888 232.331C418.745 232.389 419.853 232.278 420.091 231.453C420.287 230.771 419.707 230.13 419.165 229.673C414.408 225.666 408.64 223.046 402.495 222.1C400.162 221.743 397.691 221.597 395.715 220.313Z" fill="#D88F4A"/>
<path d="M414.907 244.072L411.028 240.307C409.77 239.086 407.886 237.793 406.444 238.79C405.616 239.363 405.36 240.48 404.658 241.202C404.231 241.586 403.714 241.857 403.155 241.99C402.597 242.124 402.014 242.115 401.459 241.966C400.355 241.655 399.311 241.16 398.371 240.501L395.162 238.508L391.841 236.445L389.342 238.875C389.451 237.68 387.857 236.902 386.754 237.375C386.229 237.669 385.778 238.078 385.433 238.571C385.089 239.064 384.86 239.629 384.763 240.223C384.579 241.41 384.259 242.572 383.808 243.685C382.539 246.117 379.459 246.837 376.748 247.244C374.038 247.651 370.968 248.225 369.518 250.552C368.309 252.491 368.671 254.979 369.075 257.227L370.601 265.734C370.674 266.764 371.087 267.741 371.776 268.511C373.117 269.696 375.196 268.976 376.834 268.253C380.257 266.605 383.931 265.54 387.704 265.1C391.51 264.674 395.341 265.656 398.473 267.862C400.416 269.343 401.897 271.391 403.955 272.706C405.372 273.559 406.966 274.078 408.615 274.222C410.263 274.366 411.923 274.131 413.467 273.536C416.561 272.303 419.122 270.017 420.699 267.081C422.1 264.492 422.802 261.583 422.738 258.639C422.674 255.696 421.846 252.82 420.334 250.294C418.79 248.003 416.967 245.913 414.907 244.072Z" fill="#D88F4A"/>
<path d="M411.093 278.729C410.783 279.107 410.602 279.573 410.576 280.061C410.549 280.549 410.68 281.032 410.948 281.44C411.512 282.249 412.371 282.802 413.339 282.981C414.298 283.152 415.276 283.197 416.246 283.114L416.276 282.388C416.017 281.114 415.43 279.931 414.573 278.954C413.637 278.063 411.981 277.789 411.093 278.729Z" fill="#D88F4A"/>
<path d="M444.395 279.508L443.932 279.338L440.621 284.333C440.028 285.229 439.407 286.304 439.77 287.316C440.198 288.514 441.783 288.865 443.014 288.551C443.953 288.295 444.8 287.776 445.455 287.056C446.111 286.336 446.547 285.444 446.714 284.484C446.85 283.519 446.704 282.535 446.292 281.651C445.881 280.768 445.221 280.023 444.395 279.508Z" fill="#D88F4A"/>
<path d="M452.81 274.223L449.764 271.799C449.725 272.923 449.684 274.048 449.642 275.172H449.527C450.23 275.789 450.893 276.449 451.513 277.149C452.227 277.756 453.423 278.03 454.032 277.325C454.215 277.07 454.318 276.768 454.33 276.455C454.341 276.142 454.261 275.832 454.098 275.565C453.763 275.036 453.325 274.58 452.81 274.223Z" fill="#D88F4A"/>
<path d="M397.773 168.771C396.494 168.731 395.079 168.653 394.089 169.462C393.763 169.754 393.477 170.088 393.239 170.454L392.889 170.944C392.367 171.629 391.911 172.362 391.528 173.134C391.328 173.496 391.209 173.897 391.177 174.309C391.145 174.721 391.202 175.135 391.343 175.524C391.425 175.709 391.547 175.875 391.699 176.008C391.852 176.142 392.032 176.24 392.227 176.296C392.422 176.352 392.627 176.365 392.827 176.333C393.027 176.301 393.218 176.225 393.386 176.111C393.932 175.605 393.805 174.686 394.218 174.066C394.4 173.832 394.634 173.644 394.901 173.516C395.168 173.388 395.461 173.324 395.756 173.329C396.346 173.344 396.934 173.411 397.513 173.528C399.115 173.748 400.747 173.504 402.215 172.825C403.684 172.146 404.927 171.061 405.799 169.698C406.672 168.334 407.135 166.75 407.137 165.131C407.138 163.512 406.676 161.927 405.806 160.562L405.703 160.248C404.818 160.214 403.949 160.492 403.248 161.033C402.546 161.574 402.057 162.344 401.864 163.21C401.578 164.701 402.184 166.432 401.282 167.651C400.52 168.677 399.051 168.811 397.773 168.771Z" fill="#D88F4A"/>
<path d="M409.213 152.967L409.018 152.95C407.875 153.159 406.778 153.568 405.777 154.159C405.448 154.312 405.186 154.578 405.038 154.909C404.994 155.084 404.995 155.268 405.04 155.443C405.085 155.618 405.173 155.78 405.296 155.913C405.544 156.175 405.835 156.393 406.155 156.559C406.633 156.878 407.161 157.115 407.717 157.258C407.996 157.327 408.288 157.326 408.567 157.254C408.845 157.182 409.101 157.042 409.312 156.847C409.51 156.575 409.646 156.263 409.71 155.933C409.775 155.603 409.767 155.262 409.686 154.936C409.595 154.265 409.436 153.606 409.213 152.967H409.213Z" fill="#E6E6E6"/>
<path d="M389.512 169.15C389.817 168.66 390.034 168.121 390.153 167.555L390.511 166.239L389.237 165.464C388.628 165.782 388.067 166.182 387.568 166.655C387.321 166.893 387.125 167.179 386.994 167.497C386.863 167.814 386.798 168.156 386.805 168.499C386.823 168.843 386.956 169.17 387.183 169.428C387.41 169.686 387.718 169.859 388.056 169.92C388.344 169.929 388.63 169.863 388.886 169.728C389.141 169.593 389.357 169.394 389.513 169.151L389.512 169.15Z" fill="#E6E6E6"/>
<path d="M250.704 50.5598C250.2 50.8743 250.342 51.6341 250.546 52.1918L251.251 54.1135L251.579 52.87C251.867 52.3876 251.994 51.8258 251.942 51.2662C251.829 50.7191 251.177 50.266 250.704 50.5598Z" fill="#D88F4A"/>
</svg>
